M48
INCH,TZ
T1C0.039
T2C0.043
T3C0.043
%
G90
G05
T1
X52000Y-31000
X53000Y-31000
X61500Y-34000
X61500Y-35000
X61500Y-36000
X61500Y-37000
X61500Y-38000
X61500Y-39000
X61500Y-40000
X61500Y-41000
X62500Y-34000
X62500Y-35000
X62500Y-36000
X62500Y-37000
X62500Y-38000
X62500Y-39000
X62500Y-40000
X62500Y-41000
T2
X61400Y-30700
X62400Y-30700
T3
X43457Y-30902
X43457Y-31902
X43457Y-32902
X43457Y-33902
X43457Y-34902
X43457Y-35902
X43457Y-36902
X43457Y-37902
X43457Y-38902
X43457Y-39902
X43457Y-40902
X43457Y-41902
X43457Y-42902
X43457Y-43902
X44457Y-43902
X45457Y-43902
X46457Y-36902
X46457Y-37902
X46457Y-38902
X46457Y-39902
X46457Y-40902
X46457Y-41902
X46457Y-42902
X46457Y-43902
X47457Y-36902
X47457Y-37902
X47457Y-38902
X47457Y-39902
X47457Y-40902
X47457Y-41902
X47457Y-42902
X47457Y-43902
X48457Y-31902
X48457Y-33902
X48457Y-34902
X48457Y-35902
X48457Y-43902
X49457Y-30902
X49457Y-31902
X49457Y-32902
X49457Y-33902
X49457Y-34902
X49457Y-35902
X49457Y-36902
X49457Y-37902
X49457Y-38902
X49457Y-39902
X49457Y-40902
X49457Y-41902
X49457Y-42902
X49457Y-43902
X53000Y-32900
X53000Y-33900
X53000Y-34900
X53000Y-35900
X53000Y-36900
X53000Y-37900
X53000Y-38900
X53000Y-39900
X53000Y-40900
X53000Y-41900
X53000Y-44300
X53000Y-45300
X53000Y-46300
X53000Y-47300
X53000Y-48300
X53000Y-49300
X53000Y-50300
X53000Y-51300
X53000Y-52300
X53000Y-53300
X58000Y-32900
X58000Y-33900
X58000Y-34900
X58000Y-35900
X58000Y-36900
X58000Y-37900
X58000Y-38900
X58000Y-39900
X58000Y-40900
X58000Y-41900
X58000Y-44300
X58000Y-45300
X58000Y-46300
X58000Y-47300
X58000Y-48300
X58000Y-49300
X58000Y-50300
X58000Y-51300
X58000Y-52300
X58000Y-53300
T0
M30
