G04 #@! TF.FileFunction,Copper,L2,Bot,Signal*
%FSLAX46Y46*%
G04 Gerber Fmt 4.6, Leading zero omitted, Abs format (unit mm)*
G04 Created by KiCad (PCBNEW 4.0.5) date Friday, 02 June 2017 'AMt' 04:11:03*
%MOMM*%
%LPD*%
G01*
G04 APERTURE LIST*
%ADD10C,0.100000*%
%ADD11C,0.300000*%
%ADD12R,1.700000X1.700000*%
%ADD13O,1.700000X1.700000*%
%ADD14C,1.600000*%
%ADD15R,1.600000X1.600000*%
%ADD16R,3.500000X3.500000*%
%ADD17C,2.400000*%
%ADD18R,2.400000X2.400000*%
%ADD19C,0.250000*%
%ADD20C,2.000000*%
%ADD21C,0.500000*%
G04 APERTURE END LIST*
D10*
D11*
X124839999Y-139357571D02*
X124839999Y-137857571D01*
X124339999Y-138929000D01*
X123839999Y-137857571D01*
X123839999Y-139357571D01*
X123125713Y-139357571D02*
X123125713Y-138357571D01*
X123125713Y-137857571D02*
X123197142Y-137929000D01*
X123125713Y-138000429D01*
X123054285Y-137929000D01*
X123125713Y-137857571D01*
X123125713Y-138000429D01*
X121768570Y-139286143D02*
X121911427Y-139357571D01*
X122197141Y-139357571D01*
X122339999Y-139286143D01*
X122411427Y-139214714D01*
X122482856Y-139071857D01*
X122482856Y-138643286D01*
X122411427Y-138500429D01*
X122339999Y-138429000D01*
X122197141Y-138357571D01*
X121911427Y-138357571D01*
X121768570Y-138429000D01*
X121125713Y-139357571D02*
X121125713Y-137857571D01*
X120482856Y-139357571D02*
X120482856Y-138571857D01*
X120554285Y-138429000D01*
X120697142Y-138357571D01*
X120911427Y-138357571D01*
X121054285Y-138429000D01*
X121125713Y-138500429D01*
X119125713Y-139357571D02*
X119125713Y-138571857D01*
X119197142Y-138429000D01*
X119339999Y-138357571D01*
X119625713Y-138357571D01*
X119768570Y-138429000D01*
X119125713Y-139286143D02*
X119268570Y-139357571D01*
X119625713Y-139357571D01*
X119768570Y-139286143D01*
X119839999Y-139143286D01*
X119839999Y-139000429D01*
X119768570Y-138857571D01*
X119625713Y-138786143D01*
X119268570Y-138786143D01*
X119125713Y-138714714D01*
X117839999Y-139286143D02*
X117982856Y-139357571D01*
X118268570Y-139357571D01*
X118411427Y-139286143D01*
X118482856Y-139143286D01*
X118482856Y-138571857D01*
X118411427Y-138429000D01*
X118268570Y-138357571D01*
X117982856Y-138357571D01*
X117839999Y-138429000D01*
X117768570Y-138571857D01*
X117768570Y-138714714D01*
X118482856Y-138857571D01*
X116911427Y-139357571D02*
X117054285Y-139286143D01*
X117125713Y-139143286D01*
X117125713Y-137857571D01*
X114339999Y-139214714D02*
X114411428Y-139286143D01*
X114625714Y-139357571D01*
X114768571Y-139357571D01*
X114982856Y-139286143D01*
X115125714Y-139143286D01*
X115197142Y-139000429D01*
X115268571Y-138714714D01*
X115268571Y-138500429D01*
X115197142Y-138214714D01*
X115125714Y-138071857D01*
X114982856Y-137929000D01*
X114768571Y-137857571D01*
X114625714Y-137857571D01*
X114411428Y-137929000D01*
X114339999Y-138000429D01*
X113054285Y-138357571D02*
X113054285Y-139357571D01*
X113697142Y-138357571D02*
X113697142Y-139143286D01*
X113625714Y-139286143D01*
X113482856Y-139357571D01*
X113268571Y-139357571D01*
X113125714Y-139286143D01*
X113054285Y-139214714D01*
X112125713Y-139357571D02*
X112268571Y-139286143D01*
X112339999Y-139143286D01*
X112339999Y-137857571D01*
X111339999Y-139357571D02*
X111482857Y-139286143D01*
X111554285Y-139143286D01*
X111554285Y-137857571D01*
X110197143Y-139286143D02*
X110340000Y-139357571D01*
X110625714Y-139357571D01*
X110768571Y-139286143D01*
X110840000Y-139143286D01*
X110840000Y-138571857D01*
X110768571Y-138429000D01*
X110625714Y-138357571D01*
X110340000Y-138357571D01*
X110197143Y-138429000D01*
X110125714Y-138571857D01*
X110125714Y-138714714D01*
X110840000Y-138857571D01*
X109482857Y-138357571D02*
X109482857Y-139357571D01*
X109482857Y-138500429D02*
X109411429Y-138429000D01*
X109268571Y-138357571D01*
X109054286Y-138357571D01*
X108911429Y-138429000D01*
X108840000Y-138571857D01*
X108840000Y-139357571D01*
X122054285Y-140407571D02*
X122054285Y-141479000D01*
X122125713Y-141693286D01*
X122268570Y-141836143D01*
X122482856Y-141907571D01*
X122625713Y-141907571D01*
X120697142Y-140907571D02*
X120697142Y-141907571D01*
X121339999Y-140907571D02*
X121339999Y-141693286D01*
X121268571Y-141836143D01*
X121125713Y-141907571D01*
X120911428Y-141907571D01*
X120768571Y-141836143D01*
X120697142Y-141764714D01*
X119982856Y-140907571D02*
X119982856Y-141907571D01*
X119982856Y-141050429D02*
X119911428Y-140979000D01*
X119768570Y-140907571D01*
X119554285Y-140907571D01*
X119411428Y-140979000D01*
X119339999Y-141121857D01*
X119339999Y-141907571D01*
X118054285Y-141836143D02*
X118197142Y-141907571D01*
X118482856Y-141907571D01*
X118625713Y-141836143D01*
X118697142Y-141693286D01*
X118697142Y-141121857D01*
X118625713Y-140979000D01*
X118482856Y-140907571D01*
X118197142Y-140907571D01*
X118054285Y-140979000D01*
X117982856Y-141121857D01*
X117982856Y-141264714D01*
X118697142Y-141407571D01*
X116268571Y-140550429D02*
X116197142Y-140479000D01*
X116054285Y-140407571D01*
X115697142Y-140407571D01*
X115554285Y-140479000D01*
X115482856Y-140550429D01*
X115411428Y-140693286D01*
X115411428Y-140836143D01*
X115482856Y-141050429D01*
X116339999Y-141907571D01*
X115411428Y-141907571D01*
X114482857Y-140407571D02*
X114340000Y-140407571D01*
X114197143Y-140479000D01*
X114125714Y-140550429D01*
X114054285Y-140693286D01*
X113982857Y-140979000D01*
X113982857Y-141336143D01*
X114054285Y-141621857D01*
X114125714Y-141764714D01*
X114197143Y-141836143D01*
X114340000Y-141907571D01*
X114482857Y-141907571D01*
X114625714Y-141836143D01*
X114697143Y-141764714D01*
X114768571Y-141621857D01*
X114840000Y-141336143D01*
X114840000Y-140979000D01*
X114768571Y-140693286D01*
X114697143Y-140550429D01*
X114625714Y-140479000D01*
X114482857Y-140407571D01*
X112554286Y-141907571D02*
X113411429Y-141907571D01*
X112982857Y-141907571D02*
X112982857Y-140407571D01*
X113125714Y-140621857D01*
X113268572Y-140764714D01*
X113411429Y-140836143D01*
X112054286Y-140407571D02*
X111054286Y-140407571D01*
X111697143Y-141907571D01*
D12*
X132080000Y-78740000D03*
D13*
X134620000Y-78740000D03*
D12*
X160528000Y-109474000D03*
D13*
X163068000Y-109474000D03*
X160528000Y-112014000D03*
X163068000Y-112014000D03*
X160528000Y-114554000D03*
X163068000Y-114554000D03*
X160528000Y-117094000D03*
X163068000Y-117094000D03*
X160528000Y-119634000D03*
X163068000Y-119634000D03*
X160528000Y-122174000D03*
X163068000Y-122174000D03*
X160528000Y-124714000D03*
X163068000Y-124714000D03*
X160528000Y-127254000D03*
X163068000Y-127254000D03*
D14*
X118000000Y-111510000D03*
X120540000Y-111510000D03*
X123080000Y-111510000D03*
X125620000Y-111510000D03*
X115460000Y-111510000D03*
X112920000Y-111510000D03*
X110380000Y-111510000D03*
X125620000Y-108970000D03*
X125620000Y-106430000D03*
X125620000Y-103890000D03*
X125620000Y-101350000D03*
X125620000Y-98810000D03*
X125620000Y-96270000D03*
X125620000Y-93730000D03*
X125620000Y-91190000D03*
X125620000Y-88650000D03*
X125620000Y-86110000D03*
X125620000Y-83570000D03*
X125620000Y-81030000D03*
X125620000Y-78490000D03*
X123080000Y-81030000D03*
X123080000Y-86110000D03*
X123080000Y-88650000D03*
X123080000Y-91190000D03*
X110380000Y-108970000D03*
X110380000Y-106430000D03*
X110380000Y-103890000D03*
X110380000Y-101350000D03*
X110380000Y-98810000D03*
X110380000Y-96270000D03*
X110380000Y-93730000D03*
X110380000Y-91190000D03*
X110380000Y-88650000D03*
X110380000Y-86110000D03*
X110380000Y-83570000D03*
X110380000Y-81030000D03*
D15*
X110380000Y-78490000D03*
D14*
X118000000Y-93730000D03*
X118000000Y-96270000D03*
X118000000Y-98810000D03*
X118000000Y-101350000D03*
X118000000Y-103890000D03*
X118000000Y-106430000D03*
X118000000Y-108970000D03*
X120540000Y-108970000D03*
X120540000Y-106430000D03*
X120540000Y-103890000D03*
X120540000Y-101350000D03*
X120540000Y-98810000D03*
X120540000Y-96270000D03*
X120540000Y-93730000D03*
X147320000Y-112522000D03*
X147320000Y-115062000D03*
X147320000Y-117602000D03*
X147320000Y-120142000D03*
X147320000Y-122682000D03*
X147320000Y-125222000D03*
X147320000Y-127762000D03*
X147320000Y-130302000D03*
X147320000Y-132842000D03*
X147320000Y-135382000D03*
X134620000Y-112522000D03*
X134620000Y-115062000D03*
X134620000Y-117602000D03*
X134620000Y-120142000D03*
X134620000Y-122682000D03*
X134620000Y-125222000D03*
X134620000Y-127762000D03*
X134620000Y-130302000D03*
X134620000Y-132842000D03*
X134620000Y-135382000D03*
X147320000Y-83566000D03*
X147320000Y-86106000D03*
X147320000Y-88646000D03*
X147320000Y-91186000D03*
X147320000Y-93726000D03*
X147320000Y-96266000D03*
X147320000Y-98806000D03*
X147320000Y-101346000D03*
X147320000Y-103886000D03*
X147320000Y-106426000D03*
X134620000Y-83566000D03*
X134620000Y-86106000D03*
X134620000Y-88646000D03*
X134620000Y-91186000D03*
X134620000Y-93726000D03*
X134620000Y-96266000D03*
X134620000Y-98806000D03*
X134620000Y-101346000D03*
X134620000Y-103886000D03*
X134620000Y-106426000D03*
D16*
X161798000Y-88900000D03*
X161798000Y-82900000D03*
X157098000Y-85900000D03*
D17*
X164592000Y-95560000D03*
D18*
X164592000Y-99060000D03*
D19*
X155956000Y-86106000D02*
X156210000Y-86360000D01*
D20*
X161798000Y-88900000D02*
X161798000Y-92766000D01*
X161798000Y-92766000D02*
X164592000Y-95560000D01*
D21*
X147320000Y-78232000D02*
X165862000Y-78232000D01*
X165608000Y-88900000D02*
X161798000Y-88900000D01*
X165862000Y-88646000D02*
X165608000Y-88900000D01*
X165862000Y-78232000D02*
X165862000Y-88646000D01*
X147320000Y-83566000D02*
X147320000Y-78232000D01*
X147320000Y-78232000D02*
X142494000Y-78232000D01*
X142494000Y-110744000D02*
X142494000Y-78232000D01*
X142494000Y-78232000D02*
X142494000Y-77978000D01*
X142494000Y-77978000D02*
X135382000Y-77978000D01*
X147320000Y-112522000D02*
X144272000Y-112522000D01*
X144272000Y-112522000D02*
X142494000Y-110744000D01*
X135382000Y-77978000D02*
X134620000Y-78740000D01*
X134620000Y-106426000D02*
X139446000Y-106426000D01*
X134620000Y-112522000D02*
X139446000Y-112522000D01*
X125620000Y-83570000D02*
X134616000Y-83570000D01*
X134616000Y-83570000D02*
X134874000Y-83312000D01*
X134874000Y-83312000D02*
X138430000Y-83312000D01*
X138430000Y-83312000D02*
X139446000Y-84328000D01*
X139446000Y-84328000D02*
X139446000Y-106426000D01*
X139446000Y-106426000D02*
X139446000Y-112522000D01*
X139446000Y-112522000D02*
X139446000Y-135636000D01*
X139446000Y-135636000D02*
X139192000Y-135382000D01*
X139192000Y-135382000D02*
X134620000Y-135382000D01*
X132080000Y-78740000D02*
X125870000Y-78740000D01*
X125870000Y-78740000D02*
X125620000Y-78490000D01*
D19*
X134620000Y-125222000D02*
X132080000Y-125222000D01*
X127000000Y-120142000D02*
X132080000Y-125222000D01*
X127000000Y-109728000D02*
X127000000Y-120142000D01*
X127000000Y-109728000D02*
X126242000Y-108970000D01*
X125620000Y-108970000D02*
X126242000Y-108970000D01*
X134620000Y-122682000D02*
X131064000Y-122682000D01*
X131064000Y-122682000D02*
X127508000Y-119126000D01*
X127508000Y-119126000D02*
X127508000Y-108318000D01*
X127508000Y-108318000D02*
X125620000Y-106430000D01*
X134620000Y-120142000D02*
X132080000Y-120142000D01*
X128270000Y-116332000D02*
X132080000Y-120142000D01*
X128270000Y-106426000D02*
X128270000Y-116332000D01*
X128270000Y-106426000D02*
X125734000Y-103890000D01*
X125620000Y-103890000D02*
X125734000Y-103890000D01*
X134620000Y-117602000D02*
X131826000Y-117602000D01*
X129032000Y-104762000D02*
X125620000Y-101350000D01*
X129032000Y-114808000D02*
X129032000Y-104762000D01*
X131826000Y-117602000D02*
X129032000Y-114808000D01*
X134620000Y-115062000D02*
X132080000Y-115062000D01*
X130302000Y-113284000D02*
X132080000Y-115062000D01*
X130302000Y-103632000D02*
X130302000Y-113284000D01*
X130302000Y-103632000D02*
X125620000Y-98950000D01*
X125620000Y-98810000D02*
X125620000Y-98950000D01*
X111646000Y-97536000D02*
X110380000Y-96270000D01*
X130048000Y-97536000D02*
X111646000Y-97536000D01*
X131318000Y-96266000D02*
X130048000Y-97536000D01*
X134620000Y-96266000D02*
X131318000Y-96266000D01*
X134620000Y-93726000D02*
X131318000Y-93726000D01*
X131318000Y-93726000D02*
X130048000Y-94996000D01*
X130048000Y-94996000D02*
X111646000Y-94996000D01*
X111646000Y-94996000D02*
X110380000Y-93730000D01*
X134620000Y-91186000D02*
X131572000Y-91186000D01*
X111646000Y-92456000D02*
X110380000Y-91190000D01*
X130302000Y-92456000D02*
X111646000Y-92456000D01*
X131572000Y-91186000D02*
X130302000Y-92456000D01*
X134620000Y-88646000D02*
X131318000Y-88646000D01*
X131318000Y-88646000D02*
X130048000Y-89916000D01*
X130048000Y-89916000D02*
X111646000Y-89916000D01*
X111646000Y-89916000D02*
X110380000Y-88650000D01*
X134620000Y-86106000D02*
X132080000Y-86106000D01*
X119892000Y-86110000D02*
X121158000Y-87376000D01*
X121158000Y-87376000D02*
X130810000Y-87376000D01*
X130810000Y-87376000D02*
X132080000Y-86106000D01*
X119892000Y-86110000D02*
X110380000Y-86110000D01*
X147320000Y-86106000D02*
X153924000Y-86106000D01*
X160528000Y-104394000D02*
X160528000Y-109474000D01*
X154686000Y-98552000D02*
X160528000Y-104394000D01*
X154686000Y-86868000D02*
X154686000Y-98552000D01*
X153924000Y-86106000D02*
X154686000Y-86868000D01*
X147320000Y-88646000D02*
X153162000Y-88646000D01*
X154178000Y-105664000D02*
X160528000Y-112014000D01*
X154178000Y-89662000D02*
X154178000Y-105664000D01*
X153162000Y-88646000D02*
X154178000Y-89662000D01*
X147574000Y-88900000D02*
X147320000Y-88646000D01*
X147320000Y-91186000D02*
X153670000Y-91186000D01*
X153670000Y-106934000D02*
X160528000Y-113792000D01*
X153670000Y-91186000D02*
X153670000Y-106934000D01*
X160528000Y-113792000D02*
X160528000Y-114554000D01*
X147320000Y-93726000D02*
X152908000Y-93726000D01*
X153162000Y-109728000D02*
X160528000Y-117094000D01*
X153162000Y-93980000D02*
X153162000Y-109728000D01*
X152908000Y-93726000D02*
X153162000Y-93980000D01*
X147574000Y-93980000D02*
X147320000Y-93726000D01*
X147320000Y-96266000D02*
X152654000Y-96266000D01*
X158496000Y-117602000D02*
X160528000Y-119634000D01*
X158496000Y-116332000D02*
X158496000Y-117602000D01*
X152654000Y-110490000D02*
X158496000Y-116332000D01*
X152654000Y-96266000D02*
X152654000Y-110490000D01*
X147320000Y-98806000D02*
X151892000Y-98806000D01*
X152146000Y-113792000D02*
X160528000Y-122174000D01*
X152146000Y-99060000D02*
X152146000Y-113792000D01*
X151892000Y-98806000D02*
X152146000Y-99060000D01*
X147574000Y-99060000D02*
X147320000Y-98806000D01*
X147320000Y-101346000D02*
X151130000Y-101346000D01*
X151638000Y-115824000D02*
X160528000Y-124714000D01*
X151638000Y-101854000D02*
X151638000Y-115824000D01*
X151130000Y-101346000D02*
X151638000Y-101854000D01*
X147320000Y-103886000D02*
X150622000Y-103886000D01*
X151130000Y-117856000D02*
X160528000Y-127254000D01*
X151130000Y-104394000D02*
X151130000Y-117856000D01*
X150622000Y-103886000D02*
X151130000Y-104394000D01*
X147574000Y-104140000D02*
X147320000Y-103886000D01*
X147320000Y-115062000D02*
X159004000Y-126746000D01*
X164084000Y-124714000D02*
X163068000Y-124714000D01*
X165862000Y-126492000D02*
X164084000Y-124714000D01*
X165862000Y-129286000D02*
X165862000Y-126492000D01*
X160402398Y-129286000D02*
X165862000Y-129286000D01*
X159004000Y-127887602D02*
X160402398Y-129286000D01*
X159004000Y-126746000D02*
X159004000Y-127887602D01*
X147320000Y-117602000D02*
X147320000Y-117856000D01*
X147320000Y-117856000D02*
X149352000Y-117856000D01*
X149352000Y-117856000D02*
X158242000Y-126746000D01*
X158242000Y-126746000D02*
X158242000Y-127762000D01*
X158242000Y-127762000D02*
X162306000Y-131826000D01*
X162306000Y-131826000D02*
X166116000Y-131826000D01*
X166116000Y-131826000D02*
X166878000Y-131064000D01*
X166878000Y-131064000D02*
X166878000Y-125984000D01*
X166878000Y-125984000D02*
X163068000Y-122174000D01*
X147320000Y-120142000D02*
X149098000Y-120142000D01*
X167697998Y-124263998D02*
X163068000Y-119634000D01*
X167697998Y-131514002D02*
X167697998Y-124263998D01*
X166624000Y-132588000D02*
X167697998Y-131514002D01*
X161544000Y-132588000D02*
X166624000Y-132588000D01*
X149098000Y-120142000D02*
X161544000Y-132588000D01*
X147320000Y-122682000D02*
X150622000Y-122682000D01*
X167132000Y-114554000D02*
X163068000Y-114554000D01*
X168148000Y-115570000D02*
X167132000Y-114554000D01*
X168148000Y-133350000D02*
X168148000Y-115570000D01*
X167894000Y-133604000D02*
X168148000Y-133350000D01*
X161544000Y-133604000D02*
X167894000Y-133604000D01*
X150622000Y-122682000D02*
X161544000Y-133604000D01*
X147320000Y-125222000D02*
X150622000Y-125222000D01*
X168656000Y-109474000D02*
X163068000Y-109474000D01*
X168656000Y-134366000D02*
X168656000Y-109474000D01*
X159766000Y-134366000D02*
X168656000Y-134366000D01*
X150622000Y-125222000D02*
X159766000Y-134366000D01*
M02*
