G04 #@! TF.FileFunction,Legend,Top*
%FSLAX46Y46*%
G04 Gerber Fmt 4.6, Leading zero omitted, Abs format (unit mm)*
G04 Created by KiCad (PCBNEW 4.0.5) date Saturday, 14 January 2017 'PMt' 15:32:27*
%MOMM*%
%LPD*%
G01*
G04 APERTURE LIST*
%ADD10C,0.100000*%
%ADD11C,0.300000*%
%ADD12C,0.150000*%
%ADD13C,0.120000*%
G04 APERTURE END LIST*
D10*
D11*
X116933429Y-121678857D02*
X117647714Y-121178857D01*
X116933429Y-120821714D02*
X118433429Y-120821714D01*
X118433429Y-121393142D01*
X118362000Y-121536000D01*
X118290571Y-121607428D01*
X118147714Y-121678857D01*
X117933429Y-121678857D01*
X117790571Y-121607428D01*
X117719143Y-121536000D01*
X117647714Y-121393142D01*
X117647714Y-120821714D01*
X118362000Y-123107428D02*
X118433429Y-122964571D01*
X118433429Y-122750285D01*
X118362000Y-122536000D01*
X118219143Y-122393142D01*
X118076286Y-122321714D01*
X117790571Y-122250285D01*
X117576286Y-122250285D01*
X117290571Y-122321714D01*
X117147714Y-122393142D01*
X117004857Y-122536000D01*
X116933429Y-122750285D01*
X116933429Y-122893142D01*
X117004857Y-123107428D01*
X117076286Y-123178857D01*
X117576286Y-123178857D01*
X117576286Y-122893142D01*
X117719143Y-124321714D02*
X117647714Y-124536000D01*
X117576286Y-124607428D01*
X117433429Y-124678857D01*
X117219143Y-124678857D01*
X117076286Y-124607428D01*
X117004857Y-124536000D01*
X116933429Y-124393142D01*
X116933429Y-123821714D01*
X118433429Y-123821714D01*
X118433429Y-124321714D01*
X118362000Y-124464571D01*
X118290571Y-124536000D01*
X118147714Y-124607428D01*
X118004857Y-124607428D01*
X117862000Y-124536000D01*
X117790571Y-124464571D01*
X117719143Y-124321714D01*
X117719143Y-123821714D01*
X116933429Y-127178857D02*
X116933429Y-126464571D01*
X118433429Y-126464571D01*
X117719143Y-127678857D02*
X117719143Y-128178857D01*
X116933429Y-128393143D02*
X116933429Y-127678857D01*
X118433429Y-127678857D01*
X118433429Y-128393143D01*
X116933429Y-129036000D02*
X118433429Y-129036000D01*
X118433429Y-129393143D01*
X118362000Y-129607428D01*
X118219143Y-129750286D01*
X118076286Y-129821714D01*
X117790571Y-129893143D01*
X117576286Y-129893143D01*
X117290571Y-129821714D01*
X117147714Y-129750286D01*
X117004857Y-129607428D01*
X116933429Y-129393143D01*
X116933429Y-129036000D01*
X116933429Y-131678857D02*
X118433429Y-131678857D01*
X117362000Y-132178857D01*
X118433429Y-132678857D01*
X116933429Y-132678857D01*
X116933429Y-134036000D02*
X117719143Y-134036000D01*
X117862000Y-133964571D01*
X117933429Y-133821714D01*
X117933429Y-133536000D01*
X117862000Y-133393143D01*
X117004857Y-134036000D02*
X116933429Y-133893143D01*
X116933429Y-133536000D01*
X117004857Y-133393143D01*
X117147714Y-133321714D01*
X117290571Y-133321714D01*
X117433429Y-133393143D01*
X117504857Y-133536000D01*
X117504857Y-133893143D01*
X117576286Y-134036000D01*
X117933429Y-134536000D02*
X117933429Y-135107429D01*
X118433429Y-134750286D02*
X117147714Y-134750286D01*
X117004857Y-134821714D01*
X116933429Y-134964572D01*
X116933429Y-135107429D01*
X116933429Y-135607429D02*
X117933429Y-135607429D01*
X117647714Y-135607429D02*
X117790571Y-135678857D01*
X117862000Y-135750286D01*
X117933429Y-135893143D01*
X117933429Y-136036000D01*
X116933429Y-136536000D02*
X117933429Y-136536000D01*
X118433429Y-136536000D02*
X118362000Y-136464571D01*
X118290571Y-136536000D01*
X118362000Y-136607428D01*
X118433429Y-136536000D01*
X118290571Y-136536000D01*
X116933429Y-137107429D02*
X117933429Y-137893143D01*
X117933429Y-137107429D02*
X116933429Y-137893143D01*
X115169143Y-118928857D02*
X115097714Y-119143143D01*
X115026286Y-119214571D01*
X114883429Y-119286000D01*
X114669143Y-119286000D01*
X114526286Y-119214571D01*
X114454857Y-119143143D01*
X114383429Y-119000285D01*
X114383429Y-118428857D01*
X115883429Y-118428857D01*
X115883429Y-118928857D01*
X115812000Y-119071714D01*
X115740571Y-119143143D01*
X115597714Y-119214571D01*
X115454857Y-119214571D01*
X115312000Y-119143143D01*
X115240571Y-119071714D01*
X115169143Y-118928857D01*
X115169143Y-118428857D01*
X114383429Y-120143143D02*
X114454857Y-120000285D01*
X114526286Y-119928857D01*
X114669143Y-119857428D01*
X115097714Y-119857428D01*
X115240571Y-119928857D01*
X115312000Y-120000285D01*
X115383429Y-120143143D01*
X115383429Y-120357428D01*
X115312000Y-120500285D01*
X115240571Y-120571714D01*
X115097714Y-120643143D01*
X114669143Y-120643143D01*
X114526286Y-120571714D01*
X114454857Y-120500285D01*
X114383429Y-120357428D01*
X114383429Y-120143143D01*
X114383429Y-121928857D02*
X115883429Y-121928857D01*
X114454857Y-121928857D02*
X114383429Y-121786000D01*
X114383429Y-121500286D01*
X114454857Y-121357428D01*
X114526286Y-121286000D01*
X114669143Y-121214571D01*
X115097714Y-121214571D01*
X115240571Y-121286000D01*
X115312000Y-121357428D01*
X115383429Y-121500286D01*
X115383429Y-121786000D01*
X115312000Y-121928857D01*
X115383429Y-123286000D02*
X114169143Y-123286000D01*
X114026286Y-123214571D01*
X113954857Y-123143143D01*
X113883429Y-123000286D01*
X113883429Y-122786000D01*
X113954857Y-122643143D01*
X114454857Y-123286000D02*
X114383429Y-123143143D01*
X114383429Y-122857429D01*
X114454857Y-122714571D01*
X114526286Y-122643143D01*
X114669143Y-122571714D01*
X115097714Y-122571714D01*
X115240571Y-122643143D01*
X115312000Y-122714571D01*
X115383429Y-122857429D01*
X115383429Y-123143143D01*
X115312000Y-123286000D01*
X114454857Y-124571714D02*
X114383429Y-124428857D01*
X114383429Y-124143143D01*
X114454857Y-124000286D01*
X114597714Y-123928857D01*
X115169143Y-123928857D01*
X115312000Y-124000286D01*
X115383429Y-124143143D01*
X115383429Y-124428857D01*
X115312000Y-124571714D01*
X115169143Y-124643143D01*
X115026286Y-124643143D01*
X114883429Y-123928857D01*
X115383429Y-125071714D02*
X115383429Y-125643143D01*
X115883429Y-125286000D02*
X114597714Y-125286000D01*
X114454857Y-125357428D01*
X114383429Y-125500286D01*
X114383429Y-125643143D01*
X114383429Y-126786000D02*
X115169143Y-126786000D01*
X115312000Y-126714571D01*
X115383429Y-126571714D01*
X115383429Y-126286000D01*
X115312000Y-126143143D01*
X114454857Y-126786000D02*
X114383429Y-126643143D01*
X114383429Y-126286000D01*
X114454857Y-126143143D01*
X114597714Y-126071714D01*
X114740571Y-126071714D01*
X114883429Y-126143143D01*
X114954857Y-126286000D01*
X114954857Y-126643143D01*
X115026286Y-126786000D01*
X114454857Y-127428857D02*
X114383429Y-127571714D01*
X114383429Y-127857429D01*
X114454857Y-128000286D01*
X114597714Y-128071714D01*
X114669143Y-128071714D01*
X114812000Y-128000286D01*
X114883429Y-127857429D01*
X114883429Y-127643143D01*
X114954857Y-127500286D01*
X115097714Y-127428857D01*
X115169143Y-127428857D01*
X115312000Y-127500286D01*
X115383429Y-127643143D01*
X115383429Y-127857429D01*
X115312000Y-128000286D01*
X115383429Y-128500286D02*
X115383429Y-129071715D01*
X115883429Y-128714572D02*
X114597714Y-128714572D01*
X114454857Y-128786000D01*
X114383429Y-128928858D01*
X114383429Y-129071715D01*
X114383429Y-129571715D02*
X115383429Y-129571715D01*
X115883429Y-129571715D02*
X115812000Y-129500286D01*
X115740571Y-129571715D01*
X115812000Y-129643143D01*
X115883429Y-129571715D01*
X115740571Y-129571715D01*
X114454857Y-130928858D02*
X114383429Y-130786001D01*
X114383429Y-130500287D01*
X114454857Y-130357429D01*
X114526286Y-130286001D01*
X114669143Y-130214572D01*
X115097714Y-130214572D01*
X115240571Y-130286001D01*
X115312000Y-130357429D01*
X115383429Y-130500287D01*
X115383429Y-130786001D01*
X115312000Y-130928858D01*
X115883429Y-132500286D02*
X114383429Y-133000286D01*
X115883429Y-133500286D01*
X114454857Y-134571714D02*
X114383429Y-134428857D01*
X114383429Y-134143143D01*
X114454857Y-134000286D01*
X114597714Y-133928857D01*
X115169143Y-133928857D01*
X115312000Y-134000286D01*
X115383429Y-134143143D01*
X115383429Y-134428857D01*
X115312000Y-134571714D01*
X115169143Y-134643143D01*
X115026286Y-134643143D01*
X114883429Y-133928857D01*
X114383429Y-135286000D02*
X115383429Y-135286000D01*
X115097714Y-135286000D02*
X115240571Y-135357428D01*
X115312000Y-135428857D01*
X115383429Y-135571714D01*
X115383429Y-135714571D01*
X114454857Y-136143142D02*
X114383429Y-136285999D01*
X114383429Y-136571714D01*
X114454857Y-136714571D01*
X114597714Y-136785999D01*
X114669143Y-136785999D01*
X114812000Y-136714571D01*
X114883429Y-136571714D01*
X114883429Y-136357428D01*
X114954857Y-136214571D01*
X115097714Y-136143142D01*
X115169143Y-136143142D01*
X115312000Y-136214571D01*
X115383429Y-136357428D01*
X115383429Y-136571714D01*
X115312000Y-136714571D01*
X114383429Y-137428857D02*
X115383429Y-137428857D01*
X115883429Y-137428857D02*
X115812000Y-137357428D01*
X115740571Y-137428857D01*
X115812000Y-137500285D01*
X115883429Y-137428857D01*
X115740571Y-137428857D01*
X114383429Y-138357429D02*
X114454857Y-138214571D01*
X114526286Y-138143143D01*
X114669143Y-138071714D01*
X115097714Y-138071714D01*
X115240571Y-138143143D01*
X115312000Y-138214571D01*
X115383429Y-138357429D01*
X115383429Y-138571714D01*
X115312000Y-138714571D01*
X115240571Y-138786000D01*
X115097714Y-138857429D01*
X114669143Y-138857429D01*
X114526286Y-138786000D01*
X114454857Y-138714571D01*
X114383429Y-138571714D01*
X114383429Y-138357429D01*
X115383429Y-139500286D02*
X114383429Y-139500286D01*
X115240571Y-139500286D02*
X115312000Y-139571714D01*
X115383429Y-139714572D01*
X115383429Y-139928857D01*
X115312000Y-140071714D01*
X115169143Y-140143143D01*
X114383429Y-140143143D01*
X111833429Y-126178858D02*
X112547714Y-125678858D01*
X111833429Y-125321715D02*
X113333429Y-125321715D01*
X113333429Y-125893143D01*
X113262000Y-126036001D01*
X113190571Y-126107429D01*
X113047714Y-126178858D01*
X112833429Y-126178858D01*
X112690571Y-126107429D01*
X112619143Y-126036001D01*
X112547714Y-125893143D01*
X112547714Y-125321715D01*
X111904857Y-127393143D02*
X111833429Y-127250286D01*
X111833429Y-126964572D01*
X111904857Y-126821715D01*
X112047714Y-126750286D01*
X112619143Y-126750286D01*
X112762000Y-126821715D01*
X112833429Y-126964572D01*
X112833429Y-127250286D01*
X112762000Y-127393143D01*
X112619143Y-127464572D01*
X112476286Y-127464572D01*
X112333429Y-126750286D01*
X112833429Y-127964572D02*
X111833429Y-128321715D01*
X112833429Y-128678857D01*
X111833429Y-131178857D02*
X111833429Y-130321714D01*
X111833429Y-130750286D02*
X113333429Y-130750286D01*
X113119143Y-130607429D01*
X112976286Y-130464571D01*
X112904857Y-130321714D01*
X111976286Y-131821714D02*
X111904857Y-131893142D01*
X111833429Y-131821714D01*
X111904857Y-131750285D01*
X111976286Y-131821714D01*
X111833429Y-131821714D01*
X113333429Y-132821714D02*
X113333429Y-132964571D01*
X113262000Y-133107428D01*
X113190571Y-133178857D01*
X113047714Y-133250286D01*
X112762000Y-133321714D01*
X112404857Y-133321714D01*
X112119143Y-133250286D01*
X111976286Y-133178857D01*
X111904857Y-133107428D01*
X111833429Y-132964571D01*
X111833429Y-132821714D01*
X111904857Y-132678857D01*
X111976286Y-132607428D01*
X112119143Y-132536000D01*
X112404857Y-132464571D01*
X112762000Y-132464571D01*
X113047714Y-132536000D01*
X113190571Y-132607428D01*
X113262000Y-132678857D01*
X113333429Y-132821714D01*
X161747343Y-77177200D02*
X161604486Y-77105771D01*
X161390200Y-77105771D01*
X161175915Y-77177200D01*
X161033057Y-77320057D01*
X160961629Y-77462914D01*
X160890200Y-77748629D01*
X160890200Y-77962914D01*
X160961629Y-78248629D01*
X161033057Y-78391486D01*
X161175915Y-78534343D01*
X161390200Y-78605771D01*
X161533057Y-78605771D01*
X161747343Y-78534343D01*
X161818772Y-78462914D01*
X161818772Y-77962914D01*
X161533057Y-77962914D01*
X162461629Y-78605771D02*
X162461629Y-77105771D01*
X163318772Y-78605771D01*
X163318772Y-77105771D01*
X164033058Y-78605771D02*
X164033058Y-77105771D01*
X164390201Y-77105771D01*
X164604486Y-77177200D01*
X164747344Y-77320057D01*
X164818772Y-77462914D01*
X164890201Y-77748629D01*
X164890201Y-77962914D01*
X164818772Y-78248629D01*
X164747344Y-78391486D01*
X164604486Y-78534343D01*
X164390201Y-78605771D01*
X164033058Y-78605771D01*
X150111058Y-78034343D02*
X151253915Y-78034343D01*
X150682486Y-78605771D02*
X150682486Y-77462914D01*
X152682487Y-77105771D02*
X151968201Y-77105771D01*
X151896772Y-77820057D01*
X151968201Y-77748629D01*
X152111058Y-77677200D01*
X152468201Y-77677200D01*
X152611058Y-77748629D01*
X152682487Y-77820057D01*
X152753915Y-77962914D01*
X152753915Y-78320057D01*
X152682487Y-78462914D01*
X152611058Y-78534343D01*
X152468201Y-78605771D01*
X152111058Y-78605771D01*
X151968201Y-78534343D01*
X151896772Y-78462914D01*
X153253915Y-77605771D02*
X153611058Y-78605771D01*
X153968200Y-77605771D01*
D12*
X160025080Y-80578960D02*
X154426920Y-80578960D01*
X154625040Y-81076800D02*
X154625040Y-80578960D01*
X159826960Y-80578960D02*
X159826960Y-81076800D01*
X157226000Y-81076800D02*
X157226000Y-80578960D01*
X154426920Y-75277980D02*
X160025080Y-75277980D01*
X154426920Y-81076800D02*
X160025080Y-81076800D01*
X160025080Y-81076800D02*
X160025080Y-74879200D01*
X160025080Y-74879200D02*
X154426920Y-74879200D01*
X154426920Y-74879200D02*
X154426920Y-81076800D01*
D13*
X133350000Y-80130000D02*
X136010000Y-80130000D01*
X136010000Y-80130000D02*
X136010000Y-77350000D01*
X136010000Y-77350000D02*
X133350000Y-77350000D01*
X133350000Y-77350000D02*
X133350000Y-80130000D01*
X132080000Y-80130000D02*
X130690000Y-80130000D01*
X130690000Y-80130000D02*
X130690000Y-78740000D01*
X154820000Y-87630000D02*
X154820000Y-105530000D01*
X154820000Y-105530000D02*
X160140000Y-105530000D01*
X160140000Y-105530000D02*
X160140000Y-84970000D01*
X160140000Y-84970000D02*
X157480000Y-84970000D01*
X157480000Y-84970000D02*
X157480000Y-87630000D01*
X157480000Y-87630000D02*
X154820000Y-87630000D01*
X154820000Y-86360000D02*
X154820000Y-84970000D01*
X154820000Y-84970000D02*
X156210000Y-84970000D01*
D12*
X114190000Y-77220000D02*
X114190000Y-75950000D01*
X114190000Y-75950000D02*
X121810000Y-75950000D01*
X121810000Y-75950000D02*
X121810000Y-77220000D01*
X112920000Y-88650000D02*
X112920000Y-92460000D01*
X112920000Y-92460000D02*
X115460000Y-92460000D01*
X115460000Y-92460000D02*
X115460000Y-88650000D01*
X115460000Y-88650000D02*
X112920000Y-88650000D01*
X114190000Y-82300000D02*
X121810000Y-82300000D01*
X121810000Y-82300000D02*
X121810000Y-77220000D01*
X114190000Y-82300000D02*
X114190000Y-77220000D01*
X112920000Y-83570000D02*
X112920000Y-86110000D01*
X112920000Y-86110000D02*
X115460000Y-86110000D01*
X115460000Y-86110000D02*
X115460000Y-83570000D01*
X115460000Y-83570000D02*
X112920000Y-83570000D01*
X120540000Y-110240000D02*
X115460000Y-110240000D01*
X115460000Y-110240000D02*
X115460000Y-107700000D01*
X115460000Y-107700000D02*
X120540000Y-107700000D01*
X120540000Y-107700000D02*
X120540000Y-110240000D01*
X112920000Y-103890000D02*
X123080000Y-103890000D01*
X123080000Y-95000000D02*
X112920000Y-95000000D01*
X123080000Y-103890000D02*
X123080000Y-95000000D01*
X112920000Y-103890000D02*
X112920000Y-95000000D01*
X126890000Y-77220000D02*
X126890000Y-112780000D01*
X126890000Y-112780000D02*
X109110000Y-112780000D01*
X109110000Y-112780000D02*
X109110000Y-77220000D01*
X109110000Y-77220000D02*
X126890000Y-77220000D01*
X149860000Y-109982000D02*
X132080000Y-109982000D01*
X149860000Y-137922000D02*
X132080000Y-137922000D01*
X149860000Y-109982000D02*
X149860000Y-137922000D01*
X132080000Y-137922000D02*
X132080000Y-109982000D01*
X149860000Y-81026000D02*
X132080000Y-81026000D01*
X149860000Y-108966000D02*
X132080000Y-108966000D01*
X149860000Y-81026000D02*
X149860000Y-108966000D01*
X132080000Y-108966000D02*
X132080000Y-81026000D01*
X156892667Y-72929501D02*
X156892667Y-73643787D01*
X156845047Y-73786644D01*
X156749809Y-73881882D01*
X156606952Y-73929501D01*
X156511714Y-73929501D01*
X157892667Y-73929501D02*
X157321238Y-73929501D01*
X157606952Y-73929501D02*
X157606952Y-72929501D01*
X157511714Y-73072358D01*
X157416476Y-73167596D01*
X157321238Y-73215215D01*
X129142381Y-79573333D02*
X129856667Y-79573333D01*
X129999524Y-79620953D01*
X130094762Y-79716191D01*
X130142381Y-79859048D01*
X130142381Y-79954286D01*
X130142381Y-79097143D02*
X129142381Y-79097143D01*
X129142381Y-78716190D01*
X129190000Y-78620952D01*
X129237619Y-78573333D01*
X129332857Y-78525714D01*
X129475714Y-78525714D01*
X129570952Y-78573333D01*
X129618571Y-78620952D01*
X129666190Y-78716190D01*
X129666190Y-79097143D01*
X130142381Y-77573333D02*
X130142381Y-78144762D01*
X130142381Y-77859048D02*
X129142381Y-77859048D01*
X129285238Y-77954286D01*
X129380476Y-78049524D01*
X129428095Y-78144762D01*
X156718095Y-83422381D02*
X156718095Y-84231905D01*
X156765714Y-84327143D01*
X156813333Y-84374762D01*
X156908571Y-84422381D01*
X157099048Y-84422381D01*
X157194286Y-84374762D01*
X157241905Y-84327143D01*
X157289524Y-84231905D01*
X157289524Y-83422381D01*
X158194286Y-83755714D02*
X158194286Y-84422381D01*
X157956190Y-83374762D02*
X157718095Y-84089048D01*
X158337143Y-84089048D01*
X127612381Y-95761905D02*
X128421905Y-95761905D01*
X128517143Y-95714286D01*
X128564762Y-95666667D01*
X128612381Y-95571429D01*
X128612381Y-95380952D01*
X128564762Y-95285714D01*
X128517143Y-95238095D01*
X128421905Y-95190476D01*
X127612381Y-95190476D01*
X128612381Y-94190476D02*
X128612381Y-94761905D01*
X128612381Y-94476191D02*
X127612381Y-94476191D01*
X127755238Y-94571429D01*
X127850476Y-94666667D01*
X127898095Y-94761905D01*
X140208095Y-139914381D02*
X140208095Y-140723905D01*
X140255714Y-140819143D01*
X140303333Y-140866762D01*
X140398571Y-140914381D01*
X140589048Y-140914381D01*
X140684286Y-140866762D01*
X140731905Y-140819143D01*
X140779524Y-140723905D01*
X140779524Y-139914381D01*
X141160476Y-139914381D02*
X141779524Y-139914381D01*
X141446190Y-140295333D01*
X141589048Y-140295333D01*
X141684286Y-140342952D01*
X141731905Y-140390571D01*
X141779524Y-140485810D01*
X141779524Y-140723905D01*
X141731905Y-140819143D01*
X141684286Y-140866762D01*
X141589048Y-140914381D01*
X141303333Y-140914381D01*
X141208095Y-140866762D01*
X141160476Y-140819143D01*
X136612381Y-135929619D02*
X136612381Y-135739142D01*
X136660000Y-135643904D01*
X136755238Y-135548666D01*
X136945714Y-135501047D01*
X137279048Y-135501047D01*
X137469524Y-135548666D01*
X137564762Y-135643904D01*
X137612381Y-135739142D01*
X137612381Y-135929619D01*
X137564762Y-136024857D01*
X137469524Y-136120095D01*
X137279048Y-136167714D01*
X136945714Y-136167714D01*
X136755238Y-136120095D01*
X136660000Y-136024857D01*
X136612381Y-135929619D01*
X137088571Y-135072476D02*
X137088571Y-134739142D01*
X137612381Y-134596285D02*
X137612381Y-135072476D01*
X136612381Y-135072476D01*
X136612381Y-134596285D01*
X144280000Y-136143904D02*
X144232381Y-136239142D01*
X144232381Y-136381999D01*
X144280000Y-136524857D01*
X144375238Y-136620095D01*
X144470476Y-136667714D01*
X144660952Y-136715333D01*
X144803810Y-136715333D01*
X144994286Y-136667714D01*
X145089524Y-136620095D01*
X145184762Y-136524857D01*
X145232381Y-136381999D01*
X145232381Y-136286761D01*
X145184762Y-136143904D01*
X145137143Y-136096285D01*
X144803810Y-136096285D01*
X144803810Y-136286761D01*
X145232381Y-135667714D02*
X144232381Y-135667714D01*
X145232381Y-135096285D01*
X144232381Y-135096285D01*
X145232381Y-134620095D02*
X144232381Y-134620095D01*
X144232381Y-134382000D01*
X144280000Y-134239142D01*
X144375238Y-134143904D01*
X144470476Y-134096285D01*
X144660952Y-134048666D01*
X144803810Y-134048666D01*
X144994286Y-134096285D01*
X145089524Y-134143904D01*
X145184762Y-134239142D01*
X145232381Y-134382000D01*
X145232381Y-134620095D01*
X144232381Y-113355333D02*
X145232381Y-113022000D01*
X144232381Y-112688666D01*
X144708571Y-112021999D02*
X144756190Y-111879142D01*
X144803810Y-111831523D01*
X144899048Y-111783904D01*
X145041905Y-111783904D01*
X145137143Y-111831523D01*
X145184762Y-111879142D01*
X145232381Y-111974380D01*
X145232381Y-112355333D01*
X144232381Y-112355333D01*
X144232381Y-112021999D01*
X144280000Y-111926761D01*
X144327619Y-111879142D01*
X144422857Y-111831523D01*
X144518095Y-111831523D01*
X144613333Y-111879142D01*
X144660952Y-111926761D01*
X144708571Y-112021999D01*
X144708571Y-112355333D01*
X136612381Y-113283905D02*
X137612381Y-112950572D01*
X136612381Y-112617238D01*
X137326667Y-112331524D02*
X137326667Y-111855333D01*
X137612381Y-112426762D02*
X136612381Y-112093429D01*
X137612381Y-111760095D01*
X140208095Y-110958381D02*
X140208095Y-111767905D01*
X140255714Y-111863143D01*
X140303333Y-111910762D01*
X140398571Y-111958381D01*
X140589048Y-111958381D01*
X140684286Y-111910762D01*
X140731905Y-111863143D01*
X140779524Y-111767905D01*
X140779524Y-110958381D01*
X141208095Y-111053619D02*
X141255714Y-111006000D01*
X141350952Y-110958381D01*
X141589048Y-110958381D01*
X141684286Y-111006000D01*
X141731905Y-111053619D01*
X141779524Y-111148857D01*
X141779524Y-111244095D01*
X141731905Y-111386952D01*
X141160476Y-111958381D01*
X141779524Y-111958381D01*
X136612381Y-106973619D02*
X136612381Y-106783142D01*
X136660000Y-106687904D01*
X136755238Y-106592666D01*
X136945714Y-106545047D01*
X137279048Y-106545047D01*
X137469524Y-106592666D01*
X137564762Y-106687904D01*
X137612381Y-106783142D01*
X137612381Y-106973619D01*
X137564762Y-107068857D01*
X137469524Y-107164095D01*
X137279048Y-107211714D01*
X136945714Y-107211714D01*
X136755238Y-107164095D01*
X136660000Y-107068857D01*
X136612381Y-106973619D01*
X137088571Y-106116476D02*
X137088571Y-105783142D01*
X137612381Y-105640285D02*
X137612381Y-106116476D01*
X136612381Y-106116476D01*
X136612381Y-105640285D01*
X144280000Y-107187904D02*
X144232381Y-107283142D01*
X144232381Y-107425999D01*
X144280000Y-107568857D01*
X144375238Y-107664095D01*
X144470476Y-107711714D01*
X144660952Y-107759333D01*
X144803810Y-107759333D01*
X144994286Y-107711714D01*
X145089524Y-107664095D01*
X145184762Y-107568857D01*
X145232381Y-107425999D01*
X145232381Y-107330761D01*
X145184762Y-107187904D01*
X145137143Y-107140285D01*
X144803810Y-107140285D01*
X144803810Y-107330761D01*
X145232381Y-106711714D02*
X144232381Y-106711714D01*
X145232381Y-106140285D01*
X144232381Y-106140285D01*
X145232381Y-105664095D02*
X144232381Y-105664095D01*
X144232381Y-105426000D01*
X144280000Y-105283142D01*
X144375238Y-105187904D01*
X144470476Y-105140285D01*
X144660952Y-105092666D01*
X144803810Y-105092666D01*
X144994286Y-105140285D01*
X145089524Y-105187904D01*
X145184762Y-105283142D01*
X145232381Y-105426000D01*
X145232381Y-105664095D01*
X144232381Y-84399333D02*
X145232381Y-84066000D01*
X144232381Y-83732666D01*
X144708571Y-83065999D02*
X144756190Y-82923142D01*
X144803810Y-82875523D01*
X144899048Y-82827904D01*
X145041905Y-82827904D01*
X145137143Y-82875523D01*
X145184762Y-82923142D01*
X145232381Y-83018380D01*
X145232381Y-83399333D01*
X144232381Y-83399333D01*
X144232381Y-83065999D01*
X144280000Y-82970761D01*
X144327619Y-82923142D01*
X144422857Y-82875523D01*
X144518095Y-82875523D01*
X144613333Y-82923142D01*
X144660952Y-82970761D01*
X144708571Y-83065999D01*
X144708571Y-83399333D01*
X136612381Y-84327905D02*
X137612381Y-83994572D01*
X136612381Y-83661238D01*
X137326667Y-83375524D02*
X137326667Y-82899333D01*
X137612381Y-83470762D02*
X136612381Y-83137429D01*
X137612381Y-82804095D01*
M02*
