G04 #@! TF.FileFunction,Copper,L1,Top,Signal*
%FSLAX46Y46*%
G04 Gerber Fmt 4.6, Leading zero omitted, Abs format (unit mm)*
G04 Created by KiCad (PCBNEW 4.0.5) date Friday, 02 June 2017 'AMt' 04:11:03*
%MOMM*%
%LPD*%
G01*
G04 APERTURE LIST*
%ADD10C,0.100000*%
%ADD11R,1.700000X1.700000*%
%ADD12O,1.700000X1.700000*%
%ADD13C,1.600000*%
%ADD14R,1.600000X1.600000*%
%ADD15R,3.500000X3.500000*%
%ADD16C,2.400000*%
%ADD17R,2.400000X2.400000*%
%ADD18C,2.000000*%
%ADD19C,0.250000*%
%ADD20C,0.254000*%
G04 APERTURE END LIST*
D10*
D11*
X132080000Y-78740000D03*
D12*
X134620000Y-78740000D03*
D11*
X160528000Y-109474000D03*
D12*
X163068000Y-109474000D03*
X160528000Y-112014000D03*
X163068000Y-112014000D03*
X160528000Y-114554000D03*
X163068000Y-114554000D03*
X160528000Y-117094000D03*
X163068000Y-117094000D03*
X160528000Y-119634000D03*
X163068000Y-119634000D03*
X160528000Y-122174000D03*
X163068000Y-122174000D03*
X160528000Y-124714000D03*
X163068000Y-124714000D03*
X160528000Y-127254000D03*
X163068000Y-127254000D03*
D13*
X118000000Y-111510000D03*
X120540000Y-111510000D03*
X123080000Y-111510000D03*
X125620000Y-111510000D03*
X115460000Y-111510000D03*
X112920000Y-111510000D03*
X110380000Y-111510000D03*
X125620000Y-108970000D03*
X125620000Y-106430000D03*
X125620000Y-103890000D03*
X125620000Y-101350000D03*
X125620000Y-98810000D03*
X125620000Y-96270000D03*
X125620000Y-93730000D03*
X125620000Y-91190000D03*
X125620000Y-88650000D03*
X125620000Y-86110000D03*
X125620000Y-83570000D03*
X125620000Y-81030000D03*
X125620000Y-78490000D03*
X123080000Y-81030000D03*
X123080000Y-86110000D03*
X123080000Y-88650000D03*
X123080000Y-91190000D03*
X110380000Y-108970000D03*
X110380000Y-106430000D03*
X110380000Y-103890000D03*
X110380000Y-101350000D03*
X110380000Y-98810000D03*
X110380000Y-96270000D03*
X110380000Y-93730000D03*
X110380000Y-91190000D03*
X110380000Y-88650000D03*
X110380000Y-86110000D03*
X110380000Y-83570000D03*
X110380000Y-81030000D03*
D14*
X110380000Y-78490000D03*
D13*
X118000000Y-93730000D03*
X118000000Y-96270000D03*
X118000000Y-98810000D03*
X118000000Y-101350000D03*
X118000000Y-103890000D03*
X118000000Y-106430000D03*
X118000000Y-108970000D03*
X120540000Y-108970000D03*
X120540000Y-106430000D03*
X120540000Y-103890000D03*
X120540000Y-101350000D03*
X120540000Y-98810000D03*
X120540000Y-96270000D03*
X120540000Y-93730000D03*
X147320000Y-112522000D03*
X147320000Y-115062000D03*
X147320000Y-117602000D03*
X147320000Y-120142000D03*
X147320000Y-122682000D03*
X147320000Y-125222000D03*
X147320000Y-127762000D03*
X147320000Y-130302000D03*
X147320000Y-132842000D03*
X147320000Y-135382000D03*
X134620000Y-112522000D03*
X134620000Y-115062000D03*
X134620000Y-117602000D03*
X134620000Y-120142000D03*
X134620000Y-122682000D03*
X134620000Y-125222000D03*
X134620000Y-127762000D03*
X134620000Y-130302000D03*
X134620000Y-132842000D03*
X134620000Y-135382000D03*
X147320000Y-83566000D03*
X147320000Y-86106000D03*
X147320000Y-88646000D03*
X147320000Y-91186000D03*
X147320000Y-93726000D03*
X147320000Y-96266000D03*
X147320000Y-98806000D03*
X147320000Y-101346000D03*
X147320000Y-103886000D03*
X147320000Y-106426000D03*
X134620000Y-83566000D03*
X134620000Y-86106000D03*
X134620000Y-88646000D03*
X134620000Y-91186000D03*
X134620000Y-93726000D03*
X134620000Y-96266000D03*
X134620000Y-98806000D03*
X134620000Y-101346000D03*
X134620000Y-103886000D03*
X134620000Y-106426000D03*
D15*
X161798000Y-88900000D03*
X161798000Y-82900000D03*
X157098000Y-85900000D03*
D16*
X164592000Y-95560000D03*
D17*
X164592000Y-99060000D03*
D18*
X164592000Y-99060000D02*
X157988000Y-99060000D01*
X157098000Y-98170000D02*
X157098000Y-85900000D01*
X157988000Y-99060000D02*
X157098000Y-98170000D01*
X157098000Y-85900000D02*
X157098000Y-83440000D01*
X157638000Y-82900000D02*
X161798000Y-82900000D01*
X157098000Y-83440000D02*
X157638000Y-82900000D01*
D19*
X134620000Y-103886000D02*
X131318000Y-103886000D01*
X131318000Y-103886000D02*
X130048000Y-105156000D01*
X130048000Y-105156000D02*
X111646000Y-105156000D01*
X111646000Y-105156000D02*
X110380000Y-103890000D01*
X134620000Y-101346000D02*
X132080000Y-101346000D01*
X130810000Y-102616000D02*
X132080000Y-101346000D01*
X111760000Y-102616000D02*
X130810000Y-102616000D01*
X111760000Y-102616000D02*
X110494000Y-101350000D01*
X110380000Y-101350000D02*
X110494000Y-101350000D01*
X134620000Y-98806000D02*
X131572000Y-98806000D01*
X111646000Y-100076000D02*
X110380000Y-98810000D01*
X130302000Y-100076000D02*
X111646000Y-100076000D01*
X131572000Y-98806000D02*
X130302000Y-100076000D01*
D20*
G36*
X168021000Y-143129000D02*
X128397000Y-143129000D01*
X128397000Y-125730000D01*
X128386994Y-125680590D01*
X128362651Y-125643139D01*
X124587000Y-121615778D01*
X124587000Y-115570000D01*
X124576994Y-115520590D01*
X124548553Y-115478965D01*
X124506159Y-115451685D01*
X124461789Y-115443013D01*
X106553000Y-115190777D01*
X106553000Y-81314187D01*
X108944752Y-81314187D01*
X109162757Y-81841800D01*
X109566077Y-82245824D01*
X109696215Y-82299862D01*
X109568200Y-82352757D01*
X109164176Y-82756077D01*
X108945250Y-83283309D01*
X108944752Y-83854187D01*
X109162757Y-84381800D01*
X109566077Y-84785824D01*
X109696215Y-84839862D01*
X109568200Y-84892757D01*
X109164176Y-85296077D01*
X108945250Y-85823309D01*
X108944752Y-86394187D01*
X109162757Y-86921800D01*
X109566077Y-87325824D01*
X109696215Y-87379862D01*
X109568200Y-87432757D01*
X109164176Y-87836077D01*
X108945250Y-88363309D01*
X108944752Y-88934187D01*
X109162757Y-89461800D01*
X109566077Y-89865824D01*
X109696215Y-89919862D01*
X109568200Y-89972757D01*
X109164176Y-90376077D01*
X108945250Y-90903309D01*
X108944752Y-91474187D01*
X109162757Y-92001800D01*
X109566077Y-92405824D01*
X109696215Y-92459862D01*
X109568200Y-92512757D01*
X109164176Y-92916077D01*
X108945250Y-93443309D01*
X108944752Y-94014187D01*
X109162757Y-94541800D01*
X109566077Y-94945824D01*
X109696215Y-94999862D01*
X109568200Y-95052757D01*
X109164176Y-95456077D01*
X108945250Y-95983309D01*
X108944752Y-96554187D01*
X109162757Y-97081800D01*
X109566077Y-97485824D01*
X109696215Y-97539862D01*
X109568200Y-97592757D01*
X109164176Y-97996077D01*
X108945250Y-98523309D01*
X108944752Y-99094187D01*
X109162757Y-99621800D01*
X109566077Y-100025824D01*
X109696215Y-100079862D01*
X109568200Y-100132757D01*
X109164176Y-100536077D01*
X108945250Y-101063309D01*
X108944752Y-101634187D01*
X109162757Y-102161800D01*
X109566077Y-102565824D01*
X109696215Y-102619862D01*
X109568200Y-102672757D01*
X109164176Y-103076077D01*
X108945250Y-103603309D01*
X108944752Y-104174187D01*
X109162757Y-104701800D01*
X109566077Y-105105824D01*
X109696215Y-105159862D01*
X109568200Y-105212757D01*
X109164176Y-105616077D01*
X108945250Y-106143309D01*
X108944752Y-106714187D01*
X109162757Y-107241800D01*
X109566077Y-107645824D01*
X109696215Y-107699862D01*
X109568200Y-107752757D01*
X109164176Y-108156077D01*
X108945250Y-108683309D01*
X108944752Y-109254187D01*
X109162757Y-109781800D01*
X109566077Y-110185824D01*
X109696215Y-110239862D01*
X109568200Y-110292757D01*
X109164176Y-110696077D01*
X108945250Y-111223309D01*
X108944752Y-111794187D01*
X109162757Y-112321800D01*
X109566077Y-112725824D01*
X110093309Y-112944750D01*
X110664187Y-112945248D01*
X111191800Y-112727243D01*
X111595824Y-112323923D01*
X111649862Y-112193785D01*
X111702757Y-112321800D01*
X112106077Y-112725824D01*
X112633309Y-112944750D01*
X113204187Y-112945248D01*
X113731800Y-112727243D01*
X114135824Y-112323923D01*
X114189862Y-112193785D01*
X114242757Y-112321800D01*
X114646077Y-112725824D01*
X115173309Y-112944750D01*
X115744187Y-112945248D01*
X116271800Y-112727243D01*
X116481663Y-112517745D01*
X117171861Y-112517745D01*
X117245995Y-112763864D01*
X117783223Y-112956965D01*
X118353454Y-112929778D01*
X118754005Y-112763864D01*
X118828139Y-112517745D01*
X118000000Y-111689605D01*
X117171861Y-112517745D01*
X116481663Y-112517745D01*
X116675824Y-112323923D01*
X116723448Y-112209232D01*
X116746136Y-112264005D01*
X116992255Y-112338139D01*
X117820395Y-111510000D01*
X116992255Y-110681861D01*
X116746136Y-110755995D01*
X116725195Y-110814254D01*
X116677243Y-110698200D01*
X116273923Y-110294176D01*
X115746691Y-110075250D01*
X115175813Y-110074752D01*
X114648200Y-110292757D01*
X114244176Y-110696077D01*
X114190138Y-110826215D01*
X114137243Y-110698200D01*
X113733923Y-110294176D01*
X113206691Y-110075250D01*
X112635813Y-110074752D01*
X112108200Y-110292757D01*
X111704176Y-110696077D01*
X111650138Y-110826215D01*
X111597243Y-110698200D01*
X111193923Y-110294176D01*
X111063785Y-110240138D01*
X111191800Y-110187243D01*
X111595824Y-109783923D01*
X111814750Y-109256691D01*
X111815248Y-108685813D01*
X111597243Y-108158200D01*
X111193923Y-107754176D01*
X111063785Y-107700138D01*
X111191800Y-107647243D01*
X111595824Y-107243923D01*
X111814750Y-106716691D01*
X111815248Y-106145813D01*
X111720291Y-105916000D01*
X116659637Y-105916000D01*
X116565250Y-106143309D01*
X116564752Y-106714187D01*
X116782757Y-107241800D01*
X117186077Y-107645824D01*
X117316215Y-107699862D01*
X117188200Y-107752757D01*
X116784176Y-108156077D01*
X116565250Y-108683309D01*
X116564752Y-109254187D01*
X116782757Y-109781800D01*
X117186077Y-110185824D01*
X117300768Y-110233448D01*
X117245995Y-110256136D01*
X117171861Y-110502255D01*
X118000000Y-111330395D01*
X118828139Y-110502255D01*
X118754005Y-110256136D01*
X118695746Y-110235195D01*
X118811800Y-110187243D01*
X119215824Y-109783923D01*
X119269862Y-109653785D01*
X119322757Y-109781800D01*
X119726077Y-110185824D01*
X119856215Y-110239862D01*
X119728200Y-110292757D01*
X119324176Y-110696077D01*
X119276552Y-110810768D01*
X119253864Y-110755995D01*
X119007745Y-110681861D01*
X118179605Y-111510000D01*
X119007745Y-112338139D01*
X119253864Y-112264005D01*
X119274805Y-112205746D01*
X119322757Y-112321800D01*
X119726077Y-112725824D01*
X120253309Y-112944750D01*
X120824187Y-112945248D01*
X121351800Y-112727243D01*
X121755824Y-112323923D01*
X121809862Y-112193785D01*
X121862757Y-112321800D01*
X122266077Y-112725824D01*
X122793309Y-112944750D01*
X123364187Y-112945248D01*
X123891800Y-112727243D01*
X124295824Y-112323923D01*
X124349862Y-112193785D01*
X124402757Y-112321800D01*
X124806077Y-112725824D01*
X125333309Y-112944750D01*
X125904187Y-112945248D01*
X126240740Y-112806187D01*
X133184752Y-112806187D01*
X133402757Y-113333800D01*
X133806077Y-113737824D01*
X133936215Y-113791862D01*
X133808200Y-113844757D01*
X133404176Y-114248077D01*
X133185250Y-114775309D01*
X133184752Y-115346187D01*
X133402757Y-115873800D01*
X133806077Y-116277824D01*
X133936215Y-116331862D01*
X133808200Y-116384757D01*
X133404176Y-116788077D01*
X133185250Y-117315309D01*
X133184752Y-117886187D01*
X133402757Y-118413800D01*
X133806077Y-118817824D01*
X133936215Y-118871862D01*
X133808200Y-118924757D01*
X133404176Y-119328077D01*
X133185250Y-119855309D01*
X133184752Y-120426187D01*
X133402757Y-120953800D01*
X133806077Y-121357824D01*
X133936215Y-121411862D01*
X133808200Y-121464757D01*
X133404176Y-121868077D01*
X133185250Y-122395309D01*
X133184752Y-122966187D01*
X133402757Y-123493800D01*
X133806077Y-123897824D01*
X133936215Y-123951862D01*
X133808200Y-124004757D01*
X133404176Y-124408077D01*
X133185250Y-124935309D01*
X133184752Y-125506187D01*
X133402757Y-126033800D01*
X133806077Y-126437824D01*
X133936215Y-126491862D01*
X133808200Y-126544757D01*
X133404176Y-126948077D01*
X133185250Y-127475309D01*
X133184752Y-128046187D01*
X133402757Y-128573800D01*
X133806077Y-128977824D01*
X133936215Y-129031862D01*
X133808200Y-129084757D01*
X133404176Y-129488077D01*
X133185250Y-130015309D01*
X133184752Y-130586187D01*
X133402757Y-131113800D01*
X133806077Y-131517824D01*
X133936215Y-131571862D01*
X133808200Y-131624757D01*
X133404176Y-132028077D01*
X133185250Y-132555309D01*
X133184752Y-133126187D01*
X133402757Y-133653800D01*
X133806077Y-134057824D01*
X133936215Y-134111862D01*
X133808200Y-134164757D01*
X133404176Y-134568077D01*
X133185250Y-135095309D01*
X133184752Y-135666187D01*
X133402757Y-136193800D01*
X133806077Y-136597824D01*
X134333309Y-136816750D01*
X134904187Y-136817248D01*
X135431800Y-136599243D01*
X135641663Y-136389745D01*
X146491861Y-136389745D01*
X146565995Y-136635864D01*
X147103223Y-136828965D01*
X147673454Y-136801778D01*
X148074005Y-136635864D01*
X148148139Y-136389745D01*
X147320000Y-135561605D01*
X146491861Y-136389745D01*
X135641663Y-136389745D01*
X135835824Y-136195923D01*
X136054750Y-135668691D01*
X136055189Y-135165223D01*
X145873035Y-135165223D01*
X145900222Y-135735454D01*
X146066136Y-136136005D01*
X146312255Y-136210139D01*
X147140395Y-135382000D01*
X147499605Y-135382000D01*
X148327745Y-136210139D01*
X148573864Y-136136005D01*
X148766965Y-135598777D01*
X148739778Y-135028546D01*
X148573864Y-134627995D01*
X148327745Y-134553861D01*
X147499605Y-135382000D01*
X147140395Y-135382000D01*
X146312255Y-134553861D01*
X146066136Y-134627995D01*
X145873035Y-135165223D01*
X136055189Y-135165223D01*
X136055248Y-135097813D01*
X135837243Y-134570200D01*
X135433923Y-134166176D01*
X135303785Y-134112138D01*
X135431800Y-134059243D01*
X135835824Y-133655923D01*
X136054750Y-133128691D01*
X136055248Y-132557813D01*
X135837243Y-132030200D01*
X135433923Y-131626176D01*
X135303785Y-131572138D01*
X135431800Y-131519243D01*
X135835824Y-131115923D01*
X136054750Y-130588691D01*
X136055248Y-130017813D01*
X135837243Y-129490200D01*
X135433923Y-129086176D01*
X135303785Y-129032138D01*
X135431800Y-128979243D01*
X135835824Y-128575923D01*
X136054750Y-128048691D01*
X136055248Y-127477813D01*
X135837243Y-126950200D01*
X135433923Y-126546176D01*
X135303785Y-126492138D01*
X135431800Y-126439243D01*
X135835824Y-126035923D01*
X136054750Y-125508691D01*
X136055248Y-124937813D01*
X135837243Y-124410200D01*
X135433923Y-124006176D01*
X135303785Y-123952138D01*
X135431800Y-123899243D01*
X135835824Y-123495923D01*
X136054750Y-122968691D01*
X136055248Y-122397813D01*
X135837243Y-121870200D01*
X135433923Y-121466176D01*
X135303785Y-121412138D01*
X135431800Y-121359243D01*
X135835824Y-120955923D01*
X136054750Y-120428691D01*
X136055248Y-119857813D01*
X135837243Y-119330200D01*
X135433923Y-118926176D01*
X135303785Y-118872138D01*
X135431800Y-118819243D01*
X135835824Y-118415923D01*
X136054750Y-117888691D01*
X136055248Y-117317813D01*
X135837243Y-116790200D01*
X135433923Y-116386176D01*
X135303785Y-116332138D01*
X135431800Y-116279243D01*
X135835824Y-115875923D01*
X136054750Y-115348691D01*
X136055248Y-114777813D01*
X135837243Y-114250200D01*
X135433923Y-113846176D01*
X135303785Y-113792138D01*
X135431800Y-113739243D01*
X135835824Y-113335923D01*
X136054750Y-112808691D01*
X136054752Y-112806187D01*
X145884752Y-112806187D01*
X146102757Y-113333800D01*
X146506077Y-113737824D01*
X146636215Y-113791862D01*
X146508200Y-113844757D01*
X146104176Y-114248077D01*
X145885250Y-114775309D01*
X145884752Y-115346187D01*
X146102757Y-115873800D01*
X146506077Y-116277824D01*
X146636215Y-116331862D01*
X146508200Y-116384757D01*
X146104176Y-116788077D01*
X145885250Y-117315309D01*
X145884752Y-117886187D01*
X146102757Y-118413800D01*
X146506077Y-118817824D01*
X146636215Y-118871862D01*
X146508200Y-118924757D01*
X146104176Y-119328077D01*
X145885250Y-119855309D01*
X145884752Y-120426187D01*
X146102757Y-120953800D01*
X146506077Y-121357824D01*
X146636215Y-121411862D01*
X146508200Y-121464757D01*
X146104176Y-121868077D01*
X145885250Y-122395309D01*
X145884752Y-122966187D01*
X146102757Y-123493800D01*
X146506077Y-123897824D01*
X146636215Y-123951862D01*
X146508200Y-124004757D01*
X146104176Y-124408077D01*
X145885250Y-124935309D01*
X145884752Y-125506187D01*
X146102757Y-126033800D01*
X146506077Y-126437824D01*
X146636215Y-126491862D01*
X146508200Y-126544757D01*
X146104176Y-126948077D01*
X145885250Y-127475309D01*
X145884752Y-128046187D01*
X146102757Y-128573800D01*
X146506077Y-128977824D01*
X146636215Y-129031862D01*
X146508200Y-129084757D01*
X146104176Y-129488077D01*
X145885250Y-130015309D01*
X145884752Y-130586187D01*
X146102757Y-131113800D01*
X146506077Y-131517824D01*
X146636215Y-131571862D01*
X146508200Y-131624757D01*
X146104176Y-132028077D01*
X145885250Y-132555309D01*
X145884752Y-133126187D01*
X146102757Y-133653800D01*
X146506077Y-134057824D01*
X146620768Y-134105448D01*
X146565995Y-134128136D01*
X146491861Y-134374255D01*
X147320000Y-135202395D01*
X148148139Y-134374255D01*
X148074005Y-134128136D01*
X148015746Y-134107195D01*
X148131800Y-134059243D01*
X148535824Y-133655923D01*
X148754750Y-133128691D01*
X148755248Y-132557813D01*
X148537243Y-132030200D01*
X148133923Y-131626176D01*
X148003785Y-131572138D01*
X148131800Y-131519243D01*
X148535824Y-131115923D01*
X148754750Y-130588691D01*
X148755248Y-130017813D01*
X148537243Y-129490200D01*
X148133923Y-129086176D01*
X148003785Y-129032138D01*
X148131800Y-128979243D01*
X148535824Y-128575923D01*
X148754750Y-128048691D01*
X148755248Y-127477813D01*
X148537243Y-126950200D01*
X148133923Y-126546176D01*
X148003785Y-126492138D01*
X148131800Y-126439243D01*
X148535824Y-126035923D01*
X148754750Y-125508691D01*
X148755248Y-124937813D01*
X148537243Y-124410200D01*
X148133923Y-124006176D01*
X148003785Y-123952138D01*
X148131800Y-123899243D01*
X148535824Y-123495923D01*
X148754750Y-122968691D01*
X148755248Y-122397813D01*
X148537243Y-121870200D01*
X148133923Y-121466176D01*
X148003785Y-121412138D01*
X148131800Y-121359243D01*
X148535824Y-120955923D01*
X148754750Y-120428691D01*
X148755248Y-119857813D01*
X148537243Y-119330200D01*
X148133923Y-118926176D01*
X148003785Y-118872138D01*
X148131800Y-118819243D01*
X148535824Y-118415923D01*
X148754750Y-117888691D01*
X148755248Y-117317813D01*
X148537243Y-116790200D01*
X148133923Y-116386176D01*
X148003785Y-116332138D01*
X148131800Y-116279243D01*
X148535824Y-115875923D01*
X148754750Y-115348691D01*
X148755248Y-114777813D01*
X148537243Y-114250200D01*
X148133923Y-113846176D01*
X148003785Y-113792138D01*
X148131800Y-113739243D01*
X148535824Y-113335923D01*
X148754750Y-112808691D01*
X148755248Y-112237813D01*
X148662771Y-112014000D01*
X159013907Y-112014000D01*
X159126946Y-112582285D01*
X159448853Y-113064054D01*
X159778026Y-113284000D01*
X159448853Y-113503946D01*
X159126946Y-113985715D01*
X159013907Y-114554000D01*
X159126946Y-115122285D01*
X159448853Y-115604054D01*
X159778026Y-115824000D01*
X159448853Y-116043946D01*
X159126946Y-116525715D01*
X159013907Y-117094000D01*
X159126946Y-117662285D01*
X159448853Y-118144054D01*
X159778026Y-118364000D01*
X159448853Y-118583946D01*
X159126946Y-119065715D01*
X159013907Y-119634000D01*
X159126946Y-120202285D01*
X159448853Y-120684054D01*
X159778026Y-120904000D01*
X159448853Y-121123946D01*
X159126946Y-121605715D01*
X159013907Y-122174000D01*
X159126946Y-122742285D01*
X159448853Y-123224054D01*
X159778026Y-123444000D01*
X159448853Y-123663946D01*
X159126946Y-124145715D01*
X159013907Y-124714000D01*
X159126946Y-125282285D01*
X159448853Y-125764054D01*
X159778026Y-125984000D01*
X159448853Y-126203946D01*
X159126946Y-126685715D01*
X159013907Y-127254000D01*
X159126946Y-127822285D01*
X159448853Y-128304054D01*
X159930622Y-128625961D01*
X160498907Y-128739000D01*
X160557093Y-128739000D01*
X161125378Y-128625961D01*
X161607147Y-128304054D01*
X161796345Y-128020899D01*
X161796355Y-128020924D01*
X162186642Y-128449183D01*
X162711108Y-128695486D01*
X162941000Y-128574819D01*
X162941000Y-127381000D01*
X163195000Y-127381000D01*
X163195000Y-128574819D01*
X163424892Y-128695486D01*
X163949358Y-128449183D01*
X164339645Y-128020924D01*
X164509476Y-127610890D01*
X164388155Y-127381000D01*
X163195000Y-127381000D01*
X162941000Y-127381000D01*
X162921000Y-127381000D01*
X162921000Y-127127000D01*
X162941000Y-127127000D01*
X162941000Y-127107000D01*
X163195000Y-127107000D01*
X163195000Y-127127000D01*
X164388155Y-127127000D01*
X164509476Y-126897110D01*
X164339645Y-126487076D01*
X163949358Y-126058817D01*
X163806447Y-125991702D01*
X164147147Y-125764054D01*
X164469054Y-125282285D01*
X164582093Y-124714000D01*
X164469054Y-124145715D01*
X164147147Y-123663946D01*
X163817974Y-123444000D01*
X164147147Y-123224054D01*
X164469054Y-122742285D01*
X164582093Y-122174000D01*
X164469054Y-121605715D01*
X164147147Y-121123946D01*
X163817974Y-120904000D01*
X164147147Y-120684054D01*
X164469054Y-120202285D01*
X164582093Y-119634000D01*
X164469054Y-119065715D01*
X164147147Y-118583946D01*
X163806447Y-118356298D01*
X163949358Y-118289183D01*
X164339645Y-117860924D01*
X164509476Y-117450890D01*
X164388155Y-117221000D01*
X163195000Y-117221000D01*
X163195000Y-117241000D01*
X162941000Y-117241000D01*
X162941000Y-117221000D01*
X162921000Y-117221000D01*
X162921000Y-116967000D01*
X162941000Y-116967000D01*
X162941000Y-116947000D01*
X163195000Y-116947000D01*
X163195000Y-116967000D01*
X164388155Y-116967000D01*
X164509476Y-116737110D01*
X164339645Y-116327076D01*
X163949358Y-115898817D01*
X163806447Y-115831702D01*
X164147147Y-115604054D01*
X164469054Y-115122285D01*
X164582093Y-114554000D01*
X164469054Y-113985715D01*
X164147147Y-113503946D01*
X163806447Y-113276298D01*
X163949358Y-113209183D01*
X164339645Y-112780924D01*
X164509476Y-112370890D01*
X164388155Y-112141000D01*
X163195000Y-112141000D01*
X163195000Y-112161000D01*
X162941000Y-112161000D01*
X162941000Y-112141000D01*
X162921000Y-112141000D01*
X162921000Y-111887000D01*
X162941000Y-111887000D01*
X162941000Y-111867000D01*
X163195000Y-111867000D01*
X163195000Y-111887000D01*
X164388155Y-111887000D01*
X164509476Y-111657110D01*
X164339645Y-111247076D01*
X163949358Y-110818817D01*
X163806447Y-110751702D01*
X164147147Y-110524054D01*
X164469054Y-110042285D01*
X164582093Y-109474000D01*
X164469054Y-108905715D01*
X164147147Y-108423946D01*
X163665378Y-108102039D01*
X163097093Y-107989000D01*
X163038907Y-107989000D01*
X162470622Y-108102039D01*
X161988853Y-108423946D01*
X161988029Y-108425179D01*
X161981162Y-108388683D01*
X161842090Y-108172559D01*
X161629890Y-108027569D01*
X161378000Y-107976560D01*
X159678000Y-107976560D01*
X159442683Y-108020838D01*
X159226559Y-108159910D01*
X159081569Y-108372110D01*
X159030560Y-108624000D01*
X159030560Y-110324000D01*
X159074838Y-110559317D01*
X159213910Y-110775441D01*
X159426110Y-110920431D01*
X159493541Y-110934086D01*
X159448853Y-110963946D01*
X159126946Y-111445715D01*
X159013907Y-112014000D01*
X148662771Y-112014000D01*
X148537243Y-111710200D01*
X148133923Y-111306176D01*
X147606691Y-111087250D01*
X147035813Y-111086752D01*
X146508200Y-111304757D01*
X146104176Y-111708077D01*
X145885250Y-112235309D01*
X145884752Y-112806187D01*
X136054752Y-112806187D01*
X136055248Y-112237813D01*
X135837243Y-111710200D01*
X135433923Y-111306176D01*
X134906691Y-111087250D01*
X134335813Y-111086752D01*
X133808200Y-111304757D01*
X133404176Y-111708077D01*
X133185250Y-112235309D01*
X133184752Y-112806187D01*
X126240740Y-112806187D01*
X126431800Y-112727243D01*
X126835824Y-112323923D01*
X127054750Y-111796691D01*
X127055248Y-111225813D01*
X126837243Y-110698200D01*
X126433923Y-110294176D01*
X126303785Y-110240138D01*
X126431800Y-110187243D01*
X126835824Y-109783923D01*
X127054750Y-109256691D01*
X127055248Y-108685813D01*
X126837243Y-108158200D01*
X126433923Y-107754176D01*
X126303785Y-107700138D01*
X126431800Y-107647243D01*
X126835824Y-107243923D01*
X127054750Y-106716691D01*
X127055248Y-106145813D01*
X126960291Y-105916000D01*
X130048000Y-105916000D01*
X130338839Y-105858148D01*
X130585401Y-105693401D01*
X131632802Y-104646000D01*
X133381354Y-104646000D01*
X133402757Y-104697800D01*
X133806077Y-105101824D01*
X133936215Y-105155862D01*
X133808200Y-105208757D01*
X133404176Y-105612077D01*
X133185250Y-106139309D01*
X133184752Y-106710187D01*
X133402757Y-107237800D01*
X133806077Y-107641824D01*
X134333309Y-107860750D01*
X134904187Y-107861248D01*
X135431800Y-107643243D01*
X135641663Y-107433745D01*
X146491861Y-107433745D01*
X146565995Y-107679864D01*
X147103223Y-107872965D01*
X147673454Y-107845778D01*
X148074005Y-107679864D01*
X148148139Y-107433745D01*
X147320000Y-106605605D01*
X146491861Y-107433745D01*
X135641663Y-107433745D01*
X135835824Y-107239923D01*
X136054750Y-106712691D01*
X136055189Y-106209223D01*
X145873035Y-106209223D01*
X145900222Y-106779454D01*
X146066136Y-107180005D01*
X146312255Y-107254139D01*
X147140395Y-106426000D01*
X147499605Y-106426000D01*
X148327745Y-107254139D01*
X148573864Y-107180005D01*
X148766965Y-106642777D01*
X148739778Y-106072546D01*
X148573864Y-105671995D01*
X148327745Y-105597861D01*
X147499605Y-106426000D01*
X147140395Y-106426000D01*
X146312255Y-105597861D01*
X146066136Y-105671995D01*
X145873035Y-106209223D01*
X136055189Y-106209223D01*
X136055248Y-106141813D01*
X135837243Y-105614200D01*
X135433923Y-105210176D01*
X135303785Y-105156138D01*
X135431800Y-105103243D01*
X135835824Y-104699923D01*
X136054750Y-104172691D01*
X136055248Y-103601813D01*
X135837243Y-103074200D01*
X135433923Y-102670176D01*
X135303785Y-102616138D01*
X135431800Y-102563243D01*
X135835824Y-102159923D01*
X136054750Y-101632691D01*
X136055248Y-101061813D01*
X135837243Y-100534200D01*
X135433923Y-100130176D01*
X135303785Y-100076138D01*
X135431800Y-100023243D01*
X135835824Y-99619923D01*
X136054750Y-99092691D01*
X136055248Y-98521813D01*
X135837243Y-97994200D01*
X135433923Y-97590176D01*
X135303785Y-97536138D01*
X135431800Y-97483243D01*
X135835824Y-97079923D01*
X136054750Y-96552691D01*
X136055248Y-95981813D01*
X135837243Y-95454200D01*
X135433923Y-95050176D01*
X135303785Y-94996138D01*
X135431800Y-94943243D01*
X135835824Y-94539923D01*
X136054750Y-94012691D01*
X136055248Y-93441813D01*
X135837243Y-92914200D01*
X135433923Y-92510176D01*
X135303785Y-92456138D01*
X135431800Y-92403243D01*
X135835824Y-91999923D01*
X136054750Y-91472691D01*
X136055248Y-90901813D01*
X135837243Y-90374200D01*
X135433923Y-89970176D01*
X135303785Y-89916138D01*
X135431800Y-89863243D01*
X135835824Y-89459923D01*
X136054750Y-88932691D01*
X136055248Y-88361813D01*
X135837243Y-87834200D01*
X135433923Y-87430176D01*
X135303785Y-87376138D01*
X135431800Y-87323243D01*
X135835824Y-86919923D01*
X136054750Y-86392691D01*
X136055248Y-85821813D01*
X135837243Y-85294200D01*
X135433923Y-84890176D01*
X135303785Y-84836138D01*
X135431800Y-84783243D01*
X135835824Y-84379923D01*
X136054750Y-83852691D01*
X136054752Y-83850187D01*
X145884752Y-83850187D01*
X146102757Y-84377800D01*
X146506077Y-84781824D01*
X146636215Y-84835862D01*
X146508200Y-84888757D01*
X146104176Y-85292077D01*
X145885250Y-85819309D01*
X145884752Y-86390187D01*
X146102757Y-86917800D01*
X146506077Y-87321824D01*
X146636215Y-87375862D01*
X146508200Y-87428757D01*
X146104176Y-87832077D01*
X145885250Y-88359309D01*
X145884752Y-88930187D01*
X146102757Y-89457800D01*
X146506077Y-89861824D01*
X146636215Y-89915862D01*
X146508200Y-89968757D01*
X146104176Y-90372077D01*
X145885250Y-90899309D01*
X145884752Y-91470187D01*
X146102757Y-91997800D01*
X146506077Y-92401824D01*
X146636215Y-92455862D01*
X146508200Y-92508757D01*
X146104176Y-92912077D01*
X145885250Y-93439309D01*
X145884752Y-94010187D01*
X146102757Y-94537800D01*
X146506077Y-94941824D01*
X146636215Y-94995862D01*
X146508200Y-95048757D01*
X146104176Y-95452077D01*
X145885250Y-95979309D01*
X145884752Y-96550187D01*
X146102757Y-97077800D01*
X146506077Y-97481824D01*
X146636215Y-97535862D01*
X146508200Y-97588757D01*
X146104176Y-97992077D01*
X145885250Y-98519309D01*
X145884752Y-99090187D01*
X146102757Y-99617800D01*
X146506077Y-100021824D01*
X146636215Y-100075862D01*
X146508200Y-100128757D01*
X146104176Y-100532077D01*
X145885250Y-101059309D01*
X145884752Y-101630187D01*
X146102757Y-102157800D01*
X146506077Y-102561824D01*
X146636215Y-102615862D01*
X146508200Y-102668757D01*
X146104176Y-103072077D01*
X145885250Y-103599309D01*
X145884752Y-104170187D01*
X146102757Y-104697800D01*
X146506077Y-105101824D01*
X146620768Y-105149448D01*
X146565995Y-105172136D01*
X146491861Y-105418255D01*
X147320000Y-106246395D01*
X148148139Y-105418255D01*
X148074005Y-105172136D01*
X148015746Y-105151195D01*
X148131800Y-105103243D01*
X148535824Y-104699923D01*
X148754750Y-104172691D01*
X148755248Y-103601813D01*
X148537243Y-103074200D01*
X148133923Y-102670176D01*
X148003785Y-102616138D01*
X148131800Y-102563243D01*
X148535824Y-102159923D01*
X148754750Y-101632691D01*
X148755248Y-101061813D01*
X148537243Y-100534200D01*
X148133923Y-100130176D01*
X148003785Y-100076138D01*
X148131800Y-100023243D01*
X148535824Y-99619923D01*
X148649670Y-99345750D01*
X162757000Y-99345750D01*
X162757000Y-100386309D01*
X162853673Y-100619698D01*
X163032301Y-100798327D01*
X163265690Y-100895000D01*
X164306250Y-100895000D01*
X164465000Y-100736250D01*
X164465000Y-99187000D01*
X164719000Y-99187000D01*
X164719000Y-100736250D01*
X164877750Y-100895000D01*
X165918310Y-100895000D01*
X166151699Y-100798327D01*
X166330327Y-100619698D01*
X166427000Y-100386309D01*
X166427000Y-99345750D01*
X166268250Y-99187000D01*
X164719000Y-99187000D01*
X164465000Y-99187000D01*
X162915750Y-99187000D01*
X162757000Y-99345750D01*
X148649670Y-99345750D01*
X148754750Y-99092691D01*
X148755248Y-98521813D01*
X148537243Y-97994200D01*
X148133923Y-97590176D01*
X148003785Y-97536138D01*
X148131800Y-97483243D01*
X148535824Y-97079923D01*
X148754750Y-96552691D01*
X148755248Y-95981813D01*
X148731114Y-95923403D01*
X162756682Y-95923403D01*
X163035455Y-96598086D01*
X163551199Y-97114730D01*
X163816758Y-97225000D01*
X163265690Y-97225000D01*
X163032301Y-97321673D01*
X162853673Y-97500302D01*
X162757000Y-97733691D01*
X162757000Y-98774250D01*
X162915750Y-98933000D01*
X164465000Y-98933000D01*
X164465000Y-98913000D01*
X164719000Y-98913000D01*
X164719000Y-98933000D01*
X166268250Y-98933000D01*
X166427000Y-98774250D01*
X166427000Y-97733691D01*
X166330327Y-97500302D01*
X166151699Y-97321673D01*
X165918310Y-97225000D01*
X165367605Y-97225000D01*
X165630086Y-97116545D01*
X166146730Y-96600801D01*
X166426681Y-95926605D01*
X166427318Y-95196597D01*
X166148545Y-94521914D01*
X165632801Y-94005270D01*
X164958605Y-93725319D01*
X164228597Y-93724682D01*
X163553914Y-94003455D01*
X163037270Y-94519199D01*
X162757319Y-95193395D01*
X162756682Y-95923403D01*
X148731114Y-95923403D01*
X148537243Y-95454200D01*
X148133923Y-95050176D01*
X148003785Y-94996138D01*
X148131800Y-94943243D01*
X148535824Y-94539923D01*
X148754750Y-94012691D01*
X148755248Y-93441813D01*
X148537243Y-92914200D01*
X148133923Y-92510176D01*
X148003785Y-92456138D01*
X148131800Y-92403243D01*
X148535824Y-91999923D01*
X148754750Y-91472691D01*
X148755248Y-90901813D01*
X148537243Y-90374200D01*
X148133923Y-89970176D01*
X148003785Y-89916138D01*
X148131800Y-89863243D01*
X148535824Y-89459923D01*
X148754750Y-88932691D01*
X148755248Y-88361813D01*
X148537243Y-87834200D01*
X148133923Y-87430176D01*
X148003785Y-87376138D01*
X148131800Y-87323243D01*
X148535824Y-86919923D01*
X148754750Y-86392691D01*
X148754930Y-86185750D01*
X154713000Y-86185750D01*
X154713000Y-87776309D01*
X154809673Y-88009698D01*
X154988301Y-88188327D01*
X155221690Y-88285000D01*
X156812250Y-88285000D01*
X156971000Y-88126250D01*
X156971000Y-86027000D01*
X157225000Y-86027000D01*
X157225000Y-88126250D01*
X157383750Y-88285000D01*
X158974310Y-88285000D01*
X159207699Y-88188327D01*
X159386327Y-88009698D01*
X159400560Y-87975337D01*
X159400560Y-90650000D01*
X159444838Y-90885317D01*
X159583910Y-91101441D01*
X159796110Y-91246431D01*
X160048000Y-91297440D01*
X163548000Y-91297440D01*
X163783317Y-91253162D01*
X163999441Y-91114090D01*
X164144431Y-90901890D01*
X164195440Y-90650000D01*
X164195440Y-87150000D01*
X164151162Y-86914683D01*
X164012090Y-86698559D01*
X163799890Y-86553569D01*
X163548000Y-86502560D01*
X160048000Y-86502560D01*
X159812683Y-86546838D01*
X159596559Y-86685910D01*
X159483000Y-86852109D01*
X159483000Y-86185750D01*
X159324250Y-86027000D01*
X157225000Y-86027000D01*
X156971000Y-86027000D01*
X154871750Y-86027000D01*
X154713000Y-86185750D01*
X148754930Y-86185750D01*
X148755248Y-85821813D01*
X148537243Y-85294200D01*
X148133923Y-84890176D01*
X148003785Y-84836138D01*
X148131800Y-84783243D01*
X148535824Y-84379923D01*
X148683744Y-84023691D01*
X154713000Y-84023691D01*
X154713000Y-85614250D01*
X154871750Y-85773000D01*
X156971000Y-85773000D01*
X156971000Y-83673750D01*
X157225000Y-83673750D01*
X157225000Y-85773000D01*
X159324250Y-85773000D01*
X159483000Y-85614250D01*
X159483000Y-84945304D01*
X159509673Y-85009698D01*
X159688301Y-85188327D01*
X159921690Y-85285000D01*
X161512250Y-85285000D01*
X161671000Y-85126250D01*
X161671000Y-83027000D01*
X161925000Y-83027000D01*
X161925000Y-85126250D01*
X162083750Y-85285000D01*
X163674310Y-85285000D01*
X163907699Y-85188327D01*
X164086327Y-85009698D01*
X164183000Y-84776309D01*
X164183000Y-83185750D01*
X164024250Y-83027000D01*
X161925000Y-83027000D01*
X161671000Y-83027000D01*
X159571750Y-83027000D01*
X159413000Y-83185750D01*
X159413000Y-83854696D01*
X159386327Y-83790302D01*
X159207699Y-83611673D01*
X158974310Y-83515000D01*
X157383750Y-83515000D01*
X157225000Y-83673750D01*
X156971000Y-83673750D01*
X156812250Y-83515000D01*
X155221690Y-83515000D01*
X154988301Y-83611673D01*
X154809673Y-83790302D01*
X154713000Y-84023691D01*
X148683744Y-84023691D01*
X148754750Y-83852691D01*
X148755248Y-83281813D01*
X148537243Y-82754200D01*
X148133923Y-82350176D01*
X147606691Y-82131250D01*
X147035813Y-82130752D01*
X146508200Y-82348757D01*
X146104176Y-82752077D01*
X145885250Y-83279309D01*
X145884752Y-83850187D01*
X136054752Y-83850187D01*
X136055248Y-83281813D01*
X135837243Y-82754200D01*
X135433923Y-82350176D01*
X134906691Y-82131250D01*
X134335813Y-82130752D01*
X133808200Y-82348757D01*
X133404176Y-82752077D01*
X133185250Y-83279309D01*
X133184752Y-83850187D01*
X133402757Y-84377800D01*
X133806077Y-84781824D01*
X133936215Y-84835862D01*
X133808200Y-84888757D01*
X133404176Y-85292077D01*
X133185250Y-85819309D01*
X133184752Y-86390187D01*
X133402757Y-86917800D01*
X133806077Y-87321824D01*
X133936215Y-87375862D01*
X133808200Y-87428757D01*
X133404176Y-87832077D01*
X133185250Y-88359309D01*
X133184752Y-88930187D01*
X133402757Y-89457800D01*
X133806077Y-89861824D01*
X133936215Y-89915862D01*
X133808200Y-89968757D01*
X133404176Y-90372077D01*
X133185250Y-90899309D01*
X133184752Y-91470187D01*
X133402757Y-91997800D01*
X133806077Y-92401824D01*
X133936215Y-92455862D01*
X133808200Y-92508757D01*
X133404176Y-92912077D01*
X133185250Y-93439309D01*
X133184752Y-94010187D01*
X133402757Y-94537800D01*
X133806077Y-94941824D01*
X133936215Y-94995862D01*
X133808200Y-95048757D01*
X133404176Y-95452077D01*
X133185250Y-95979309D01*
X133184752Y-96550187D01*
X133402757Y-97077800D01*
X133806077Y-97481824D01*
X133936215Y-97535862D01*
X133808200Y-97588757D01*
X133404176Y-97992077D01*
X133381785Y-98046000D01*
X131572000Y-98046000D01*
X131281160Y-98103852D01*
X131034599Y-98268599D01*
X129987198Y-99316000D01*
X126963685Y-99316000D01*
X127054750Y-99096691D01*
X127055248Y-98525813D01*
X126837243Y-97998200D01*
X126433923Y-97594176D01*
X126303785Y-97540138D01*
X126431800Y-97487243D01*
X126835824Y-97083923D01*
X127054750Y-96556691D01*
X127055248Y-95985813D01*
X126837243Y-95458200D01*
X126433923Y-95054176D01*
X126303785Y-95000138D01*
X126431800Y-94947243D01*
X126835824Y-94543923D01*
X127054750Y-94016691D01*
X127055248Y-93445813D01*
X126837243Y-92918200D01*
X126433923Y-92514176D01*
X126303785Y-92460138D01*
X126431800Y-92407243D01*
X126835824Y-92003923D01*
X127054750Y-91476691D01*
X127055248Y-90905813D01*
X126837243Y-90378200D01*
X126433923Y-89974176D01*
X126303785Y-89920138D01*
X126431800Y-89867243D01*
X126835824Y-89463923D01*
X127054750Y-88936691D01*
X127055248Y-88365813D01*
X126837243Y-87838200D01*
X126433923Y-87434176D01*
X126303785Y-87380138D01*
X126431800Y-87327243D01*
X126835824Y-86923923D01*
X127054750Y-86396691D01*
X127055248Y-85825813D01*
X126837243Y-85298200D01*
X126433923Y-84894176D01*
X126303785Y-84840138D01*
X126431800Y-84787243D01*
X126835824Y-84383923D01*
X127054750Y-83856691D01*
X127055248Y-83285813D01*
X126837243Y-82758200D01*
X126433923Y-82354176D01*
X126303785Y-82300138D01*
X126431800Y-82247243D01*
X126835824Y-81843923D01*
X127054750Y-81316691D01*
X127055005Y-81023691D01*
X159413000Y-81023691D01*
X159413000Y-82614250D01*
X159571750Y-82773000D01*
X161671000Y-82773000D01*
X161671000Y-80673750D01*
X161925000Y-80673750D01*
X161925000Y-82773000D01*
X164024250Y-82773000D01*
X164183000Y-82614250D01*
X164183000Y-81023691D01*
X164086327Y-80790302D01*
X163907699Y-80611673D01*
X163674310Y-80515000D01*
X162083750Y-80515000D01*
X161925000Y-80673750D01*
X161671000Y-80673750D01*
X161512250Y-80515000D01*
X159921690Y-80515000D01*
X159688301Y-80611673D01*
X159509673Y-80790302D01*
X159413000Y-81023691D01*
X127055005Y-81023691D01*
X127055248Y-80745813D01*
X126837243Y-80218200D01*
X126433923Y-79814176D01*
X126303785Y-79760138D01*
X126431800Y-79707243D01*
X126835824Y-79303923D01*
X127054750Y-78776691D01*
X127055248Y-78205813D01*
X126924757Y-77890000D01*
X130582560Y-77890000D01*
X130582560Y-79590000D01*
X130626838Y-79825317D01*
X130765910Y-80041441D01*
X130978110Y-80186431D01*
X131230000Y-80237440D01*
X132930000Y-80237440D01*
X133165317Y-80193162D01*
X133381441Y-80054090D01*
X133526431Y-79841890D01*
X133540086Y-79774459D01*
X133569946Y-79819147D01*
X134051715Y-80141054D01*
X134620000Y-80254093D01*
X135188285Y-80141054D01*
X135670054Y-79819147D01*
X135991961Y-79337378D01*
X136105000Y-78769093D01*
X136105000Y-78710907D01*
X135991961Y-78142622D01*
X135670054Y-77660853D01*
X135188285Y-77338946D01*
X134620000Y-77225907D01*
X134051715Y-77338946D01*
X133569946Y-77660853D01*
X133542150Y-77702452D01*
X133533162Y-77654683D01*
X133394090Y-77438559D01*
X133181890Y-77293569D01*
X132930000Y-77242560D01*
X131230000Y-77242560D01*
X130994683Y-77286838D01*
X130778559Y-77425910D01*
X130633569Y-77638110D01*
X130582560Y-77890000D01*
X126924757Y-77890000D01*
X126837243Y-77678200D01*
X126433923Y-77274176D01*
X125906691Y-77055250D01*
X125335813Y-77054752D01*
X124808200Y-77272757D01*
X124404176Y-77676077D01*
X124185250Y-78203309D01*
X124184752Y-78774187D01*
X124402757Y-79301800D01*
X124806077Y-79705824D01*
X124936215Y-79759862D01*
X124808200Y-79812757D01*
X124404176Y-80216077D01*
X124350138Y-80346215D01*
X124297243Y-80218200D01*
X123893923Y-79814176D01*
X123366691Y-79595250D01*
X122795813Y-79594752D01*
X122268200Y-79812757D01*
X121864176Y-80216077D01*
X121645250Y-80743309D01*
X121644752Y-81314187D01*
X121862757Y-81841800D01*
X122266077Y-82245824D01*
X122793309Y-82464750D01*
X123364187Y-82465248D01*
X123891800Y-82247243D01*
X124295824Y-81843923D01*
X124349862Y-81713785D01*
X124402757Y-81841800D01*
X124806077Y-82245824D01*
X124936215Y-82299862D01*
X124808200Y-82352757D01*
X124404176Y-82756077D01*
X124185250Y-83283309D01*
X124184752Y-83854187D01*
X124402757Y-84381800D01*
X124806077Y-84785824D01*
X124936215Y-84839862D01*
X124808200Y-84892757D01*
X124404176Y-85296077D01*
X124350138Y-85426215D01*
X124297243Y-85298200D01*
X123893923Y-84894176D01*
X123366691Y-84675250D01*
X122795813Y-84674752D01*
X122268200Y-84892757D01*
X121864176Y-85296077D01*
X121645250Y-85823309D01*
X121644752Y-86394187D01*
X121862757Y-86921800D01*
X122266077Y-87325824D01*
X122396215Y-87379862D01*
X122268200Y-87432757D01*
X121864176Y-87836077D01*
X121645250Y-88363309D01*
X121644752Y-88934187D01*
X121862757Y-89461800D01*
X122266077Y-89865824D01*
X122396215Y-89919862D01*
X122268200Y-89972757D01*
X121864176Y-90376077D01*
X121645250Y-90903309D01*
X121644752Y-91474187D01*
X121862757Y-92001800D01*
X122266077Y-92405824D01*
X122793309Y-92624750D01*
X123364187Y-92625248D01*
X123891800Y-92407243D01*
X124295824Y-92003923D01*
X124349862Y-91873785D01*
X124402757Y-92001800D01*
X124806077Y-92405824D01*
X124936215Y-92459862D01*
X124808200Y-92512757D01*
X124404176Y-92916077D01*
X124185250Y-93443309D01*
X124184752Y-94014187D01*
X124402757Y-94541800D01*
X124806077Y-94945824D01*
X124936215Y-94999862D01*
X124808200Y-95052757D01*
X124404176Y-95456077D01*
X124185250Y-95983309D01*
X124184752Y-96554187D01*
X124402757Y-97081800D01*
X124806077Y-97485824D01*
X124936215Y-97539862D01*
X124808200Y-97592757D01*
X124404176Y-97996077D01*
X124185250Y-98523309D01*
X124184752Y-99094187D01*
X124276403Y-99316000D01*
X121883685Y-99316000D01*
X121974750Y-99096691D01*
X121975248Y-98525813D01*
X121757243Y-97998200D01*
X121353923Y-97594176D01*
X121239232Y-97546552D01*
X121294005Y-97523864D01*
X121368139Y-97277745D01*
X120540000Y-96449605D01*
X119711861Y-97277745D01*
X119785995Y-97523864D01*
X119844254Y-97544805D01*
X119728200Y-97592757D01*
X119324176Y-97996077D01*
X119270138Y-98126215D01*
X119217243Y-97998200D01*
X118813923Y-97594176D01*
X118699232Y-97546552D01*
X118754005Y-97523864D01*
X118828139Y-97277745D01*
X118000000Y-96449605D01*
X117171861Y-97277745D01*
X117245995Y-97523864D01*
X117304254Y-97544805D01*
X117188200Y-97592757D01*
X116784176Y-97996077D01*
X116565250Y-98523309D01*
X116564752Y-99094187D01*
X116656403Y-99316000D01*
X111960802Y-99316000D01*
X111793256Y-99148454D01*
X111814750Y-99096691D01*
X111815248Y-98525813D01*
X111597243Y-97998200D01*
X111193923Y-97594176D01*
X111063785Y-97540138D01*
X111191800Y-97487243D01*
X111595824Y-97083923D01*
X111814750Y-96556691D01*
X111815189Y-96053223D01*
X116553035Y-96053223D01*
X116580222Y-96623454D01*
X116746136Y-97024005D01*
X116992255Y-97098139D01*
X117820395Y-96270000D01*
X118179605Y-96270000D01*
X119007745Y-97098139D01*
X119253864Y-97024005D01*
X119268858Y-96982291D01*
X119286136Y-97024005D01*
X119532255Y-97098139D01*
X120360395Y-96270000D01*
X120719605Y-96270000D01*
X121547745Y-97098139D01*
X121793864Y-97024005D01*
X121986965Y-96486777D01*
X121959778Y-95916546D01*
X121793864Y-95515995D01*
X121547745Y-95441861D01*
X120719605Y-96270000D01*
X120360395Y-96270000D01*
X119532255Y-95441861D01*
X119286136Y-95515995D01*
X119271142Y-95557709D01*
X119253864Y-95515995D01*
X119007745Y-95441861D01*
X118179605Y-96270000D01*
X117820395Y-96270000D01*
X116992255Y-95441861D01*
X116746136Y-95515995D01*
X116553035Y-96053223D01*
X111815189Y-96053223D01*
X111815248Y-95985813D01*
X111597243Y-95458200D01*
X111193923Y-95054176D01*
X111063785Y-95000138D01*
X111191800Y-94947243D01*
X111595824Y-94543923D01*
X111814750Y-94016691D01*
X111814752Y-94014187D01*
X116564752Y-94014187D01*
X116782757Y-94541800D01*
X117186077Y-94945824D01*
X117300768Y-94993448D01*
X117245995Y-95016136D01*
X117171861Y-95262255D01*
X118000000Y-96090395D01*
X118828139Y-95262255D01*
X118754005Y-95016136D01*
X118695746Y-94995195D01*
X118811800Y-94947243D01*
X119215824Y-94543923D01*
X119269862Y-94413785D01*
X119322757Y-94541800D01*
X119726077Y-94945824D01*
X119840768Y-94993448D01*
X119785995Y-95016136D01*
X119711861Y-95262255D01*
X120540000Y-96090395D01*
X121368139Y-95262255D01*
X121294005Y-95016136D01*
X121235746Y-94995195D01*
X121351800Y-94947243D01*
X121755824Y-94543923D01*
X121974750Y-94016691D01*
X121975248Y-93445813D01*
X121757243Y-92918200D01*
X121353923Y-92514176D01*
X120826691Y-92295250D01*
X120255813Y-92294752D01*
X119728200Y-92512757D01*
X119324176Y-92916077D01*
X119270138Y-93046215D01*
X119217243Y-92918200D01*
X118813923Y-92514176D01*
X118286691Y-92295250D01*
X117715813Y-92294752D01*
X117188200Y-92512757D01*
X116784176Y-92916077D01*
X116565250Y-93443309D01*
X116564752Y-94014187D01*
X111814752Y-94014187D01*
X111815248Y-93445813D01*
X111597243Y-92918200D01*
X111193923Y-92514176D01*
X111063785Y-92460138D01*
X111191800Y-92407243D01*
X111595824Y-92003923D01*
X111814750Y-91476691D01*
X111815248Y-90905813D01*
X111597243Y-90378200D01*
X111193923Y-89974176D01*
X111063785Y-89920138D01*
X111191800Y-89867243D01*
X111595824Y-89463923D01*
X111814750Y-88936691D01*
X111815248Y-88365813D01*
X111597243Y-87838200D01*
X111193923Y-87434176D01*
X111063785Y-87380138D01*
X111191800Y-87327243D01*
X111595824Y-86923923D01*
X111814750Y-86396691D01*
X111815248Y-85825813D01*
X111597243Y-85298200D01*
X111193923Y-84894176D01*
X111063785Y-84840138D01*
X111191800Y-84787243D01*
X111595824Y-84383923D01*
X111814750Y-83856691D01*
X111815248Y-83285813D01*
X111597243Y-82758200D01*
X111193923Y-82354176D01*
X111063785Y-82300138D01*
X111191800Y-82247243D01*
X111595824Y-81843923D01*
X111814750Y-81316691D01*
X111815248Y-80745813D01*
X111597243Y-80218200D01*
X111304554Y-79925000D01*
X111306310Y-79925000D01*
X111539699Y-79828327D01*
X111718327Y-79649698D01*
X111815000Y-79416309D01*
X111815000Y-78775750D01*
X111656250Y-78617000D01*
X110507000Y-78617000D01*
X110507000Y-78637000D01*
X110253000Y-78637000D01*
X110253000Y-78617000D01*
X109103750Y-78617000D01*
X108945000Y-78775750D01*
X108945000Y-79416309D01*
X109041673Y-79649698D01*
X109220301Y-79828327D01*
X109453690Y-79925000D01*
X109455761Y-79925000D01*
X109164176Y-80216077D01*
X108945250Y-80743309D01*
X108944752Y-81314187D01*
X106553000Y-81314187D01*
X106553000Y-77563691D01*
X108945000Y-77563691D01*
X108945000Y-78204250D01*
X109103750Y-78363000D01*
X110253000Y-78363000D01*
X110253000Y-77213750D01*
X110507000Y-77213750D01*
X110507000Y-78363000D01*
X111656250Y-78363000D01*
X111815000Y-78204250D01*
X111815000Y-77563691D01*
X111718327Y-77330302D01*
X111539699Y-77151673D01*
X111306310Y-77055000D01*
X110665750Y-77055000D01*
X110507000Y-77213750D01*
X110253000Y-77213750D01*
X110094250Y-77055000D01*
X109453690Y-77055000D01*
X109220301Y-77151673D01*
X109041673Y-77330302D01*
X108945000Y-77563691D01*
X106553000Y-77563691D01*
X106553000Y-76327000D01*
X168021000Y-76327000D01*
X168021000Y-143129000D01*
X168021000Y-143129000D01*
G37*
X168021000Y-143129000D02*
X128397000Y-143129000D01*
X128397000Y-125730000D01*
X128386994Y-125680590D01*
X128362651Y-125643139D01*
X124587000Y-121615778D01*
X124587000Y-115570000D01*
X124576994Y-115520590D01*
X124548553Y-115478965D01*
X124506159Y-115451685D01*
X124461789Y-115443013D01*
X106553000Y-115190777D01*
X106553000Y-81314187D01*
X108944752Y-81314187D01*
X109162757Y-81841800D01*
X109566077Y-82245824D01*
X109696215Y-82299862D01*
X109568200Y-82352757D01*
X109164176Y-82756077D01*
X108945250Y-83283309D01*
X108944752Y-83854187D01*
X109162757Y-84381800D01*
X109566077Y-84785824D01*
X109696215Y-84839862D01*
X109568200Y-84892757D01*
X109164176Y-85296077D01*
X108945250Y-85823309D01*
X108944752Y-86394187D01*
X109162757Y-86921800D01*
X109566077Y-87325824D01*
X109696215Y-87379862D01*
X109568200Y-87432757D01*
X109164176Y-87836077D01*
X108945250Y-88363309D01*
X108944752Y-88934187D01*
X109162757Y-89461800D01*
X109566077Y-89865824D01*
X109696215Y-89919862D01*
X109568200Y-89972757D01*
X109164176Y-90376077D01*
X108945250Y-90903309D01*
X108944752Y-91474187D01*
X109162757Y-92001800D01*
X109566077Y-92405824D01*
X109696215Y-92459862D01*
X109568200Y-92512757D01*
X109164176Y-92916077D01*
X108945250Y-93443309D01*
X108944752Y-94014187D01*
X109162757Y-94541800D01*
X109566077Y-94945824D01*
X109696215Y-94999862D01*
X109568200Y-95052757D01*
X109164176Y-95456077D01*
X108945250Y-95983309D01*
X108944752Y-96554187D01*
X109162757Y-97081800D01*
X109566077Y-97485824D01*
X109696215Y-97539862D01*
X109568200Y-97592757D01*
X109164176Y-97996077D01*
X108945250Y-98523309D01*
X108944752Y-99094187D01*
X109162757Y-99621800D01*
X109566077Y-100025824D01*
X109696215Y-100079862D01*
X109568200Y-100132757D01*
X109164176Y-100536077D01*
X108945250Y-101063309D01*
X108944752Y-101634187D01*
X109162757Y-102161800D01*
X109566077Y-102565824D01*
X109696215Y-102619862D01*
X109568200Y-102672757D01*
X109164176Y-103076077D01*
X108945250Y-103603309D01*
X108944752Y-104174187D01*
X109162757Y-104701800D01*
X109566077Y-105105824D01*
X109696215Y-105159862D01*
X109568200Y-105212757D01*
X109164176Y-105616077D01*
X108945250Y-106143309D01*
X108944752Y-106714187D01*
X109162757Y-107241800D01*
X109566077Y-107645824D01*
X109696215Y-107699862D01*
X109568200Y-107752757D01*
X109164176Y-108156077D01*
X108945250Y-108683309D01*
X108944752Y-109254187D01*
X109162757Y-109781800D01*
X109566077Y-110185824D01*
X109696215Y-110239862D01*
X109568200Y-110292757D01*
X109164176Y-110696077D01*
X108945250Y-111223309D01*
X108944752Y-111794187D01*
X109162757Y-112321800D01*
X109566077Y-112725824D01*
X110093309Y-112944750D01*
X110664187Y-112945248D01*
X111191800Y-112727243D01*
X111595824Y-112323923D01*
X111649862Y-112193785D01*
X111702757Y-112321800D01*
X112106077Y-112725824D01*
X112633309Y-112944750D01*
X113204187Y-112945248D01*
X113731800Y-112727243D01*
X114135824Y-112323923D01*
X114189862Y-112193785D01*
X114242757Y-112321800D01*
X114646077Y-112725824D01*
X115173309Y-112944750D01*
X115744187Y-112945248D01*
X116271800Y-112727243D01*
X116481663Y-112517745D01*
X117171861Y-112517745D01*
X117245995Y-112763864D01*
X117783223Y-112956965D01*
X118353454Y-112929778D01*
X118754005Y-112763864D01*
X118828139Y-112517745D01*
X118000000Y-111689605D01*
X117171861Y-112517745D01*
X116481663Y-112517745D01*
X116675824Y-112323923D01*
X116723448Y-112209232D01*
X116746136Y-112264005D01*
X116992255Y-112338139D01*
X117820395Y-111510000D01*
X116992255Y-110681861D01*
X116746136Y-110755995D01*
X116725195Y-110814254D01*
X116677243Y-110698200D01*
X116273923Y-110294176D01*
X115746691Y-110075250D01*
X115175813Y-110074752D01*
X114648200Y-110292757D01*
X114244176Y-110696077D01*
X114190138Y-110826215D01*
X114137243Y-110698200D01*
X113733923Y-110294176D01*
X113206691Y-110075250D01*
X112635813Y-110074752D01*
X112108200Y-110292757D01*
X111704176Y-110696077D01*
X111650138Y-110826215D01*
X111597243Y-110698200D01*
X111193923Y-110294176D01*
X111063785Y-110240138D01*
X111191800Y-110187243D01*
X111595824Y-109783923D01*
X111814750Y-109256691D01*
X111815248Y-108685813D01*
X111597243Y-108158200D01*
X111193923Y-107754176D01*
X111063785Y-107700138D01*
X111191800Y-107647243D01*
X111595824Y-107243923D01*
X111814750Y-106716691D01*
X111815248Y-106145813D01*
X111720291Y-105916000D01*
X116659637Y-105916000D01*
X116565250Y-106143309D01*
X116564752Y-106714187D01*
X116782757Y-107241800D01*
X117186077Y-107645824D01*
X117316215Y-107699862D01*
X117188200Y-107752757D01*
X116784176Y-108156077D01*
X116565250Y-108683309D01*
X116564752Y-109254187D01*
X116782757Y-109781800D01*
X117186077Y-110185824D01*
X117300768Y-110233448D01*
X117245995Y-110256136D01*
X117171861Y-110502255D01*
X118000000Y-111330395D01*
X118828139Y-110502255D01*
X118754005Y-110256136D01*
X118695746Y-110235195D01*
X118811800Y-110187243D01*
X119215824Y-109783923D01*
X119269862Y-109653785D01*
X119322757Y-109781800D01*
X119726077Y-110185824D01*
X119856215Y-110239862D01*
X119728200Y-110292757D01*
X119324176Y-110696077D01*
X119276552Y-110810768D01*
X119253864Y-110755995D01*
X119007745Y-110681861D01*
X118179605Y-111510000D01*
X119007745Y-112338139D01*
X119253864Y-112264005D01*
X119274805Y-112205746D01*
X119322757Y-112321800D01*
X119726077Y-112725824D01*
X120253309Y-112944750D01*
X120824187Y-112945248D01*
X121351800Y-112727243D01*
X121755824Y-112323923D01*
X121809862Y-112193785D01*
X121862757Y-112321800D01*
X122266077Y-112725824D01*
X122793309Y-112944750D01*
X123364187Y-112945248D01*
X123891800Y-112727243D01*
X124295824Y-112323923D01*
X124349862Y-112193785D01*
X124402757Y-112321800D01*
X124806077Y-112725824D01*
X125333309Y-112944750D01*
X125904187Y-112945248D01*
X126240740Y-112806187D01*
X133184752Y-112806187D01*
X133402757Y-113333800D01*
X133806077Y-113737824D01*
X133936215Y-113791862D01*
X133808200Y-113844757D01*
X133404176Y-114248077D01*
X133185250Y-114775309D01*
X133184752Y-115346187D01*
X133402757Y-115873800D01*
X133806077Y-116277824D01*
X133936215Y-116331862D01*
X133808200Y-116384757D01*
X133404176Y-116788077D01*
X133185250Y-117315309D01*
X133184752Y-117886187D01*
X133402757Y-118413800D01*
X133806077Y-118817824D01*
X133936215Y-118871862D01*
X133808200Y-118924757D01*
X133404176Y-119328077D01*
X133185250Y-119855309D01*
X133184752Y-120426187D01*
X133402757Y-120953800D01*
X133806077Y-121357824D01*
X133936215Y-121411862D01*
X133808200Y-121464757D01*
X133404176Y-121868077D01*
X133185250Y-122395309D01*
X133184752Y-122966187D01*
X133402757Y-123493800D01*
X133806077Y-123897824D01*
X133936215Y-123951862D01*
X133808200Y-124004757D01*
X133404176Y-124408077D01*
X133185250Y-124935309D01*
X133184752Y-125506187D01*
X133402757Y-126033800D01*
X133806077Y-126437824D01*
X133936215Y-126491862D01*
X133808200Y-126544757D01*
X133404176Y-126948077D01*
X133185250Y-127475309D01*
X133184752Y-128046187D01*
X133402757Y-128573800D01*
X133806077Y-128977824D01*
X133936215Y-129031862D01*
X133808200Y-129084757D01*
X133404176Y-129488077D01*
X133185250Y-130015309D01*
X133184752Y-130586187D01*
X133402757Y-131113800D01*
X133806077Y-131517824D01*
X133936215Y-131571862D01*
X133808200Y-131624757D01*
X133404176Y-132028077D01*
X133185250Y-132555309D01*
X133184752Y-133126187D01*
X133402757Y-133653800D01*
X133806077Y-134057824D01*
X133936215Y-134111862D01*
X133808200Y-134164757D01*
X133404176Y-134568077D01*
X133185250Y-135095309D01*
X133184752Y-135666187D01*
X133402757Y-136193800D01*
X133806077Y-136597824D01*
X134333309Y-136816750D01*
X134904187Y-136817248D01*
X135431800Y-136599243D01*
X135641663Y-136389745D01*
X146491861Y-136389745D01*
X146565995Y-136635864D01*
X147103223Y-136828965D01*
X147673454Y-136801778D01*
X148074005Y-136635864D01*
X148148139Y-136389745D01*
X147320000Y-135561605D01*
X146491861Y-136389745D01*
X135641663Y-136389745D01*
X135835824Y-136195923D01*
X136054750Y-135668691D01*
X136055189Y-135165223D01*
X145873035Y-135165223D01*
X145900222Y-135735454D01*
X146066136Y-136136005D01*
X146312255Y-136210139D01*
X147140395Y-135382000D01*
X147499605Y-135382000D01*
X148327745Y-136210139D01*
X148573864Y-136136005D01*
X148766965Y-135598777D01*
X148739778Y-135028546D01*
X148573864Y-134627995D01*
X148327745Y-134553861D01*
X147499605Y-135382000D01*
X147140395Y-135382000D01*
X146312255Y-134553861D01*
X146066136Y-134627995D01*
X145873035Y-135165223D01*
X136055189Y-135165223D01*
X136055248Y-135097813D01*
X135837243Y-134570200D01*
X135433923Y-134166176D01*
X135303785Y-134112138D01*
X135431800Y-134059243D01*
X135835824Y-133655923D01*
X136054750Y-133128691D01*
X136055248Y-132557813D01*
X135837243Y-132030200D01*
X135433923Y-131626176D01*
X135303785Y-131572138D01*
X135431800Y-131519243D01*
X135835824Y-131115923D01*
X136054750Y-130588691D01*
X136055248Y-130017813D01*
X135837243Y-129490200D01*
X135433923Y-129086176D01*
X135303785Y-129032138D01*
X135431800Y-128979243D01*
X135835824Y-128575923D01*
X136054750Y-128048691D01*
X136055248Y-127477813D01*
X135837243Y-126950200D01*
X135433923Y-126546176D01*
X135303785Y-126492138D01*
X135431800Y-126439243D01*
X135835824Y-126035923D01*
X136054750Y-125508691D01*
X136055248Y-124937813D01*
X135837243Y-124410200D01*
X135433923Y-124006176D01*
X135303785Y-123952138D01*
X135431800Y-123899243D01*
X135835824Y-123495923D01*
X136054750Y-122968691D01*
X136055248Y-122397813D01*
X135837243Y-121870200D01*
X135433923Y-121466176D01*
X135303785Y-121412138D01*
X135431800Y-121359243D01*
X135835824Y-120955923D01*
X136054750Y-120428691D01*
X136055248Y-119857813D01*
X135837243Y-119330200D01*
X135433923Y-118926176D01*
X135303785Y-118872138D01*
X135431800Y-118819243D01*
X135835824Y-118415923D01*
X136054750Y-117888691D01*
X136055248Y-117317813D01*
X135837243Y-116790200D01*
X135433923Y-116386176D01*
X135303785Y-116332138D01*
X135431800Y-116279243D01*
X135835824Y-115875923D01*
X136054750Y-115348691D01*
X136055248Y-114777813D01*
X135837243Y-114250200D01*
X135433923Y-113846176D01*
X135303785Y-113792138D01*
X135431800Y-113739243D01*
X135835824Y-113335923D01*
X136054750Y-112808691D01*
X136054752Y-112806187D01*
X145884752Y-112806187D01*
X146102757Y-113333800D01*
X146506077Y-113737824D01*
X146636215Y-113791862D01*
X146508200Y-113844757D01*
X146104176Y-114248077D01*
X145885250Y-114775309D01*
X145884752Y-115346187D01*
X146102757Y-115873800D01*
X146506077Y-116277824D01*
X146636215Y-116331862D01*
X146508200Y-116384757D01*
X146104176Y-116788077D01*
X145885250Y-117315309D01*
X145884752Y-117886187D01*
X146102757Y-118413800D01*
X146506077Y-118817824D01*
X146636215Y-118871862D01*
X146508200Y-118924757D01*
X146104176Y-119328077D01*
X145885250Y-119855309D01*
X145884752Y-120426187D01*
X146102757Y-120953800D01*
X146506077Y-121357824D01*
X146636215Y-121411862D01*
X146508200Y-121464757D01*
X146104176Y-121868077D01*
X145885250Y-122395309D01*
X145884752Y-122966187D01*
X146102757Y-123493800D01*
X146506077Y-123897824D01*
X146636215Y-123951862D01*
X146508200Y-124004757D01*
X146104176Y-124408077D01*
X145885250Y-124935309D01*
X145884752Y-125506187D01*
X146102757Y-126033800D01*
X146506077Y-126437824D01*
X146636215Y-126491862D01*
X146508200Y-126544757D01*
X146104176Y-126948077D01*
X145885250Y-127475309D01*
X145884752Y-128046187D01*
X146102757Y-128573800D01*
X146506077Y-128977824D01*
X146636215Y-129031862D01*
X146508200Y-129084757D01*
X146104176Y-129488077D01*
X145885250Y-130015309D01*
X145884752Y-130586187D01*
X146102757Y-131113800D01*
X146506077Y-131517824D01*
X146636215Y-131571862D01*
X146508200Y-131624757D01*
X146104176Y-132028077D01*
X145885250Y-132555309D01*
X145884752Y-133126187D01*
X146102757Y-133653800D01*
X146506077Y-134057824D01*
X146620768Y-134105448D01*
X146565995Y-134128136D01*
X146491861Y-134374255D01*
X147320000Y-135202395D01*
X148148139Y-134374255D01*
X148074005Y-134128136D01*
X148015746Y-134107195D01*
X148131800Y-134059243D01*
X148535824Y-133655923D01*
X148754750Y-133128691D01*
X148755248Y-132557813D01*
X148537243Y-132030200D01*
X148133923Y-131626176D01*
X148003785Y-131572138D01*
X148131800Y-131519243D01*
X148535824Y-131115923D01*
X148754750Y-130588691D01*
X148755248Y-130017813D01*
X148537243Y-129490200D01*
X148133923Y-129086176D01*
X148003785Y-129032138D01*
X148131800Y-128979243D01*
X148535824Y-128575923D01*
X148754750Y-128048691D01*
X148755248Y-127477813D01*
X148537243Y-126950200D01*
X148133923Y-126546176D01*
X148003785Y-126492138D01*
X148131800Y-126439243D01*
X148535824Y-126035923D01*
X148754750Y-125508691D01*
X148755248Y-124937813D01*
X148537243Y-124410200D01*
X148133923Y-124006176D01*
X148003785Y-123952138D01*
X148131800Y-123899243D01*
X148535824Y-123495923D01*
X148754750Y-122968691D01*
X148755248Y-122397813D01*
X148537243Y-121870200D01*
X148133923Y-121466176D01*
X148003785Y-121412138D01*
X148131800Y-121359243D01*
X148535824Y-120955923D01*
X148754750Y-120428691D01*
X148755248Y-119857813D01*
X148537243Y-119330200D01*
X148133923Y-118926176D01*
X148003785Y-118872138D01*
X148131800Y-118819243D01*
X148535824Y-118415923D01*
X148754750Y-117888691D01*
X148755248Y-117317813D01*
X148537243Y-116790200D01*
X148133923Y-116386176D01*
X148003785Y-116332138D01*
X148131800Y-116279243D01*
X148535824Y-115875923D01*
X148754750Y-115348691D01*
X148755248Y-114777813D01*
X148537243Y-114250200D01*
X148133923Y-113846176D01*
X148003785Y-113792138D01*
X148131800Y-113739243D01*
X148535824Y-113335923D01*
X148754750Y-112808691D01*
X148755248Y-112237813D01*
X148662771Y-112014000D01*
X159013907Y-112014000D01*
X159126946Y-112582285D01*
X159448853Y-113064054D01*
X159778026Y-113284000D01*
X159448853Y-113503946D01*
X159126946Y-113985715D01*
X159013907Y-114554000D01*
X159126946Y-115122285D01*
X159448853Y-115604054D01*
X159778026Y-115824000D01*
X159448853Y-116043946D01*
X159126946Y-116525715D01*
X159013907Y-117094000D01*
X159126946Y-117662285D01*
X159448853Y-118144054D01*
X159778026Y-118364000D01*
X159448853Y-118583946D01*
X159126946Y-119065715D01*
X159013907Y-119634000D01*
X159126946Y-120202285D01*
X159448853Y-120684054D01*
X159778026Y-120904000D01*
X159448853Y-121123946D01*
X159126946Y-121605715D01*
X159013907Y-122174000D01*
X159126946Y-122742285D01*
X159448853Y-123224054D01*
X159778026Y-123444000D01*
X159448853Y-123663946D01*
X159126946Y-124145715D01*
X159013907Y-124714000D01*
X159126946Y-125282285D01*
X159448853Y-125764054D01*
X159778026Y-125984000D01*
X159448853Y-126203946D01*
X159126946Y-126685715D01*
X159013907Y-127254000D01*
X159126946Y-127822285D01*
X159448853Y-128304054D01*
X159930622Y-128625961D01*
X160498907Y-128739000D01*
X160557093Y-128739000D01*
X161125378Y-128625961D01*
X161607147Y-128304054D01*
X161796345Y-128020899D01*
X161796355Y-128020924D01*
X162186642Y-128449183D01*
X162711108Y-128695486D01*
X162941000Y-128574819D01*
X162941000Y-127381000D01*
X163195000Y-127381000D01*
X163195000Y-128574819D01*
X163424892Y-128695486D01*
X163949358Y-128449183D01*
X164339645Y-128020924D01*
X164509476Y-127610890D01*
X164388155Y-127381000D01*
X163195000Y-127381000D01*
X162941000Y-127381000D01*
X162921000Y-127381000D01*
X162921000Y-127127000D01*
X162941000Y-127127000D01*
X162941000Y-127107000D01*
X163195000Y-127107000D01*
X163195000Y-127127000D01*
X164388155Y-127127000D01*
X164509476Y-126897110D01*
X164339645Y-126487076D01*
X163949358Y-126058817D01*
X163806447Y-125991702D01*
X164147147Y-125764054D01*
X164469054Y-125282285D01*
X164582093Y-124714000D01*
X164469054Y-124145715D01*
X164147147Y-123663946D01*
X163817974Y-123444000D01*
X164147147Y-123224054D01*
X164469054Y-122742285D01*
X164582093Y-122174000D01*
X164469054Y-121605715D01*
X164147147Y-121123946D01*
X163817974Y-120904000D01*
X164147147Y-120684054D01*
X164469054Y-120202285D01*
X164582093Y-119634000D01*
X164469054Y-119065715D01*
X164147147Y-118583946D01*
X163806447Y-118356298D01*
X163949358Y-118289183D01*
X164339645Y-117860924D01*
X164509476Y-117450890D01*
X164388155Y-117221000D01*
X163195000Y-117221000D01*
X163195000Y-117241000D01*
X162941000Y-117241000D01*
X162941000Y-117221000D01*
X162921000Y-117221000D01*
X162921000Y-116967000D01*
X162941000Y-116967000D01*
X162941000Y-116947000D01*
X163195000Y-116947000D01*
X163195000Y-116967000D01*
X164388155Y-116967000D01*
X164509476Y-116737110D01*
X164339645Y-116327076D01*
X163949358Y-115898817D01*
X163806447Y-115831702D01*
X164147147Y-115604054D01*
X164469054Y-115122285D01*
X164582093Y-114554000D01*
X164469054Y-113985715D01*
X164147147Y-113503946D01*
X163806447Y-113276298D01*
X163949358Y-113209183D01*
X164339645Y-112780924D01*
X164509476Y-112370890D01*
X164388155Y-112141000D01*
X163195000Y-112141000D01*
X163195000Y-112161000D01*
X162941000Y-112161000D01*
X162941000Y-112141000D01*
X162921000Y-112141000D01*
X162921000Y-111887000D01*
X162941000Y-111887000D01*
X162941000Y-111867000D01*
X163195000Y-111867000D01*
X163195000Y-111887000D01*
X164388155Y-111887000D01*
X164509476Y-111657110D01*
X164339645Y-111247076D01*
X163949358Y-110818817D01*
X163806447Y-110751702D01*
X164147147Y-110524054D01*
X164469054Y-110042285D01*
X164582093Y-109474000D01*
X164469054Y-108905715D01*
X164147147Y-108423946D01*
X163665378Y-108102039D01*
X163097093Y-107989000D01*
X163038907Y-107989000D01*
X162470622Y-108102039D01*
X161988853Y-108423946D01*
X161988029Y-108425179D01*
X161981162Y-108388683D01*
X161842090Y-108172559D01*
X161629890Y-108027569D01*
X161378000Y-107976560D01*
X159678000Y-107976560D01*
X159442683Y-108020838D01*
X159226559Y-108159910D01*
X159081569Y-108372110D01*
X159030560Y-108624000D01*
X159030560Y-110324000D01*
X159074838Y-110559317D01*
X159213910Y-110775441D01*
X159426110Y-110920431D01*
X159493541Y-110934086D01*
X159448853Y-110963946D01*
X159126946Y-111445715D01*
X159013907Y-112014000D01*
X148662771Y-112014000D01*
X148537243Y-111710200D01*
X148133923Y-111306176D01*
X147606691Y-111087250D01*
X147035813Y-111086752D01*
X146508200Y-111304757D01*
X146104176Y-111708077D01*
X145885250Y-112235309D01*
X145884752Y-112806187D01*
X136054752Y-112806187D01*
X136055248Y-112237813D01*
X135837243Y-111710200D01*
X135433923Y-111306176D01*
X134906691Y-111087250D01*
X134335813Y-111086752D01*
X133808200Y-111304757D01*
X133404176Y-111708077D01*
X133185250Y-112235309D01*
X133184752Y-112806187D01*
X126240740Y-112806187D01*
X126431800Y-112727243D01*
X126835824Y-112323923D01*
X127054750Y-111796691D01*
X127055248Y-111225813D01*
X126837243Y-110698200D01*
X126433923Y-110294176D01*
X126303785Y-110240138D01*
X126431800Y-110187243D01*
X126835824Y-109783923D01*
X127054750Y-109256691D01*
X127055248Y-108685813D01*
X126837243Y-108158200D01*
X126433923Y-107754176D01*
X126303785Y-107700138D01*
X126431800Y-107647243D01*
X126835824Y-107243923D01*
X127054750Y-106716691D01*
X127055248Y-106145813D01*
X126960291Y-105916000D01*
X130048000Y-105916000D01*
X130338839Y-105858148D01*
X130585401Y-105693401D01*
X131632802Y-104646000D01*
X133381354Y-104646000D01*
X133402757Y-104697800D01*
X133806077Y-105101824D01*
X133936215Y-105155862D01*
X133808200Y-105208757D01*
X133404176Y-105612077D01*
X133185250Y-106139309D01*
X133184752Y-106710187D01*
X133402757Y-107237800D01*
X133806077Y-107641824D01*
X134333309Y-107860750D01*
X134904187Y-107861248D01*
X135431800Y-107643243D01*
X135641663Y-107433745D01*
X146491861Y-107433745D01*
X146565995Y-107679864D01*
X147103223Y-107872965D01*
X147673454Y-107845778D01*
X148074005Y-107679864D01*
X148148139Y-107433745D01*
X147320000Y-106605605D01*
X146491861Y-107433745D01*
X135641663Y-107433745D01*
X135835824Y-107239923D01*
X136054750Y-106712691D01*
X136055189Y-106209223D01*
X145873035Y-106209223D01*
X145900222Y-106779454D01*
X146066136Y-107180005D01*
X146312255Y-107254139D01*
X147140395Y-106426000D01*
X147499605Y-106426000D01*
X148327745Y-107254139D01*
X148573864Y-107180005D01*
X148766965Y-106642777D01*
X148739778Y-106072546D01*
X148573864Y-105671995D01*
X148327745Y-105597861D01*
X147499605Y-106426000D01*
X147140395Y-106426000D01*
X146312255Y-105597861D01*
X146066136Y-105671995D01*
X145873035Y-106209223D01*
X136055189Y-106209223D01*
X136055248Y-106141813D01*
X135837243Y-105614200D01*
X135433923Y-105210176D01*
X135303785Y-105156138D01*
X135431800Y-105103243D01*
X135835824Y-104699923D01*
X136054750Y-104172691D01*
X136055248Y-103601813D01*
X135837243Y-103074200D01*
X135433923Y-102670176D01*
X135303785Y-102616138D01*
X135431800Y-102563243D01*
X135835824Y-102159923D01*
X136054750Y-101632691D01*
X136055248Y-101061813D01*
X135837243Y-100534200D01*
X135433923Y-100130176D01*
X135303785Y-100076138D01*
X135431800Y-100023243D01*
X135835824Y-99619923D01*
X136054750Y-99092691D01*
X136055248Y-98521813D01*
X135837243Y-97994200D01*
X135433923Y-97590176D01*
X135303785Y-97536138D01*
X135431800Y-97483243D01*
X135835824Y-97079923D01*
X136054750Y-96552691D01*
X136055248Y-95981813D01*
X135837243Y-95454200D01*
X135433923Y-95050176D01*
X135303785Y-94996138D01*
X135431800Y-94943243D01*
X135835824Y-94539923D01*
X136054750Y-94012691D01*
X136055248Y-93441813D01*
X135837243Y-92914200D01*
X135433923Y-92510176D01*
X135303785Y-92456138D01*
X135431800Y-92403243D01*
X135835824Y-91999923D01*
X136054750Y-91472691D01*
X136055248Y-90901813D01*
X135837243Y-90374200D01*
X135433923Y-89970176D01*
X135303785Y-89916138D01*
X135431800Y-89863243D01*
X135835824Y-89459923D01*
X136054750Y-88932691D01*
X136055248Y-88361813D01*
X135837243Y-87834200D01*
X135433923Y-87430176D01*
X135303785Y-87376138D01*
X135431800Y-87323243D01*
X135835824Y-86919923D01*
X136054750Y-86392691D01*
X136055248Y-85821813D01*
X135837243Y-85294200D01*
X135433923Y-84890176D01*
X135303785Y-84836138D01*
X135431800Y-84783243D01*
X135835824Y-84379923D01*
X136054750Y-83852691D01*
X136054752Y-83850187D01*
X145884752Y-83850187D01*
X146102757Y-84377800D01*
X146506077Y-84781824D01*
X146636215Y-84835862D01*
X146508200Y-84888757D01*
X146104176Y-85292077D01*
X145885250Y-85819309D01*
X145884752Y-86390187D01*
X146102757Y-86917800D01*
X146506077Y-87321824D01*
X146636215Y-87375862D01*
X146508200Y-87428757D01*
X146104176Y-87832077D01*
X145885250Y-88359309D01*
X145884752Y-88930187D01*
X146102757Y-89457800D01*
X146506077Y-89861824D01*
X146636215Y-89915862D01*
X146508200Y-89968757D01*
X146104176Y-90372077D01*
X145885250Y-90899309D01*
X145884752Y-91470187D01*
X146102757Y-91997800D01*
X146506077Y-92401824D01*
X146636215Y-92455862D01*
X146508200Y-92508757D01*
X146104176Y-92912077D01*
X145885250Y-93439309D01*
X145884752Y-94010187D01*
X146102757Y-94537800D01*
X146506077Y-94941824D01*
X146636215Y-94995862D01*
X146508200Y-95048757D01*
X146104176Y-95452077D01*
X145885250Y-95979309D01*
X145884752Y-96550187D01*
X146102757Y-97077800D01*
X146506077Y-97481824D01*
X146636215Y-97535862D01*
X146508200Y-97588757D01*
X146104176Y-97992077D01*
X145885250Y-98519309D01*
X145884752Y-99090187D01*
X146102757Y-99617800D01*
X146506077Y-100021824D01*
X146636215Y-100075862D01*
X146508200Y-100128757D01*
X146104176Y-100532077D01*
X145885250Y-101059309D01*
X145884752Y-101630187D01*
X146102757Y-102157800D01*
X146506077Y-102561824D01*
X146636215Y-102615862D01*
X146508200Y-102668757D01*
X146104176Y-103072077D01*
X145885250Y-103599309D01*
X145884752Y-104170187D01*
X146102757Y-104697800D01*
X146506077Y-105101824D01*
X146620768Y-105149448D01*
X146565995Y-105172136D01*
X146491861Y-105418255D01*
X147320000Y-106246395D01*
X148148139Y-105418255D01*
X148074005Y-105172136D01*
X148015746Y-105151195D01*
X148131800Y-105103243D01*
X148535824Y-104699923D01*
X148754750Y-104172691D01*
X148755248Y-103601813D01*
X148537243Y-103074200D01*
X148133923Y-102670176D01*
X148003785Y-102616138D01*
X148131800Y-102563243D01*
X148535824Y-102159923D01*
X148754750Y-101632691D01*
X148755248Y-101061813D01*
X148537243Y-100534200D01*
X148133923Y-100130176D01*
X148003785Y-100076138D01*
X148131800Y-100023243D01*
X148535824Y-99619923D01*
X148649670Y-99345750D01*
X162757000Y-99345750D01*
X162757000Y-100386309D01*
X162853673Y-100619698D01*
X163032301Y-100798327D01*
X163265690Y-100895000D01*
X164306250Y-100895000D01*
X164465000Y-100736250D01*
X164465000Y-99187000D01*
X164719000Y-99187000D01*
X164719000Y-100736250D01*
X164877750Y-100895000D01*
X165918310Y-100895000D01*
X166151699Y-100798327D01*
X166330327Y-100619698D01*
X166427000Y-100386309D01*
X166427000Y-99345750D01*
X166268250Y-99187000D01*
X164719000Y-99187000D01*
X164465000Y-99187000D01*
X162915750Y-99187000D01*
X162757000Y-99345750D01*
X148649670Y-99345750D01*
X148754750Y-99092691D01*
X148755248Y-98521813D01*
X148537243Y-97994200D01*
X148133923Y-97590176D01*
X148003785Y-97536138D01*
X148131800Y-97483243D01*
X148535824Y-97079923D01*
X148754750Y-96552691D01*
X148755248Y-95981813D01*
X148731114Y-95923403D01*
X162756682Y-95923403D01*
X163035455Y-96598086D01*
X163551199Y-97114730D01*
X163816758Y-97225000D01*
X163265690Y-97225000D01*
X163032301Y-97321673D01*
X162853673Y-97500302D01*
X162757000Y-97733691D01*
X162757000Y-98774250D01*
X162915750Y-98933000D01*
X164465000Y-98933000D01*
X164465000Y-98913000D01*
X164719000Y-98913000D01*
X164719000Y-98933000D01*
X166268250Y-98933000D01*
X166427000Y-98774250D01*
X166427000Y-97733691D01*
X166330327Y-97500302D01*
X166151699Y-97321673D01*
X165918310Y-97225000D01*
X165367605Y-97225000D01*
X165630086Y-97116545D01*
X166146730Y-96600801D01*
X166426681Y-95926605D01*
X166427318Y-95196597D01*
X166148545Y-94521914D01*
X165632801Y-94005270D01*
X164958605Y-93725319D01*
X164228597Y-93724682D01*
X163553914Y-94003455D01*
X163037270Y-94519199D01*
X162757319Y-95193395D01*
X162756682Y-95923403D01*
X148731114Y-95923403D01*
X148537243Y-95454200D01*
X148133923Y-95050176D01*
X148003785Y-94996138D01*
X148131800Y-94943243D01*
X148535824Y-94539923D01*
X148754750Y-94012691D01*
X148755248Y-93441813D01*
X148537243Y-92914200D01*
X148133923Y-92510176D01*
X148003785Y-92456138D01*
X148131800Y-92403243D01*
X148535824Y-91999923D01*
X148754750Y-91472691D01*
X148755248Y-90901813D01*
X148537243Y-90374200D01*
X148133923Y-89970176D01*
X148003785Y-89916138D01*
X148131800Y-89863243D01*
X148535824Y-89459923D01*
X148754750Y-88932691D01*
X148755248Y-88361813D01*
X148537243Y-87834200D01*
X148133923Y-87430176D01*
X148003785Y-87376138D01*
X148131800Y-87323243D01*
X148535824Y-86919923D01*
X148754750Y-86392691D01*
X148754930Y-86185750D01*
X154713000Y-86185750D01*
X154713000Y-87776309D01*
X154809673Y-88009698D01*
X154988301Y-88188327D01*
X155221690Y-88285000D01*
X156812250Y-88285000D01*
X156971000Y-88126250D01*
X156971000Y-86027000D01*
X157225000Y-86027000D01*
X157225000Y-88126250D01*
X157383750Y-88285000D01*
X158974310Y-88285000D01*
X159207699Y-88188327D01*
X159386327Y-88009698D01*
X159400560Y-87975337D01*
X159400560Y-90650000D01*
X159444838Y-90885317D01*
X159583910Y-91101441D01*
X159796110Y-91246431D01*
X160048000Y-91297440D01*
X163548000Y-91297440D01*
X163783317Y-91253162D01*
X163999441Y-91114090D01*
X164144431Y-90901890D01*
X164195440Y-90650000D01*
X164195440Y-87150000D01*
X164151162Y-86914683D01*
X164012090Y-86698559D01*
X163799890Y-86553569D01*
X163548000Y-86502560D01*
X160048000Y-86502560D01*
X159812683Y-86546838D01*
X159596559Y-86685910D01*
X159483000Y-86852109D01*
X159483000Y-86185750D01*
X159324250Y-86027000D01*
X157225000Y-86027000D01*
X156971000Y-86027000D01*
X154871750Y-86027000D01*
X154713000Y-86185750D01*
X148754930Y-86185750D01*
X148755248Y-85821813D01*
X148537243Y-85294200D01*
X148133923Y-84890176D01*
X148003785Y-84836138D01*
X148131800Y-84783243D01*
X148535824Y-84379923D01*
X148683744Y-84023691D01*
X154713000Y-84023691D01*
X154713000Y-85614250D01*
X154871750Y-85773000D01*
X156971000Y-85773000D01*
X156971000Y-83673750D01*
X157225000Y-83673750D01*
X157225000Y-85773000D01*
X159324250Y-85773000D01*
X159483000Y-85614250D01*
X159483000Y-84945304D01*
X159509673Y-85009698D01*
X159688301Y-85188327D01*
X159921690Y-85285000D01*
X161512250Y-85285000D01*
X161671000Y-85126250D01*
X161671000Y-83027000D01*
X161925000Y-83027000D01*
X161925000Y-85126250D01*
X162083750Y-85285000D01*
X163674310Y-85285000D01*
X163907699Y-85188327D01*
X164086327Y-85009698D01*
X164183000Y-84776309D01*
X164183000Y-83185750D01*
X164024250Y-83027000D01*
X161925000Y-83027000D01*
X161671000Y-83027000D01*
X159571750Y-83027000D01*
X159413000Y-83185750D01*
X159413000Y-83854696D01*
X159386327Y-83790302D01*
X159207699Y-83611673D01*
X158974310Y-83515000D01*
X157383750Y-83515000D01*
X157225000Y-83673750D01*
X156971000Y-83673750D01*
X156812250Y-83515000D01*
X155221690Y-83515000D01*
X154988301Y-83611673D01*
X154809673Y-83790302D01*
X154713000Y-84023691D01*
X148683744Y-84023691D01*
X148754750Y-83852691D01*
X148755248Y-83281813D01*
X148537243Y-82754200D01*
X148133923Y-82350176D01*
X147606691Y-82131250D01*
X147035813Y-82130752D01*
X146508200Y-82348757D01*
X146104176Y-82752077D01*
X145885250Y-83279309D01*
X145884752Y-83850187D01*
X136054752Y-83850187D01*
X136055248Y-83281813D01*
X135837243Y-82754200D01*
X135433923Y-82350176D01*
X134906691Y-82131250D01*
X134335813Y-82130752D01*
X133808200Y-82348757D01*
X133404176Y-82752077D01*
X133185250Y-83279309D01*
X133184752Y-83850187D01*
X133402757Y-84377800D01*
X133806077Y-84781824D01*
X133936215Y-84835862D01*
X133808200Y-84888757D01*
X133404176Y-85292077D01*
X133185250Y-85819309D01*
X133184752Y-86390187D01*
X133402757Y-86917800D01*
X133806077Y-87321824D01*
X133936215Y-87375862D01*
X133808200Y-87428757D01*
X133404176Y-87832077D01*
X133185250Y-88359309D01*
X133184752Y-88930187D01*
X133402757Y-89457800D01*
X133806077Y-89861824D01*
X133936215Y-89915862D01*
X133808200Y-89968757D01*
X133404176Y-90372077D01*
X133185250Y-90899309D01*
X133184752Y-91470187D01*
X133402757Y-91997800D01*
X133806077Y-92401824D01*
X133936215Y-92455862D01*
X133808200Y-92508757D01*
X133404176Y-92912077D01*
X133185250Y-93439309D01*
X133184752Y-94010187D01*
X133402757Y-94537800D01*
X133806077Y-94941824D01*
X133936215Y-94995862D01*
X133808200Y-95048757D01*
X133404176Y-95452077D01*
X133185250Y-95979309D01*
X133184752Y-96550187D01*
X133402757Y-97077800D01*
X133806077Y-97481824D01*
X133936215Y-97535862D01*
X133808200Y-97588757D01*
X133404176Y-97992077D01*
X133381785Y-98046000D01*
X131572000Y-98046000D01*
X131281160Y-98103852D01*
X131034599Y-98268599D01*
X129987198Y-99316000D01*
X126963685Y-99316000D01*
X127054750Y-99096691D01*
X127055248Y-98525813D01*
X126837243Y-97998200D01*
X126433923Y-97594176D01*
X126303785Y-97540138D01*
X126431800Y-97487243D01*
X126835824Y-97083923D01*
X127054750Y-96556691D01*
X127055248Y-95985813D01*
X126837243Y-95458200D01*
X126433923Y-95054176D01*
X126303785Y-95000138D01*
X126431800Y-94947243D01*
X126835824Y-94543923D01*
X127054750Y-94016691D01*
X127055248Y-93445813D01*
X126837243Y-92918200D01*
X126433923Y-92514176D01*
X126303785Y-92460138D01*
X126431800Y-92407243D01*
X126835824Y-92003923D01*
X127054750Y-91476691D01*
X127055248Y-90905813D01*
X126837243Y-90378200D01*
X126433923Y-89974176D01*
X126303785Y-89920138D01*
X126431800Y-89867243D01*
X126835824Y-89463923D01*
X127054750Y-88936691D01*
X127055248Y-88365813D01*
X126837243Y-87838200D01*
X126433923Y-87434176D01*
X126303785Y-87380138D01*
X126431800Y-87327243D01*
X126835824Y-86923923D01*
X127054750Y-86396691D01*
X127055248Y-85825813D01*
X126837243Y-85298200D01*
X126433923Y-84894176D01*
X126303785Y-84840138D01*
X126431800Y-84787243D01*
X126835824Y-84383923D01*
X127054750Y-83856691D01*
X127055248Y-83285813D01*
X126837243Y-82758200D01*
X126433923Y-82354176D01*
X126303785Y-82300138D01*
X126431800Y-82247243D01*
X126835824Y-81843923D01*
X127054750Y-81316691D01*
X127055005Y-81023691D01*
X159413000Y-81023691D01*
X159413000Y-82614250D01*
X159571750Y-82773000D01*
X161671000Y-82773000D01*
X161671000Y-80673750D01*
X161925000Y-80673750D01*
X161925000Y-82773000D01*
X164024250Y-82773000D01*
X164183000Y-82614250D01*
X164183000Y-81023691D01*
X164086327Y-80790302D01*
X163907699Y-80611673D01*
X163674310Y-80515000D01*
X162083750Y-80515000D01*
X161925000Y-80673750D01*
X161671000Y-80673750D01*
X161512250Y-80515000D01*
X159921690Y-80515000D01*
X159688301Y-80611673D01*
X159509673Y-80790302D01*
X159413000Y-81023691D01*
X127055005Y-81023691D01*
X127055248Y-80745813D01*
X126837243Y-80218200D01*
X126433923Y-79814176D01*
X126303785Y-79760138D01*
X126431800Y-79707243D01*
X126835824Y-79303923D01*
X127054750Y-78776691D01*
X127055248Y-78205813D01*
X126924757Y-77890000D01*
X130582560Y-77890000D01*
X130582560Y-79590000D01*
X130626838Y-79825317D01*
X130765910Y-80041441D01*
X130978110Y-80186431D01*
X131230000Y-80237440D01*
X132930000Y-80237440D01*
X133165317Y-80193162D01*
X133381441Y-80054090D01*
X133526431Y-79841890D01*
X133540086Y-79774459D01*
X133569946Y-79819147D01*
X134051715Y-80141054D01*
X134620000Y-80254093D01*
X135188285Y-80141054D01*
X135670054Y-79819147D01*
X135991961Y-79337378D01*
X136105000Y-78769093D01*
X136105000Y-78710907D01*
X135991961Y-78142622D01*
X135670054Y-77660853D01*
X135188285Y-77338946D01*
X134620000Y-77225907D01*
X134051715Y-77338946D01*
X133569946Y-77660853D01*
X133542150Y-77702452D01*
X133533162Y-77654683D01*
X133394090Y-77438559D01*
X133181890Y-77293569D01*
X132930000Y-77242560D01*
X131230000Y-77242560D01*
X130994683Y-77286838D01*
X130778559Y-77425910D01*
X130633569Y-77638110D01*
X130582560Y-77890000D01*
X126924757Y-77890000D01*
X126837243Y-77678200D01*
X126433923Y-77274176D01*
X125906691Y-77055250D01*
X125335813Y-77054752D01*
X124808200Y-77272757D01*
X124404176Y-77676077D01*
X124185250Y-78203309D01*
X124184752Y-78774187D01*
X124402757Y-79301800D01*
X124806077Y-79705824D01*
X124936215Y-79759862D01*
X124808200Y-79812757D01*
X124404176Y-80216077D01*
X124350138Y-80346215D01*
X124297243Y-80218200D01*
X123893923Y-79814176D01*
X123366691Y-79595250D01*
X122795813Y-79594752D01*
X122268200Y-79812757D01*
X121864176Y-80216077D01*
X121645250Y-80743309D01*
X121644752Y-81314187D01*
X121862757Y-81841800D01*
X122266077Y-82245824D01*
X122793309Y-82464750D01*
X123364187Y-82465248D01*
X123891800Y-82247243D01*
X124295824Y-81843923D01*
X124349862Y-81713785D01*
X124402757Y-81841800D01*
X124806077Y-82245824D01*
X124936215Y-82299862D01*
X124808200Y-82352757D01*
X124404176Y-82756077D01*
X124185250Y-83283309D01*
X124184752Y-83854187D01*
X124402757Y-84381800D01*
X124806077Y-84785824D01*
X124936215Y-84839862D01*
X124808200Y-84892757D01*
X124404176Y-85296077D01*
X124350138Y-85426215D01*
X124297243Y-85298200D01*
X123893923Y-84894176D01*
X123366691Y-84675250D01*
X122795813Y-84674752D01*
X122268200Y-84892757D01*
X121864176Y-85296077D01*
X121645250Y-85823309D01*
X121644752Y-86394187D01*
X121862757Y-86921800D01*
X122266077Y-87325824D01*
X122396215Y-87379862D01*
X122268200Y-87432757D01*
X121864176Y-87836077D01*
X121645250Y-88363309D01*
X121644752Y-88934187D01*
X121862757Y-89461800D01*
X122266077Y-89865824D01*
X122396215Y-89919862D01*
X122268200Y-89972757D01*
X121864176Y-90376077D01*
X121645250Y-90903309D01*
X121644752Y-91474187D01*
X121862757Y-92001800D01*
X122266077Y-92405824D01*
X122793309Y-92624750D01*
X123364187Y-92625248D01*
X123891800Y-92407243D01*
X124295824Y-92003923D01*
X124349862Y-91873785D01*
X124402757Y-92001800D01*
X124806077Y-92405824D01*
X124936215Y-92459862D01*
X124808200Y-92512757D01*
X124404176Y-92916077D01*
X124185250Y-93443309D01*
X124184752Y-94014187D01*
X124402757Y-94541800D01*
X124806077Y-94945824D01*
X124936215Y-94999862D01*
X124808200Y-95052757D01*
X124404176Y-95456077D01*
X124185250Y-95983309D01*
X124184752Y-96554187D01*
X124402757Y-97081800D01*
X124806077Y-97485824D01*
X124936215Y-97539862D01*
X124808200Y-97592757D01*
X124404176Y-97996077D01*
X124185250Y-98523309D01*
X124184752Y-99094187D01*
X124276403Y-99316000D01*
X121883685Y-99316000D01*
X121974750Y-99096691D01*
X121975248Y-98525813D01*
X121757243Y-97998200D01*
X121353923Y-97594176D01*
X121239232Y-97546552D01*
X121294005Y-97523864D01*
X121368139Y-97277745D01*
X120540000Y-96449605D01*
X119711861Y-97277745D01*
X119785995Y-97523864D01*
X119844254Y-97544805D01*
X119728200Y-97592757D01*
X119324176Y-97996077D01*
X119270138Y-98126215D01*
X119217243Y-97998200D01*
X118813923Y-97594176D01*
X118699232Y-97546552D01*
X118754005Y-97523864D01*
X118828139Y-97277745D01*
X118000000Y-96449605D01*
X117171861Y-97277745D01*
X117245995Y-97523864D01*
X117304254Y-97544805D01*
X117188200Y-97592757D01*
X116784176Y-97996077D01*
X116565250Y-98523309D01*
X116564752Y-99094187D01*
X116656403Y-99316000D01*
X111960802Y-99316000D01*
X111793256Y-99148454D01*
X111814750Y-99096691D01*
X111815248Y-98525813D01*
X111597243Y-97998200D01*
X111193923Y-97594176D01*
X111063785Y-97540138D01*
X111191800Y-97487243D01*
X111595824Y-97083923D01*
X111814750Y-96556691D01*
X111815189Y-96053223D01*
X116553035Y-96053223D01*
X116580222Y-96623454D01*
X116746136Y-97024005D01*
X116992255Y-97098139D01*
X117820395Y-96270000D01*
X118179605Y-96270000D01*
X119007745Y-97098139D01*
X119253864Y-97024005D01*
X119268858Y-96982291D01*
X119286136Y-97024005D01*
X119532255Y-97098139D01*
X120360395Y-96270000D01*
X120719605Y-96270000D01*
X121547745Y-97098139D01*
X121793864Y-97024005D01*
X121986965Y-96486777D01*
X121959778Y-95916546D01*
X121793864Y-95515995D01*
X121547745Y-95441861D01*
X120719605Y-96270000D01*
X120360395Y-96270000D01*
X119532255Y-95441861D01*
X119286136Y-95515995D01*
X119271142Y-95557709D01*
X119253864Y-95515995D01*
X119007745Y-95441861D01*
X118179605Y-96270000D01*
X117820395Y-96270000D01*
X116992255Y-95441861D01*
X116746136Y-95515995D01*
X116553035Y-96053223D01*
X111815189Y-96053223D01*
X111815248Y-95985813D01*
X111597243Y-95458200D01*
X111193923Y-95054176D01*
X111063785Y-95000138D01*
X111191800Y-94947243D01*
X111595824Y-94543923D01*
X111814750Y-94016691D01*
X111814752Y-94014187D01*
X116564752Y-94014187D01*
X116782757Y-94541800D01*
X117186077Y-94945824D01*
X117300768Y-94993448D01*
X117245995Y-95016136D01*
X117171861Y-95262255D01*
X118000000Y-96090395D01*
X118828139Y-95262255D01*
X118754005Y-95016136D01*
X118695746Y-94995195D01*
X118811800Y-94947243D01*
X119215824Y-94543923D01*
X119269862Y-94413785D01*
X119322757Y-94541800D01*
X119726077Y-94945824D01*
X119840768Y-94993448D01*
X119785995Y-95016136D01*
X119711861Y-95262255D01*
X120540000Y-96090395D01*
X121368139Y-95262255D01*
X121294005Y-95016136D01*
X121235746Y-94995195D01*
X121351800Y-94947243D01*
X121755824Y-94543923D01*
X121974750Y-94016691D01*
X121975248Y-93445813D01*
X121757243Y-92918200D01*
X121353923Y-92514176D01*
X120826691Y-92295250D01*
X120255813Y-92294752D01*
X119728200Y-92512757D01*
X119324176Y-92916077D01*
X119270138Y-93046215D01*
X119217243Y-92918200D01*
X118813923Y-92514176D01*
X118286691Y-92295250D01*
X117715813Y-92294752D01*
X117188200Y-92512757D01*
X116784176Y-92916077D01*
X116565250Y-93443309D01*
X116564752Y-94014187D01*
X111814752Y-94014187D01*
X111815248Y-93445813D01*
X111597243Y-92918200D01*
X111193923Y-92514176D01*
X111063785Y-92460138D01*
X111191800Y-92407243D01*
X111595824Y-92003923D01*
X111814750Y-91476691D01*
X111815248Y-90905813D01*
X111597243Y-90378200D01*
X111193923Y-89974176D01*
X111063785Y-89920138D01*
X111191800Y-89867243D01*
X111595824Y-89463923D01*
X111814750Y-88936691D01*
X111815248Y-88365813D01*
X111597243Y-87838200D01*
X111193923Y-87434176D01*
X111063785Y-87380138D01*
X111191800Y-87327243D01*
X111595824Y-86923923D01*
X111814750Y-86396691D01*
X111815248Y-85825813D01*
X111597243Y-85298200D01*
X111193923Y-84894176D01*
X111063785Y-84840138D01*
X111191800Y-84787243D01*
X111595824Y-84383923D01*
X111814750Y-83856691D01*
X111815248Y-83285813D01*
X111597243Y-82758200D01*
X111193923Y-82354176D01*
X111063785Y-82300138D01*
X111191800Y-82247243D01*
X111595824Y-81843923D01*
X111814750Y-81316691D01*
X111815248Y-80745813D01*
X111597243Y-80218200D01*
X111304554Y-79925000D01*
X111306310Y-79925000D01*
X111539699Y-79828327D01*
X111718327Y-79649698D01*
X111815000Y-79416309D01*
X111815000Y-78775750D01*
X111656250Y-78617000D01*
X110507000Y-78617000D01*
X110507000Y-78637000D01*
X110253000Y-78637000D01*
X110253000Y-78617000D01*
X109103750Y-78617000D01*
X108945000Y-78775750D01*
X108945000Y-79416309D01*
X109041673Y-79649698D01*
X109220301Y-79828327D01*
X109453690Y-79925000D01*
X109455761Y-79925000D01*
X109164176Y-80216077D01*
X108945250Y-80743309D01*
X108944752Y-81314187D01*
X106553000Y-81314187D01*
X106553000Y-77563691D01*
X108945000Y-77563691D01*
X108945000Y-78204250D01*
X109103750Y-78363000D01*
X110253000Y-78363000D01*
X110253000Y-77213750D01*
X110507000Y-77213750D01*
X110507000Y-78363000D01*
X111656250Y-78363000D01*
X111815000Y-78204250D01*
X111815000Y-77563691D01*
X111718327Y-77330302D01*
X111539699Y-77151673D01*
X111306310Y-77055000D01*
X110665750Y-77055000D01*
X110507000Y-77213750D01*
X110253000Y-77213750D01*
X110094250Y-77055000D01*
X109453690Y-77055000D01*
X109220301Y-77151673D01*
X109041673Y-77330302D01*
X108945000Y-77563691D01*
X106553000Y-77563691D01*
X106553000Y-76327000D01*
X168021000Y-76327000D01*
X168021000Y-143129000D01*
M02*
