G04 #@! TF.FileFunction,Copper,L1,Top,Signal*
%FSLAX46Y46*%
G04 Gerber Fmt 4.6, Leading zero omitted, Abs format (unit mm)*
G04 Created by KiCad (PCBNEW 4.0.5) date Saturday, 14 January 2017 'PMt' 15:43:45*
%MOMM*%
%LPD*%
G01*
G04 APERTURE LIST*
%ADD10C,0.100000*%
%ADD11O,1.998980X1.998980*%
%ADD12R,1.998980X1.998980*%
%ADD13R,1.700000X1.700000*%
%ADD14O,1.700000X1.700000*%
%ADD15C,1.600000*%
%ADD16R,1.600000X1.600000*%
%ADD17C,1.524000*%
%ADD18C,0.250000*%
%ADD19C,0.254000*%
G04 APERTURE END LIST*
D10*
D11*
X158496000Y-77978000D03*
D12*
X155956000Y-77978000D03*
D13*
X132080000Y-78740000D03*
D14*
X134620000Y-78740000D03*
D13*
X156210000Y-86360000D03*
D14*
X158750000Y-86360000D03*
X156210000Y-88900000D03*
X158750000Y-88900000D03*
X156210000Y-91440000D03*
X158750000Y-91440000D03*
X156210000Y-93980000D03*
X158750000Y-93980000D03*
X156210000Y-96520000D03*
X158750000Y-96520000D03*
X156210000Y-99060000D03*
X158750000Y-99060000D03*
X156210000Y-101600000D03*
X158750000Y-101600000D03*
X156210000Y-104140000D03*
X158750000Y-104140000D03*
D15*
X118000000Y-111510000D03*
X120540000Y-111510000D03*
X123080000Y-111510000D03*
X125620000Y-111510000D03*
X115460000Y-111510000D03*
X112920000Y-111510000D03*
X110380000Y-111510000D03*
X125620000Y-108970000D03*
X125620000Y-106430000D03*
X125620000Y-103890000D03*
X125620000Y-101350000D03*
X125620000Y-98810000D03*
X125620000Y-96270000D03*
X125620000Y-93730000D03*
X125620000Y-91190000D03*
X125620000Y-88650000D03*
X125620000Y-86110000D03*
X125620000Y-83570000D03*
X125620000Y-81030000D03*
X125620000Y-78490000D03*
X123080000Y-81030000D03*
X123080000Y-86110000D03*
X123080000Y-88650000D03*
X123080000Y-91190000D03*
X110380000Y-108970000D03*
X110380000Y-106430000D03*
X110380000Y-103890000D03*
X110380000Y-101350000D03*
X110380000Y-98810000D03*
X110380000Y-96270000D03*
X110380000Y-93730000D03*
X110380000Y-91190000D03*
X110380000Y-88650000D03*
X110380000Y-86110000D03*
X110380000Y-83570000D03*
X110380000Y-81030000D03*
D16*
X110380000Y-78490000D03*
D15*
X118000000Y-93730000D03*
X118000000Y-96270000D03*
X118000000Y-98810000D03*
X118000000Y-101350000D03*
X118000000Y-103890000D03*
X118000000Y-106430000D03*
X118000000Y-108970000D03*
X120540000Y-108970000D03*
X120540000Y-106430000D03*
X120540000Y-103890000D03*
X120540000Y-101350000D03*
X120540000Y-98810000D03*
X120540000Y-96270000D03*
X120540000Y-93730000D03*
D17*
X147320000Y-112522000D03*
X147320000Y-115062000D03*
X147320000Y-117602000D03*
X147320000Y-120142000D03*
X147320000Y-122682000D03*
X147320000Y-125222000D03*
X147320000Y-127762000D03*
X147320000Y-130302000D03*
X147320000Y-132842000D03*
X147320000Y-135382000D03*
X134620000Y-112522000D03*
X134620000Y-115062000D03*
X134620000Y-117602000D03*
X134620000Y-120142000D03*
X134620000Y-122682000D03*
X134620000Y-125222000D03*
X134620000Y-127762000D03*
X134620000Y-130302000D03*
X134620000Y-132842000D03*
X134620000Y-135382000D03*
X147320000Y-83566000D03*
X147320000Y-86106000D03*
X147320000Y-88646000D03*
X147320000Y-91186000D03*
X147320000Y-93726000D03*
X147320000Y-96266000D03*
X147320000Y-98806000D03*
X147320000Y-101346000D03*
X147320000Y-103886000D03*
X147320000Y-106426000D03*
X134620000Y-83566000D03*
X134620000Y-86106000D03*
X134620000Y-88646000D03*
X134620000Y-91186000D03*
X134620000Y-93726000D03*
X134620000Y-96266000D03*
X134620000Y-98806000D03*
X134620000Y-101346000D03*
X134620000Y-103886000D03*
X134620000Y-106426000D03*
D18*
X134620000Y-103886000D02*
X131826000Y-103886000D01*
X132080000Y-103886000D02*
X131826000Y-103886000D01*
X131826000Y-103886000D02*
X131318000Y-103886000D01*
X131318000Y-103886000D02*
X130048000Y-105156000D01*
X130048000Y-105156000D02*
X111646000Y-105156000D01*
X111646000Y-105156000D02*
X110380000Y-103890000D01*
X134620000Y-101346000D02*
X132080000Y-101346000D01*
X130810000Y-102616000D02*
X132080000Y-101346000D01*
X111760000Y-102616000D02*
X130810000Y-102616000D01*
X111760000Y-102616000D02*
X110494000Y-101350000D01*
X110380000Y-101350000D02*
X110494000Y-101350000D01*
X134620000Y-98806000D02*
X131826000Y-98806000D01*
X111646000Y-100076000D02*
X110380000Y-98810000D01*
X130302000Y-100076000D02*
X111646000Y-100076000D01*
X131572000Y-98806000D02*
X130302000Y-100076000D01*
X132080000Y-98806000D02*
X131826000Y-98806000D01*
X131826000Y-98806000D02*
X131572000Y-98806000D01*
D19*
G36*
X168021000Y-143129000D02*
X128397000Y-143129000D01*
X128397000Y-125730000D01*
X128386994Y-125680590D01*
X128362651Y-125643139D01*
X124587000Y-121615778D01*
X124587000Y-115570000D01*
X124576994Y-115520590D01*
X124548553Y-115478965D01*
X124506159Y-115451685D01*
X124461789Y-115443013D01*
X106553000Y-115190777D01*
X106553000Y-81314187D01*
X108944752Y-81314187D01*
X109162757Y-81841800D01*
X109566077Y-82245824D01*
X109696215Y-82299862D01*
X109568200Y-82352757D01*
X109164176Y-82756077D01*
X108945250Y-83283309D01*
X108944752Y-83854187D01*
X109162757Y-84381800D01*
X109566077Y-84785824D01*
X109696215Y-84839862D01*
X109568200Y-84892757D01*
X109164176Y-85296077D01*
X108945250Y-85823309D01*
X108944752Y-86394187D01*
X109162757Y-86921800D01*
X109566077Y-87325824D01*
X109696215Y-87379862D01*
X109568200Y-87432757D01*
X109164176Y-87836077D01*
X108945250Y-88363309D01*
X108944752Y-88934187D01*
X109162757Y-89461800D01*
X109566077Y-89865824D01*
X109696215Y-89919862D01*
X109568200Y-89972757D01*
X109164176Y-90376077D01*
X108945250Y-90903309D01*
X108944752Y-91474187D01*
X109162757Y-92001800D01*
X109566077Y-92405824D01*
X109696215Y-92459862D01*
X109568200Y-92512757D01*
X109164176Y-92916077D01*
X108945250Y-93443309D01*
X108944752Y-94014187D01*
X109162757Y-94541800D01*
X109566077Y-94945824D01*
X109696215Y-94999862D01*
X109568200Y-95052757D01*
X109164176Y-95456077D01*
X108945250Y-95983309D01*
X108944752Y-96554187D01*
X109162757Y-97081800D01*
X109566077Y-97485824D01*
X109696215Y-97539862D01*
X109568200Y-97592757D01*
X109164176Y-97996077D01*
X108945250Y-98523309D01*
X108944752Y-99094187D01*
X109162757Y-99621800D01*
X109566077Y-100025824D01*
X109696215Y-100079862D01*
X109568200Y-100132757D01*
X109164176Y-100536077D01*
X108945250Y-101063309D01*
X108944752Y-101634187D01*
X109162757Y-102161800D01*
X109566077Y-102565824D01*
X109696215Y-102619862D01*
X109568200Y-102672757D01*
X109164176Y-103076077D01*
X108945250Y-103603309D01*
X108944752Y-104174187D01*
X109162757Y-104701800D01*
X109566077Y-105105824D01*
X109696215Y-105159862D01*
X109568200Y-105212757D01*
X109164176Y-105616077D01*
X108945250Y-106143309D01*
X108944752Y-106714187D01*
X109162757Y-107241800D01*
X109566077Y-107645824D01*
X109696215Y-107699862D01*
X109568200Y-107752757D01*
X109164176Y-108156077D01*
X108945250Y-108683309D01*
X108944752Y-109254187D01*
X109162757Y-109781800D01*
X109566077Y-110185824D01*
X109696215Y-110239862D01*
X109568200Y-110292757D01*
X109164176Y-110696077D01*
X108945250Y-111223309D01*
X108944752Y-111794187D01*
X109162757Y-112321800D01*
X109566077Y-112725824D01*
X110093309Y-112944750D01*
X110664187Y-112945248D01*
X111191800Y-112727243D01*
X111595824Y-112323923D01*
X111649862Y-112193785D01*
X111702757Y-112321800D01*
X112106077Y-112725824D01*
X112633309Y-112944750D01*
X113204187Y-112945248D01*
X113731800Y-112727243D01*
X114135824Y-112323923D01*
X114189862Y-112193785D01*
X114242757Y-112321800D01*
X114646077Y-112725824D01*
X115173309Y-112944750D01*
X115744187Y-112945248D01*
X116271800Y-112727243D01*
X116481663Y-112517745D01*
X117171861Y-112517745D01*
X117245995Y-112763864D01*
X117783223Y-112956965D01*
X118353454Y-112929778D01*
X118754005Y-112763864D01*
X118828139Y-112517745D01*
X118000000Y-111689605D01*
X117171861Y-112517745D01*
X116481663Y-112517745D01*
X116675824Y-112323923D01*
X116723448Y-112209232D01*
X116746136Y-112264005D01*
X116992255Y-112338139D01*
X117820395Y-111510000D01*
X116992255Y-110681861D01*
X116746136Y-110755995D01*
X116725195Y-110814254D01*
X116677243Y-110698200D01*
X116273923Y-110294176D01*
X115746691Y-110075250D01*
X115175813Y-110074752D01*
X114648200Y-110292757D01*
X114244176Y-110696077D01*
X114190138Y-110826215D01*
X114137243Y-110698200D01*
X113733923Y-110294176D01*
X113206691Y-110075250D01*
X112635813Y-110074752D01*
X112108200Y-110292757D01*
X111704176Y-110696077D01*
X111650138Y-110826215D01*
X111597243Y-110698200D01*
X111193923Y-110294176D01*
X111063785Y-110240138D01*
X111191800Y-110187243D01*
X111595824Y-109783923D01*
X111814750Y-109256691D01*
X111815248Y-108685813D01*
X111597243Y-108158200D01*
X111193923Y-107754176D01*
X111063785Y-107700138D01*
X111191800Y-107647243D01*
X111595824Y-107243923D01*
X111814750Y-106716691D01*
X111815248Y-106145813D01*
X111720291Y-105916000D01*
X116659637Y-105916000D01*
X116565250Y-106143309D01*
X116564752Y-106714187D01*
X116782757Y-107241800D01*
X117186077Y-107645824D01*
X117316215Y-107699862D01*
X117188200Y-107752757D01*
X116784176Y-108156077D01*
X116565250Y-108683309D01*
X116564752Y-109254187D01*
X116782757Y-109781800D01*
X117186077Y-110185824D01*
X117300768Y-110233448D01*
X117245995Y-110256136D01*
X117171861Y-110502255D01*
X118000000Y-111330395D01*
X118828139Y-110502255D01*
X118754005Y-110256136D01*
X118695746Y-110235195D01*
X118811800Y-110187243D01*
X119215824Y-109783923D01*
X119269862Y-109653785D01*
X119322757Y-109781800D01*
X119726077Y-110185824D01*
X119856215Y-110239862D01*
X119728200Y-110292757D01*
X119324176Y-110696077D01*
X119276552Y-110810768D01*
X119253864Y-110755995D01*
X119007745Y-110681861D01*
X118179605Y-111510000D01*
X119007745Y-112338139D01*
X119253864Y-112264005D01*
X119274805Y-112205746D01*
X119322757Y-112321800D01*
X119726077Y-112725824D01*
X120253309Y-112944750D01*
X120824187Y-112945248D01*
X121351800Y-112727243D01*
X121755824Y-112323923D01*
X121809862Y-112193785D01*
X121862757Y-112321800D01*
X122266077Y-112725824D01*
X122793309Y-112944750D01*
X123364187Y-112945248D01*
X123891800Y-112727243D01*
X124295824Y-112323923D01*
X124349862Y-112193785D01*
X124402757Y-112321800D01*
X124806077Y-112725824D01*
X125333309Y-112944750D01*
X125904187Y-112945248D01*
X126258955Y-112798661D01*
X133222758Y-112798661D01*
X133434990Y-113312303D01*
X133827630Y-113705629D01*
X134035512Y-113791949D01*
X133829697Y-113876990D01*
X133436371Y-114269630D01*
X133223243Y-114782900D01*
X133222758Y-115338661D01*
X133434990Y-115852303D01*
X133827630Y-116245629D01*
X134035512Y-116331949D01*
X133829697Y-116416990D01*
X133436371Y-116809630D01*
X133223243Y-117322900D01*
X133222758Y-117878661D01*
X133434990Y-118392303D01*
X133827630Y-118785629D01*
X134035512Y-118871949D01*
X133829697Y-118956990D01*
X133436371Y-119349630D01*
X133223243Y-119862900D01*
X133222758Y-120418661D01*
X133434990Y-120932303D01*
X133827630Y-121325629D01*
X134035512Y-121411949D01*
X133829697Y-121496990D01*
X133436371Y-121889630D01*
X133223243Y-122402900D01*
X133222758Y-122958661D01*
X133434990Y-123472303D01*
X133827630Y-123865629D01*
X134035512Y-123951949D01*
X133829697Y-124036990D01*
X133436371Y-124429630D01*
X133223243Y-124942900D01*
X133222758Y-125498661D01*
X133434990Y-126012303D01*
X133827630Y-126405629D01*
X134035512Y-126491949D01*
X133829697Y-126576990D01*
X133436371Y-126969630D01*
X133223243Y-127482900D01*
X133222758Y-128038661D01*
X133434990Y-128552303D01*
X133827630Y-128945629D01*
X134035512Y-129031949D01*
X133829697Y-129116990D01*
X133436371Y-129509630D01*
X133223243Y-130022900D01*
X133222758Y-130578661D01*
X133434990Y-131092303D01*
X133827630Y-131485629D01*
X134035512Y-131571949D01*
X133829697Y-131656990D01*
X133436371Y-132049630D01*
X133223243Y-132562900D01*
X133222758Y-133118661D01*
X133434990Y-133632303D01*
X133827630Y-134025629D01*
X134035512Y-134111949D01*
X133829697Y-134196990D01*
X133436371Y-134589630D01*
X133223243Y-135102900D01*
X133222758Y-135658661D01*
X133434990Y-136172303D01*
X133827630Y-136565629D01*
X134340900Y-136778757D01*
X134896661Y-136779242D01*
X135410303Y-136567010D01*
X135615457Y-136362213D01*
X146519392Y-136362213D01*
X146588857Y-136604397D01*
X147112302Y-136791144D01*
X147667368Y-136763362D01*
X148051143Y-136604397D01*
X148120608Y-136362213D01*
X147320000Y-135561605D01*
X146519392Y-136362213D01*
X135615457Y-136362213D01*
X135803629Y-136174370D01*
X136016757Y-135661100D01*
X136017181Y-135174302D01*
X145910856Y-135174302D01*
X145938638Y-135729368D01*
X146097603Y-136113143D01*
X146339787Y-136182608D01*
X147140395Y-135382000D01*
X147499605Y-135382000D01*
X148300213Y-136182608D01*
X148542397Y-136113143D01*
X148729144Y-135589698D01*
X148701362Y-135034632D01*
X148542397Y-134650857D01*
X148300213Y-134581392D01*
X147499605Y-135382000D01*
X147140395Y-135382000D01*
X146339787Y-134581392D01*
X146097603Y-134650857D01*
X145910856Y-135174302D01*
X136017181Y-135174302D01*
X136017242Y-135105339D01*
X135805010Y-134591697D01*
X135412370Y-134198371D01*
X135204488Y-134112051D01*
X135410303Y-134027010D01*
X135803629Y-133634370D01*
X136016757Y-133121100D01*
X136017242Y-132565339D01*
X135805010Y-132051697D01*
X135412370Y-131658371D01*
X135204488Y-131572051D01*
X135410303Y-131487010D01*
X135803629Y-131094370D01*
X136016757Y-130581100D01*
X136017242Y-130025339D01*
X135805010Y-129511697D01*
X135412370Y-129118371D01*
X135204488Y-129032051D01*
X135410303Y-128947010D01*
X135803629Y-128554370D01*
X136016757Y-128041100D01*
X136017242Y-127485339D01*
X135805010Y-126971697D01*
X135412370Y-126578371D01*
X135204488Y-126492051D01*
X135410303Y-126407010D01*
X135803629Y-126014370D01*
X136016757Y-125501100D01*
X136017242Y-124945339D01*
X135805010Y-124431697D01*
X135412370Y-124038371D01*
X135204488Y-123952051D01*
X135410303Y-123867010D01*
X135803629Y-123474370D01*
X136016757Y-122961100D01*
X136017242Y-122405339D01*
X135805010Y-121891697D01*
X135412370Y-121498371D01*
X135204488Y-121412051D01*
X135410303Y-121327010D01*
X135803629Y-120934370D01*
X136016757Y-120421100D01*
X136017242Y-119865339D01*
X135805010Y-119351697D01*
X135412370Y-118958371D01*
X135204488Y-118872051D01*
X135410303Y-118787010D01*
X135803629Y-118394370D01*
X136016757Y-117881100D01*
X136017242Y-117325339D01*
X135805010Y-116811697D01*
X135412370Y-116418371D01*
X135204488Y-116332051D01*
X135410303Y-116247010D01*
X135803629Y-115854370D01*
X136016757Y-115341100D01*
X136017242Y-114785339D01*
X135805010Y-114271697D01*
X135412370Y-113878371D01*
X135204488Y-113792051D01*
X135410303Y-113707010D01*
X135803629Y-113314370D01*
X136016757Y-112801100D01*
X136016759Y-112798661D01*
X145922758Y-112798661D01*
X146134990Y-113312303D01*
X146527630Y-113705629D01*
X146735512Y-113791949D01*
X146529697Y-113876990D01*
X146136371Y-114269630D01*
X145923243Y-114782900D01*
X145922758Y-115338661D01*
X146134990Y-115852303D01*
X146527630Y-116245629D01*
X146735512Y-116331949D01*
X146529697Y-116416990D01*
X146136371Y-116809630D01*
X145923243Y-117322900D01*
X145922758Y-117878661D01*
X146134990Y-118392303D01*
X146527630Y-118785629D01*
X146735512Y-118871949D01*
X146529697Y-118956990D01*
X146136371Y-119349630D01*
X145923243Y-119862900D01*
X145922758Y-120418661D01*
X146134990Y-120932303D01*
X146527630Y-121325629D01*
X146735512Y-121411949D01*
X146529697Y-121496990D01*
X146136371Y-121889630D01*
X145923243Y-122402900D01*
X145922758Y-122958661D01*
X146134990Y-123472303D01*
X146527630Y-123865629D01*
X146735512Y-123951949D01*
X146529697Y-124036990D01*
X146136371Y-124429630D01*
X145923243Y-124942900D01*
X145922758Y-125498661D01*
X146134990Y-126012303D01*
X146527630Y-126405629D01*
X146735512Y-126491949D01*
X146529697Y-126576990D01*
X146136371Y-126969630D01*
X145923243Y-127482900D01*
X145922758Y-128038661D01*
X146134990Y-128552303D01*
X146527630Y-128945629D01*
X146735512Y-129031949D01*
X146529697Y-129116990D01*
X146136371Y-129509630D01*
X145923243Y-130022900D01*
X145922758Y-130578661D01*
X146134990Y-131092303D01*
X146527630Y-131485629D01*
X146735512Y-131571949D01*
X146529697Y-131656990D01*
X146136371Y-132049630D01*
X145923243Y-132562900D01*
X145922758Y-133118661D01*
X146134990Y-133632303D01*
X146527630Y-134025629D01*
X146719727Y-134105395D01*
X146588857Y-134159603D01*
X146519392Y-134401787D01*
X147320000Y-135202395D01*
X148120608Y-134401787D01*
X148051143Y-134159603D01*
X147910682Y-134109491D01*
X148110303Y-134027010D01*
X148503629Y-133634370D01*
X148716757Y-133121100D01*
X148717242Y-132565339D01*
X148505010Y-132051697D01*
X148112370Y-131658371D01*
X147904488Y-131572051D01*
X148110303Y-131487010D01*
X148503629Y-131094370D01*
X148716757Y-130581100D01*
X148717242Y-130025339D01*
X148505010Y-129511697D01*
X148112370Y-129118371D01*
X147904488Y-129032051D01*
X148110303Y-128947010D01*
X148503629Y-128554370D01*
X148716757Y-128041100D01*
X148717242Y-127485339D01*
X148505010Y-126971697D01*
X148112370Y-126578371D01*
X147904488Y-126492051D01*
X148110303Y-126407010D01*
X148503629Y-126014370D01*
X148716757Y-125501100D01*
X148717242Y-124945339D01*
X148505010Y-124431697D01*
X148112370Y-124038371D01*
X147904488Y-123952051D01*
X148110303Y-123867010D01*
X148503629Y-123474370D01*
X148716757Y-122961100D01*
X148717242Y-122405339D01*
X148505010Y-121891697D01*
X148112370Y-121498371D01*
X147904488Y-121412051D01*
X148110303Y-121327010D01*
X148503629Y-120934370D01*
X148716757Y-120421100D01*
X148717242Y-119865339D01*
X148505010Y-119351697D01*
X148112370Y-118958371D01*
X147904488Y-118872051D01*
X148110303Y-118787010D01*
X148503629Y-118394370D01*
X148716757Y-117881100D01*
X148717242Y-117325339D01*
X148505010Y-116811697D01*
X148112370Y-116418371D01*
X147904488Y-116332051D01*
X148110303Y-116247010D01*
X148503629Y-115854370D01*
X148716757Y-115341100D01*
X148717242Y-114785339D01*
X148505010Y-114271697D01*
X148112370Y-113878371D01*
X147904488Y-113792051D01*
X148110303Y-113707010D01*
X148503629Y-113314370D01*
X148716757Y-112801100D01*
X148717242Y-112245339D01*
X148505010Y-111731697D01*
X148112370Y-111338371D01*
X147599100Y-111125243D01*
X147043339Y-111124758D01*
X146529697Y-111336990D01*
X146136371Y-111729630D01*
X145923243Y-112242900D01*
X145922758Y-112798661D01*
X136016759Y-112798661D01*
X136017242Y-112245339D01*
X135805010Y-111731697D01*
X135412370Y-111338371D01*
X134899100Y-111125243D01*
X134343339Y-111124758D01*
X133829697Y-111336990D01*
X133436371Y-111729630D01*
X133223243Y-112242900D01*
X133222758Y-112798661D01*
X126258955Y-112798661D01*
X126431800Y-112727243D01*
X126835824Y-112323923D01*
X127054750Y-111796691D01*
X127055248Y-111225813D01*
X126837243Y-110698200D01*
X126433923Y-110294176D01*
X126303785Y-110240138D01*
X126431800Y-110187243D01*
X126835824Y-109783923D01*
X127054750Y-109256691D01*
X127055248Y-108685813D01*
X126837243Y-108158200D01*
X126433923Y-107754176D01*
X126303785Y-107700138D01*
X126431800Y-107647243D01*
X126835824Y-107243923D01*
X127054750Y-106716691D01*
X127055248Y-106145813D01*
X126960291Y-105916000D01*
X130048000Y-105916000D01*
X130338839Y-105858148D01*
X130585401Y-105693401D01*
X131632802Y-104646000D01*
X133422469Y-104646000D01*
X133434990Y-104676303D01*
X133827630Y-105069629D01*
X134035512Y-105155949D01*
X133829697Y-105240990D01*
X133436371Y-105633630D01*
X133223243Y-106146900D01*
X133222758Y-106702661D01*
X133434990Y-107216303D01*
X133827630Y-107609629D01*
X134340900Y-107822757D01*
X134896661Y-107823242D01*
X135410303Y-107611010D01*
X135615457Y-107406213D01*
X146519392Y-107406213D01*
X146588857Y-107648397D01*
X147112302Y-107835144D01*
X147667368Y-107807362D01*
X148051143Y-107648397D01*
X148120608Y-107406213D01*
X147320000Y-106605605D01*
X146519392Y-107406213D01*
X135615457Y-107406213D01*
X135803629Y-107218370D01*
X136016757Y-106705100D01*
X136017181Y-106218302D01*
X145910856Y-106218302D01*
X145938638Y-106773368D01*
X146097603Y-107157143D01*
X146339787Y-107226608D01*
X147140395Y-106426000D01*
X147499605Y-106426000D01*
X148300213Y-107226608D01*
X148542397Y-107157143D01*
X148729144Y-106633698D01*
X148701362Y-106078632D01*
X148542397Y-105694857D01*
X148300213Y-105625392D01*
X147499605Y-106426000D01*
X147140395Y-106426000D01*
X146339787Y-105625392D01*
X146097603Y-105694857D01*
X145910856Y-106218302D01*
X136017181Y-106218302D01*
X136017242Y-106149339D01*
X135805010Y-105635697D01*
X135412370Y-105242371D01*
X135204488Y-105156051D01*
X135410303Y-105071010D01*
X135803629Y-104678370D01*
X136016757Y-104165100D01*
X136017242Y-103609339D01*
X135805010Y-103095697D01*
X135412370Y-102702371D01*
X135204488Y-102616051D01*
X135410303Y-102531010D01*
X135803629Y-102138370D01*
X136016757Y-101625100D01*
X136017242Y-101069339D01*
X135805010Y-100555697D01*
X135412370Y-100162371D01*
X135204488Y-100076051D01*
X135410303Y-99991010D01*
X135803629Y-99598370D01*
X136016757Y-99085100D01*
X136017242Y-98529339D01*
X135805010Y-98015697D01*
X135412370Y-97622371D01*
X135204488Y-97536051D01*
X135410303Y-97451010D01*
X135803629Y-97058370D01*
X136016757Y-96545100D01*
X136017242Y-95989339D01*
X135805010Y-95475697D01*
X135412370Y-95082371D01*
X135204488Y-94996051D01*
X135410303Y-94911010D01*
X135803629Y-94518370D01*
X136016757Y-94005100D01*
X136017242Y-93449339D01*
X135805010Y-92935697D01*
X135412370Y-92542371D01*
X135204488Y-92456051D01*
X135410303Y-92371010D01*
X135803629Y-91978370D01*
X136016757Y-91465100D01*
X136017242Y-90909339D01*
X135805010Y-90395697D01*
X135412370Y-90002371D01*
X135204488Y-89916051D01*
X135410303Y-89831010D01*
X135803629Y-89438370D01*
X136016757Y-88925100D01*
X136017242Y-88369339D01*
X135805010Y-87855697D01*
X135412370Y-87462371D01*
X135204488Y-87376051D01*
X135410303Y-87291010D01*
X135803629Y-86898370D01*
X136016757Y-86385100D01*
X136017242Y-85829339D01*
X135805010Y-85315697D01*
X135412370Y-84922371D01*
X135204488Y-84836051D01*
X135410303Y-84751010D01*
X135803629Y-84358370D01*
X136016757Y-83845100D01*
X136016759Y-83842661D01*
X145922758Y-83842661D01*
X146134990Y-84356303D01*
X146527630Y-84749629D01*
X146735512Y-84835949D01*
X146529697Y-84920990D01*
X146136371Y-85313630D01*
X145923243Y-85826900D01*
X145922758Y-86382661D01*
X146134990Y-86896303D01*
X146527630Y-87289629D01*
X146735512Y-87375949D01*
X146529697Y-87460990D01*
X146136371Y-87853630D01*
X145923243Y-88366900D01*
X145922758Y-88922661D01*
X146134990Y-89436303D01*
X146527630Y-89829629D01*
X146735512Y-89915949D01*
X146529697Y-90000990D01*
X146136371Y-90393630D01*
X145923243Y-90906900D01*
X145922758Y-91462661D01*
X146134990Y-91976303D01*
X146527630Y-92369629D01*
X146735512Y-92455949D01*
X146529697Y-92540990D01*
X146136371Y-92933630D01*
X145923243Y-93446900D01*
X145922758Y-94002661D01*
X146134990Y-94516303D01*
X146527630Y-94909629D01*
X146735512Y-94995949D01*
X146529697Y-95080990D01*
X146136371Y-95473630D01*
X145923243Y-95986900D01*
X145922758Y-96542661D01*
X146134990Y-97056303D01*
X146527630Y-97449629D01*
X146735512Y-97535949D01*
X146529697Y-97620990D01*
X146136371Y-98013630D01*
X145923243Y-98526900D01*
X145922758Y-99082661D01*
X146134990Y-99596303D01*
X146527630Y-99989629D01*
X146735512Y-100075949D01*
X146529697Y-100160990D01*
X146136371Y-100553630D01*
X145923243Y-101066900D01*
X145922758Y-101622661D01*
X146134990Y-102136303D01*
X146527630Y-102529629D01*
X146735512Y-102615949D01*
X146529697Y-102700990D01*
X146136371Y-103093630D01*
X145923243Y-103606900D01*
X145922758Y-104162661D01*
X146134990Y-104676303D01*
X146527630Y-105069629D01*
X146719727Y-105149395D01*
X146588857Y-105203603D01*
X146519392Y-105445787D01*
X147320000Y-106246395D01*
X148120608Y-105445787D01*
X148051143Y-105203603D01*
X147910682Y-105153491D01*
X148110303Y-105071010D01*
X148503629Y-104678370D01*
X148716757Y-104165100D01*
X148717242Y-103609339D01*
X148505010Y-103095697D01*
X148112370Y-102702371D01*
X147904488Y-102616051D01*
X148110303Y-102531010D01*
X148503629Y-102138370D01*
X148716757Y-101625100D01*
X148717242Y-101069339D01*
X148505010Y-100555697D01*
X148112370Y-100162371D01*
X147904488Y-100076051D01*
X148110303Y-99991010D01*
X148503629Y-99598370D01*
X148716757Y-99085100D01*
X148717242Y-98529339D01*
X148505010Y-98015697D01*
X148112370Y-97622371D01*
X147904488Y-97536051D01*
X148110303Y-97451010D01*
X148503629Y-97058370D01*
X148716757Y-96545100D01*
X148717242Y-95989339D01*
X148505010Y-95475697D01*
X148112370Y-95082371D01*
X147904488Y-94996051D01*
X148110303Y-94911010D01*
X148503629Y-94518370D01*
X148716757Y-94005100D01*
X148717242Y-93449339D01*
X148505010Y-92935697D01*
X148112370Y-92542371D01*
X147904488Y-92456051D01*
X148110303Y-92371010D01*
X148503629Y-91978370D01*
X148716757Y-91465100D01*
X148717242Y-90909339D01*
X148505010Y-90395697D01*
X148112370Y-90002371D01*
X147904488Y-89916051D01*
X148110303Y-89831010D01*
X148503629Y-89438370D01*
X148716757Y-88925100D01*
X148716778Y-88900000D01*
X154695907Y-88900000D01*
X154808946Y-89468285D01*
X155130853Y-89950054D01*
X155460026Y-90170000D01*
X155130853Y-90389946D01*
X154808946Y-90871715D01*
X154695907Y-91440000D01*
X154808946Y-92008285D01*
X155130853Y-92490054D01*
X155460026Y-92710000D01*
X155130853Y-92929946D01*
X154808946Y-93411715D01*
X154695907Y-93980000D01*
X154808946Y-94548285D01*
X155130853Y-95030054D01*
X155460026Y-95250000D01*
X155130853Y-95469946D01*
X154808946Y-95951715D01*
X154695907Y-96520000D01*
X154808946Y-97088285D01*
X155130853Y-97570054D01*
X155460026Y-97790000D01*
X155130853Y-98009946D01*
X154808946Y-98491715D01*
X154695907Y-99060000D01*
X154808946Y-99628285D01*
X155130853Y-100110054D01*
X155460026Y-100330000D01*
X155130853Y-100549946D01*
X154808946Y-101031715D01*
X154695907Y-101600000D01*
X154808946Y-102168285D01*
X155130853Y-102650054D01*
X155460026Y-102870000D01*
X155130853Y-103089946D01*
X154808946Y-103571715D01*
X154695907Y-104140000D01*
X154808946Y-104708285D01*
X155130853Y-105190054D01*
X155612622Y-105511961D01*
X156180907Y-105625000D01*
X156239093Y-105625000D01*
X156807378Y-105511961D01*
X157289147Y-105190054D01*
X157480000Y-104904422D01*
X157670853Y-105190054D01*
X158152622Y-105511961D01*
X158720907Y-105625000D01*
X158779093Y-105625000D01*
X159347378Y-105511961D01*
X159829147Y-105190054D01*
X160151054Y-104708285D01*
X160264093Y-104140000D01*
X160151054Y-103571715D01*
X159829147Y-103089946D01*
X159499974Y-102870000D01*
X159829147Y-102650054D01*
X160151054Y-102168285D01*
X160264093Y-101600000D01*
X160151054Y-101031715D01*
X159829147Y-100549946D01*
X159499974Y-100330000D01*
X159829147Y-100110054D01*
X160151054Y-99628285D01*
X160264093Y-99060000D01*
X160151054Y-98491715D01*
X159829147Y-98009946D01*
X159499974Y-97790000D01*
X159829147Y-97570054D01*
X160151054Y-97088285D01*
X160264093Y-96520000D01*
X160151054Y-95951715D01*
X159829147Y-95469946D01*
X159499974Y-95250000D01*
X159829147Y-95030054D01*
X160151054Y-94548285D01*
X160264093Y-93980000D01*
X160151054Y-93411715D01*
X159829147Y-92929946D01*
X159499974Y-92710000D01*
X159829147Y-92490054D01*
X160151054Y-92008285D01*
X160264093Y-91440000D01*
X160151054Y-90871715D01*
X159829147Y-90389946D01*
X159499974Y-90170000D01*
X159829147Y-89950054D01*
X160151054Y-89468285D01*
X160264093Y-88900000D01*
X160151054Y-88331715D01*
X159829147Y-87849946D01*
X159499974Y-87630000D01*
X159829147Y-87410054D01*
X160151054Y-86928285D01*
X160264093Y-86360000D01*
X160151054Y-85791715D01*
X159829147Y-85309946D01*
X159347378Y-84988039D01*
X158779093Y-84875000D01*
X158720907Y-84875000D01*
X158152622Y-84988039D01*
X157670853Y-85309946D01*
X157670029Y-85311179D01*
X157663162Y-85274683D01*
X157524090Y-85058559D01*
X157311890Y-84913569D01*
X157060000Y-84862560D01*
X155360000Y-84862560D01*
X155124683Y-84906838D01*
X154908559Y-85045910D01*
X154763569Y-85258110D01*
X154712560Y-85510000D01*
X154712560Y-87210000D01*
X154756838Y-87445317D01*
X154895910Y-87661441D01*
X155108110Y-87806431D01*
X155175541Y-87820086D01*
X155130853Y-87849946D01*
X154808946Y-88331715D01*
X154695907Y-88900000D01*
X148716778Y-88900000D01*
X148717242Y-88369339D01*
X148505010Y-87855697D01*
X148112370Y-87462371D01*
X147904488Y-87376051D01*
X148110303Y-87291010D01*
X148503629Y-86898370D01*
X148716757Y-86385100D01*
X148717242Y-85829339D01*
X148505010Y-85315697D01*
X148112370Y-84922371D01*
X147904488Y-84836051D01*
X148110303Y-84751010D01*
X148503629Y-84358370D01*
X148716757Y-83845100D01*
X148717242Y-83289339D01*
X148505010Y-82775697D01*
X148112370Y-82382371D01*
X147599100Y-82169243D01*
X147043339Y-82168758D01*
X146529697Y-82380990D01*
X146136371Y-82773630D01*
X145923243Y-83286900D01*
X145922758Y-83842661D01*
X136016759Y-83842661D01*
X136017242Y-83289339D01*
X135805010Y-82775697D01*
X135412370Y-82382371D01*
X134899100Y-82169243D01*
X134343339Y-82168758D01*
X133829697Y-82380990D01*
X133436371Y-82773630D01*
X133223243Y-83286900D01*
X133222758Y-83842661D01*
X133434990Y-84356303D01*
X133827630Y-84749629D01*
X134035512Y-84835949D01*
X133829697Y-84920990D01*
X133436371Y-85313630D01*
X133223243Y-85826900D01*
X133222758Y-86382661D01*
X133434990Y-86896303D01*
X133827630Y-87289629D01*
X134035512Y-87375949D01*
X133829697Y-87460990D01*
X133436371Y-87853630D01*
X133223243Y-88366900D01*
X133222758Y-88922661D01*
X133434990Y-89436303D01*
X133827630Y-89829629D01*
X134035512Y-89915949D01*
X133829697Y-90000990D01*
X133436371Y-90393630D01*
X133223243Y-90906900D01*
X133222758Y-91462661D01*
X133434990Y-91976303D01*
X133827630Y-92369629D01*
X134035512Y-92455949D01*
X133829697Y-92540990D01*
X133436371Y-92933630D01*
X133223243Y-93446900D01*
X133222758Y-94002661D01*
X133434990Y-94516303D01*
X133827630Y-94909629D01*
X134035512Y-94995949D01*
X133829697Y-95080990D01*
X133436371Y-95473630D01*
X133223243Y-95986900D01*
X133222758Y-96542661D01*
X133434990Y-97056303D01*
X133827630Y-97449629D01*
X134035512Y-97535949D01*
X133829697Y-97620990D01*
X133436371Y-98013630D01*
X133422930Y-98046000D01*
X131572000Y-98046000D01*
X131281160Y-98103852D01*
X131034599Y-98268599D01*
X129987198Y-99316000D01*
X126963685Y-99316000D01*
X127054750Y-99096691D01*
X127055248Y-98525813D01*
X126837243Y-97998200D01*
X126433923Y-97594176D01*
X126303785Y-97540138D01*
X126431800Y-97487243D01*
X126835824Y-97083923D01*
X127054750Y-96556691D01*
X127055248Y-95985813D01*
X126837243Y-95458200D01*
X126433923Y-95054176D01*
X126303785Y-95000138D01*
X126431800Y-94947243D01*
X126835824Y-94543923D01*
X127054750Y-94016691D01*
X127055248Y-93445813D01*
X126837243Y-92918200D01*
X126433923Y-92514176D01*
X126303785Y-92460138D01*
X126431800Y-92407243D01*
X126835824Y-92003923D01*
X127054750Y-91476691D01*
X127055248Y-90905813D01*
X126837243Y-90378200D01*
X126433923Y-89974176D01*
X126303785Y-89920138D01*
X126431800Y-89867243D01*
X126835824Y-89463923D01*
X127054750Y-88936691D01*
X127055248Y-88365813D01*
X126837243Y-87838200D01*
X126433923Y-87434176D01*
X126303785Y-87380138D01*
X126431800Y-87327243D01*
X126835824Y-86923923D01*
X127054750Y-86396691D01*
X127055248Y-85825813D01*
X126837243Y-85298200D01*
X126433923Y-84894176D01*
X126303785Y-84840138D01*
X126431800Y-84787243D01*
X126835824Y-84383923D01*
X127054750Y-83856691D01*
X127055248Y-83285813D01*
X126837243Y-82758200D01*
X126433923Y-82354176D01*
X126303785Y-82300138D01*
X126431800Y-82247243D01*
X126835824Y-81843923D01*
X127054750Y-81316691D01*
X127055248Y-80745813D01*
X126837243Y-80218200D01*
X126433923Y-79814176D01*
X126303785Y-79760138D01*
X126431800Y-79707243D01*
X126835824Y-79303923D01*
X127054750Y-78776691D01*
X127055248Y-78205813D01*
X126924757Y-77890000D01*
X130582560Y-77890000D01*
X130582560Y-79590000D01*
X130626838Y-79825317D01*
X130765910Y-80041441D01*
X130978110Y-80186431D01*
X131230000Y-80237440D01*
X132930000Y-80237440D01*
X133165317Y-80193162D01*
X133381441Y-80054090D01*
X133526431Y-79841890D01*
X133540086Y-79774459D01*
X133569946Y-79819147D01*
X134051715Y-80141054D01*
X134620000Y-80254093D01*
X135188285Y-80141054D01*
X135670054Y-79819147D01*
X135991961Y-79337378D01*
X136105000Y-78769093D01*
X136105000Y-78710907D01*
X135991961Y-78142622D01*
X135670054Y-77660853D01*
X135188285Y-77338946D01*
X134620000Y-77225907D01*
X134051715Y-77338946D01*
X133569946Y-77660853D01*
X133542150Y-77702452D01*
X133533162Y-77654683D01*
X133394090Y-77438559D01*
X133181890Y-77293569D01*
X132930000Y-77242560D01*
X131230000Y-77242560D01*
X130994683Y-77286838D01*
X130778559Y-77425910D01*
X130633569Y-77638110D01*
X130582560Y-77890000D01*
X126924757Y-77890000D01*
X126837243Y-77678200D01*
X126433923Y-77274176D01*
X125906691Y-77055250D01*
X125335813Y-77054752D01*
X124808200Y-77272757D01*
X124404176Y-77676077D01*
X124185250Y-78203309D01*
X124184752Y-78774187D01*
X124402757Y-79301800D01*
X124806077Y-79705824D01*
X124936215Y-79759862D01*
X124808200Y-79812757D01*
X124404176Y-80216077D01*
X124350138Y-80346215D01*
X124297243Y-80218200D01*
X123893923Y-79814176D01*
X123366691Y-79595250D01*
X122795813Y-79594752D01*
X122268200Y-79812757D01*
X121864176Y-80216077D01*
X121645250Y-80743309D01*
X121644752Y-81314187D01*
X121862757Y-81841800D01*
X122266077Y-82245824D01*
X122793309Y-82464750D01*
X123364187Y-82465248D01*
X123891800Y-82247243D01*
X124295824Y-81843923D01*
X124349862Y-81713785D01*
X124402757Y-81841800D01*
X124806077Y-82245824D01*
X124936215Y-82299862D01*
X124808200Y-82352757D01*
X124404176Y-82756077D01*
X124185250Y-83283309D01*
X124184752Y-83854187D01*
X124402757Y-84381800D01*
X124806077Y-84785824D01*
X124936215Y-84839862D01*
X124808200Y-84892757D01*
X124404176Y-85296077D01*
X124350138Y-85426215D01*
X124297243Y-85298200D01*
X123893923Y-84894176D01*
X123366691Y-84675250D01*
X122795813Y-84674752D01*
X122268200Y-84892757D01*
X121864176Y-85296077D01*
X121645250Y-85823309D01*
X121644752Y-86394187D01*
X121862757Y-86921800D01*
X122266077Y-87325824D01*
X122396215Y-87379862D01*
X122268200Y-87432757D01*
X121864176Y-87836077D01*
X121645250Y-88363309D01*
X121644752Y-88934187D01*
X121862757Y-89461800D01*
X122266077Y-89865824D01*
X122396215Y-89919862D01*
X122268200Y-89972757D01*
X121864176Y-90376077D01*
X121645250Y-90903309D01*
X121644752Y-91474187D01*
X121862757Y-92001800D01*
X122266077Y-92405824D01*
X122793309Y-92624750D01*
X123364187Y-92625248D01*
X123891800Y-92407243D01*
X124295824Y-92003923D01*
X124349862Y-91873785D01*
X124402757Y-92001800D01*
X124806077Y-92405824D01*
X124936215Y-92459862D01*
X124808200Y-92512757D01*
X124404176Y-92916077D01*
X124185250Y-93443309D01*
X124184752Y-94014187D01*
X124402757Y-94541800D01*
X124806077Y-94945824D01*
X124936215Y-94999862D01*
X124808200Y-95052757D01*
X124404176Y-95456077D01*
X124185250Y-95983309D01*
X124184752Y-96554187D01*
X124402757Y-97081800D01*
X124806077Y-97485824D01*
X124936215Y-97539862D01*
X124808200Y-97592757D01*
X124404176Y-97996077D01*
X124185250Y-98523309D01*
X124184752Y-99094187D01*
X124276403Y-99316000D01*
X121883685Y-99316000D01*
X121974750Y-99096691D01*
X121975248Y-98525813D01*
X121757243Y-97998200D01*
X121353923Y-97594176D01*
X121239232Y-97546552D01*
X121294005Y-97523864D01*
X121368139Y-97277745D01*
X120540000Y-96449605D01*
X119711861Y-97277745D01*
X119785995Y-97523864D01*
X119844254Y-97544805D01*
X119728200Y-97592757D01*
X119324176Y-97996077D01*
X119270138Y-98126215D01*
X119217243Y-97998200D01*
X118813923Y-97594176D01*
X118699232Y-97546552D01*
X118754005Y-97523864D01*
X118828139Y-97277745D01*
X118000000Y-96449605D01*
X117171861Y-97277745D01*
X117245995Y-97523864D01*
X117304254Y-97544805D01*
X117188200Y-97592757D01*
X116784176Y-97996077D01*
X116565250Y-98523309D01*
X116564752Y-99094187D01*
X116656403Y-99316000D01*
X111960802Y-99316000D01*
X111793256Y-99148454D01*
X111814750Y-99096691D01*
X111815248Y-98525813D01*
X111597243Y-97998200D01*
X111193923Y-97594176D01*
X111063785Y-97540138D01*
X111191800Y-97487243D01*
X111595824Y-97083923D01*
X111814750Y-96556691D01*
X111815189Y-96053223D01*
X116553035Y-96053223D01*
X116580222Y-96623454D01*
X116746136Y-97024005D01*
X116992255Y-97098139D01*
X117820395Y-96270000D01*
X118179605Y-96270000D01*
X119007745Y-97098139D01*
X119253864Y-97024005D01*
X119268858Y-96982291D01*
X119286136Y-97024005D01*
X119532255Y-97098139D01*
X120360395Y-96270000D01*
X120719605Y-96270000D01*
X121547745Y-97098139D01*
X121793864Y-97024005D01*
X121986965Y-96486777D01*
X121959778Y-95916546D01*
X121793864Y-95515995D01*
X121547745Y-95441861D01*
X120719605Y-96270000D01*
X120360395Y-96270000D01*
X119532255Y-95441861D01*
X119286136Y-95515995D01*
X119271142Y-95557709D01*
X119253864Y-95515995D01*
X119007745Y-95441861D01*
X118179605Y-96270000D01*
X117820395Y-96270000D01*
X116992255Y-95441861D01*
X116746136Y-95515995D01*
X116553035Y-96053223D01*
X111815189Y-96053223D01*
X111815248Y-95985813D01*
X111597243Y-95458200D01*
X111193923Y-95054176D01*
X111063785Y-95000138D01*
X111191800Y-94947243D01*
X111595824Y-94543923D01*
X111814750Y-94016691D01*
X111814752Y-94014187D01*
X116564752Y-94014187D01*
X116782757Y-94541800D01*
X117186077Y-94945824D01*
X117300768Y-94993448D01*
X117245995Y-95016136D01*
X117171861Y-95262255D01*
X118000000Y-96090395D01*
X118828139Y-95262255D01*
X118754005Y-95016136D01*
X118695746Y-94995195D01*
X118811800Y-94947243D01*
X119215824Y-94543923D01*
X119269862Y-94413785D01*
X119322757Y-94541800D01*
X119726077Y-94945824D01*
X119840768Y-94993448D01*
X119785995Y-95016136D01*
X119711861Y-95262255D01*
X120540000Y-96090395D01*
X121368139Y-95262255D01*
X121294005Y-95016136D01*
X121235746Y-94995195D01*
X121351800Y-94947243D01*
X121755824Y-94543923D01*
X121974750Y-94016691D01*
X121975248Y-93445813D01*
X121757243Y-92918200D01*
X121353923Y-92514176D01*
X120826691Y-92295250D01*
X120255813Y-92294752D01*
X119728200Y-92512757D01*
X119324176Y-92916077D01*
X119270138Y-93046215D01*
X119217243Y-92918200D01*
X118813923Y-92514176D01*
X118286691Y-92295250D01*
X117715813Y-92294752D01*
X117188200Y-92512757D01*
X116784176Y-92916077D01*
X116565250Y-93443309D01*
X116564752Y-94014187D01*
X111814752Y-94014187D01*
X111815248Y-93445813D01*
X111597243Y-92918200D01*
X111193923Y-92514176D01*
X111063785Y-92460138D01*
X111191800Y-92407243D01*
X111595824Y-92003923D01*
X111814750Y-91476691D01*
X111815248Y-90905813D01*
X111597243Y-90378200D01*
X111193923Y-89974176D01*
X111063785Y-89920138D01*
X111191800Y-89867243D01*
X111595824Y-89463923D01*
X111814750Y-88936691D01*
X111815248Y-88365813D01*
X111597243Y-87838200D01*
X111193923Y-87434176D01*
X111063785Y-87380138D01*
X111191800Y-87327243D01*
X111595824Y-86923923D01*
X111814750Y-86396691D01*
X111815248Y-85825813D01*
X111597243Y-85298200D01*
X111193923Y-84894176D01*
X111063785Y-84840138D01*
X111191800Y-84787243D01*
X111595824Y-84383923D01*
X111814750Y-83856691D01*
X111815248Y-83285813D01*
X111597243Y-82758200D01*
X111193923Y-82354176D01*
X111063785Y-82300138D01*
X111191800Y-82247243D01*
X111595824Y-81843923D01*
X111814750Y-81316691D01*
X111815248Y-80745813D01*
X111597243Y-80218200D01*
X111304554Y-79925000D01*
X111306310Y-79925000D01*
X111539699Y-79828327D01*
X111718327Y-79649698D01*
X111815000Y-79416309D01*
X111815000Y-78775750D01*
X111656250Y-78617000D01*
X110507000Y-78617000D01*
X110507000Y-78637000D01*
X110253000Y-78637000D01*
X110253000Y-78617000D01*
X109103750Y-78617000D01*
X108945000Y-78775750D01*
X108945000Y-79416309D01*
X109041673Y-79649698D01*
X109220301Y-79828327D01*
X109453690Y-79925000D01*
X109455761Y-79925000D01*
X109164176Y-80216077D01*
X108945250Y-80743309D01*
X108944752Y-81314187D01*
X106553000Y-81314187D01*
X106553000Y-77563691D01*
X108945000Y-77563691D01*
X108945000Y-78204250D01*
X109103750Y-78363000D01*
X110253000Y-78363000D01*
X110253000Y-77213750D01*
X110507000Y-77213750D01*
X110507000Y-78363000D01*
X111656250Y-78363000D01*
X111815000Y-78204250D01*
X111815000Y-77563691D01*
X111718327Y-77330302D01*
X111539699Y-77151673D01*
X111306310Y-77055000D01*
X110665750Y-77055000D01*
X110507000Y-77213750D01*
X110253000Y-77213750D01*
X110094250Y-77055000D01*
X109453690Y-77055000D01*
X109220301Y-77151673D01*
X109041673Y-77330302D01*
X108945000Y-77563691D01*
X106553000Y-77563691D01*
X106553000Y-76978510D01*
X154309070Y-76978510D01*
X154309070Y-78977490D01*
X154353348Y-79212807D01*
X154492420Y-79428931D01*
X154704620Y-79573921D01*
X154956510Y-79624930D01*
X156955490Y-79624930D01*
X157190807Y-79580652D01*
X157406931Y-79441580D01*
X157517094Y-79280351D01*
X157536274Y-79301068D01*
X158115645Y-79567627D01*
X158369000Y-79448807D01*
X158369000Y-78105000D01*
X158623000Y-78105000D01*
X158623000Y-79448807D01*
X158876355Y-79567627D01*
X159455726Y-79301068D01*
X159888987Y-78833084D01*
X160085619Y-78358354D01*
X159966265Y-78105000D01*
X158623000Y-78105000D01*
X158369000Y-78105000D01*
X158349000Y-78105000D01*
X158349000Y-77851000D01*
X158369000Y-77851000D01*
X158369000Y-76507193D01*
X158623000Y-76507193D01*
X158623000Y-77851000D01*
X159966265Y-77851000D01*
X160085619Y-77597646D01*
X159888987Y-77122916D01*
X159455726Y-76654932D01*
X158876355Y-76388373D01*
X158623000Y-76507193D01*
X158369000Y-76507193D01*
X158115645Y-76388373D01*
X157536274Y-76654932D01*
X157515970Y-76676863D01*
X157419580Y-76527069D01*
X157207380Y-76382079D01*
X156955490Y-76331070D01*
X154956510Y-76331070D01*
X154721193Y-76375348D01*
X154505069Y-76514420D01*
X154360079Y-76726620D01*
X154309070Y-76978510D01*
X106553000Y-76978510D01*
X106553000Y-76327000D01*
X168021000Y-76327000D01*
X168021000Y-143129000D01*
X168021000Y-143129000D01*
G37*
X168021000Y-143129000D02*
X128397000Y-143129000D01*
X128397000Y-125730000D01*
X128386994Y-125680590D01*
X128362651Y-125643139D01*
X124587000Y-121615778D01*
X124587000Y-115570000D01*
X124576994Y-115520590D01*
X124548553Y-115478965D01*
X124506159Y-115451685D01*
X124461789Y-115443013D01*
X106553000Y-115190777D01*
X106553000Y-81314187D01*
X108944752Y-81314187D01*
X109162757Y-81841800D01*
X109566077Y-82245824D01*
X109696215Y-82299862D01*
X109568200Y-82352757D01*
X109164176Y-82756077D01*
X108945250Y-83283309D01*
X108944752Y-83854187D01*
X109162757Y-84381800D01*
X109566077Y-84785824D01*
X109696215Y-84839862D01*
X109568200Y-84892757D01*
X109164176Y-85296077D01*
X108945250Y-85823309D01*
X108944752Y-86394187D01*
X109162757Y-86921800D01*
X109566077Y-87325824D01*
X109696215Y-87379862D01*
X109568200Y-87432757D01*
X109164176Y-87836077D01*
X108945250Y-88363309D01*
X108944752Y-88934187D01*
X109162757Y-89461800D01*
X109566077Y-89865824D01*
X109696215Y-89919862D01*
X109568200Y-89972757D01*
X109164176Y-90376077D01*
X108945250Y-90903309D01*
X108944752Y-91474187D01*
X109162757Y-92001800D01*
X109566077Y-92405824D01*
X109696215Y-92459862D01*
X109568200Y-92512757D01*
X109164176Y-92916077D01*
X108945250Y-93443309D01*
X108944752Y-94014187D01*
X109162757Y-94541800D01*
X109566077Y-94945824D01*
X109696215Y-94999862D01*
X109568200Y-95052757D01*
X109164176Y-95456077D01*
X108945250Y-95983309D01*
X108944752Y-96554187D01*
X109162757Y-97081800D01*
X109566077Y-97485824D01*
X109696215Y-97539862D01*
X109568200Y-97592757D01*
X109164176Y-97996077D01*
X108945250Y-98523309D01*
X108944752Y-99094187D01*
X109162757Y-99621800D01*
X109566077Y-100025824D01*
X109696215Y-100079862D01*
X109568200Y-100132757D01*
X109164176Y-100536077D01*
X108945250Y-101063309D01*
X108944752Y-101634187D01*
X109162757Y-102161800D01*
X109566077Y-102565824D01*
X109696215Y-102619862D01*
X109568200Y-102672757D01*
X109164176Y-103076077D01*
X108945250Y-103603309D01*
X108944752Y-104174187D01*
X109162757Y-104701800D01*
X109566077Y-105105824D01*
X109696215Y-105159862D01*
X109568200Y-105212757D01*
X109164176Y-105616077D01*
X108945250Y-106143309D01*
X108944752Y-106714187D01*
X109162757Y-107241800D01*
X109566077Y-107645824D01*
X109696215Y-107699862D01*
X109568200Y-107752757D01*
X109164176Y-108156077D01*
X108945250Y-108683309D01*
X108944752Y-109254187D01*
X109162757Y-109781800D01*
X109566077Y-110185824D01*
X109696215Y-110239862D01*
X109568200Y-110292757D01*
X109164176Y-110696077D01*
X108945250Y-111223309D01*
X108944752Y-111794187D01*
X109162757Y-112321800D01*
X109566077Y-112725824D01*
X110093309Y-112944750D01*
X110664187Y-112945248D01*
X111191800Y-112727243D01*
X111595824Y-112323923D01*
X111649862Y-112193785D01*
X111702757Y-112321800D01*
X112106077Y-112725824D01*
X112633309Y-112944750D01*
X113204187Y-112945248D01*
X113731800Y-112727243D01*
X114135824Y-112323923D01*
X114189862Y-112193785D01*
X114242757Y-112321800D01*
X114646077Y-112725824D01*
X115173309Y-112944750D01*
X115744187Y-112945248D01*
X116271800Y-112727243D01*
X116481663Y-112517745D01*
X117171861Y-112517745D01*
X117245995Y-112763864D01*
X117783223Y-112956965D01*
X118353454Y-112929778D01*
X118754005Y-112763864D01*
X118828139Y-112517745D01*
X118000000Y-111689605D01*
X117171861Y-112517745D01*
X116481663Y-112517745D01*
X116675824Y-112323923D01*
X116723448Y-112209232D01*
X116746136Y-112264005D01*
X116992255Y-112338139D01*
X117820395Y-111510000D01*
X116992255Y-110681861D01*
X116746136Y-110755995D01*
X116725195Y-110814254D01*
X116677243Y-110698200D01*
X116273923Y-110294176D01*
X115746691Y-110075250D01*
X115175813Y-110074752D01*
X114648200Y-110292757D01*
X114244176Y-110696077D01*
X114190138Y-110826215D01*
X114137243Y-110698200D01*
X113733923Y-110294176D01*
X113206691Y-110075250D01*
X112635813Y-110074752D01*
X112108200Y-110292757D01*
X111704176Y-110696077D01*
X111650138Y-110826215D01*
X111597243Y-110698200D01*
X111193923Y-110294176D01*
X111063785Y-110240138D01*
X111191800Y-110187243D01*
X111595824Y-109783923D01*
X111814750Y-109256691D01*
X111815248Y-108685813D01*
X111597243Y-108158200D01*
X111193923Y-107754176D01*
X111063785Y-107700138D01*
X111191800Y-107647243D01*
X111595824Y-107243923D01*
X111814750Y-106716691D01*
X111815248Y-106145813D01*
X111720291Y-105916000D01*
X116659637Y-105916000D01*
X116565250Y-106143309D01*
X116564752Y-106714187D01*
X116782757Y-107241800D01*
X117186077Y-107645824D01*
X117316215Y-107699862D01*
X117188200Y-107752757D01*
X116784176Y-108156077D01*
X116565250Y-108683309D01*
X116564752Y-109254187D01*
X116782757Y-109781800D01*
X117186077Y-110185824D01*
X117300768Y-110233448D01*
X117245995Y-110256136D01*
X117171861Y-110502255D01*
X118000000Y-111330395D01*
X118828139Y-110502255D01*
X118754005Y-110256136D01*
X118695746Y-110235195D01*
X118811800Y-110187243D01*
X119215824Y-109783923D01*
X119269862Y-109653785D01*
X119322757Y-109781800D01*
X119726077Y-110185824D01*
X119856215Y-110239862D01*
X119728200Y-110292757D01*
X119324176Y-110696077D01*
X119276552Y-110810768D01*
X119253864Y-110755995D01*
X119007745Y-110681861D01*
X118179605Y-111510000D01*
X119007745Y-112338139D01*
X119253864Y-112264005D01*
X119274805Y-112205746D01*
X119322757Y-112321800D01*
X119726077Y-112725824D01*
X120253309Y-112944750D01*
X120824187Y-112945248D01*
X121351800Y-112727243D01*
X121755824Y-112323923D01*
X121809862Y-112193785D01*
X121862757Y-112321800D01*
X122266077Y-112725824D01*
X122793309Y-112944750D01*
X123364187Y-112945248D01*
X123891800Y-112727243D01*
X124295824Y-112323923D01*
X124349862Y-112193785D01*
X124402757Y-112321800D01*
X124806077Y-112725824D01*
X125333309Y-112944750D01*
X125904187Y-112945248D01*
X126258955Y-112798661D01*
X133222758Y-112798661D01*
X133434990Y-113312303D01*
X133827630Y-113705629D01*
X134035512Y-113791949D01*
X133829697Y-113876990D01*
X133436371Y-114269630D01*
X133223243Y-114782900D01*
X133222758Y-115338661D01*
X133434990Y-115852303D01*
X133827630Y-116245629D01*
X134035512Y-116331949D01*
X133829697Y-116416990D01*
X133436371Y-116809630D01*
X133223243Y-117322900D01*
X133222758Y-117878661D01*
X133434990Y-118392303D01*
X133827630Y-118785629D01*
X134035512Y-118871949D01*
X133829697Y-118956990D01*
X133436371Y-119349630D01*
X133223243Y-119862900D01*
X133222758Y-120418661D01*
X133434990Y-120932303D01*
X133827630Y-121325629D01*
X134035512Y-121411949D01*
X133829697Y-121496990D01*
X133436371Y-121889630D01*
X133223243Y-122402900D01*
X133222758Y-122958661D01*
X133434990Y-123472303D01*
X133827630Y-123865629D01*
X134035512Y-123951949D01*
X133829697Y-124036990D01*
X133436371Y-124429630D01*
X133223243Y-124942900D01*
X133222758Y-125498661D01*
X133434990Y-126012303D01*
X133827630Y-126405629D01*
X134035512Y-126491949D01*
X133829697Y-126576990D01*
X133436371Y-126969630D01*
X133223243Y-127482900D01*
X133222758Y-128038661D01*
X133434990Y-128552303D01*
X133827630Y-128945629D01*
X134035512Y-129031949D01*
X133829697Y-129116990D01*
X133436371Y-129509630D01*
X133223243Y-130022900D01*
X133222758Y-130578661D01*
X133434990Y-131092303D01*
X133827630Y-131485629D01*
X134035512Y-131571949D01*
X133829697Y-131656990D01*
X133436371Y-132049630D01*
X133223243Y-132562900D01*
X133222758Y-133118661D01*
X133434990Y-133632303D01*
X133827630Y-134025629D01*
X134035512Y-134111949D01*
X133829697Y-134196990D01*
X133436371Y-134589630D01*
X133223243Y-135102900D01*
X133222758Y-135658661D01*
X133434990Y-136172303D01*
X133827630Y-136565629D01*
X134340900Y-136778757D01*
X134896661Y-136779242D01*
X135410303Y-136567010D01*
X135615457Y-136362213D01*
X146519392Y-136362213D01*
X146588857Y-136604397D01*
X147112302Y-136791144D01*
X147667368Y-136763362D01*
X148051143Y-136604397D01*
X148120608Y-136362213D01*
X147320000Y-135561605D01*
X146519392Y-136362213D01*
X135615457Y-136362213D01*
X135803629Y-136174370D01*
X136016757Y-135661100D01*
X136017181Y-135174302D01*
X145910856Y-135174302D01*
X145938638Y-135729368D01*
X146097603Y-136113143D01*
X146339787Y-136182608D01*
X147140395Y-135382000D01*
X147499605Y-135382000D01*
X148300213Y-136182608D01*
X148542397Y-136113143D01*
X148729144Y-135589698D01*
X148701362Y-135034632D01*
X148542397Y-134650857D01*
X148300213Y-134581392D01*
X147499605Y-135382000D01*
X147140395Y-135382000D01*
X146339787Y-134581392D01*
X146097603Y-134650857D01*
X145910856Y-135174302D01*
X136017181Y-135174302D01*
X136017242Y-135105339D01*
X135805010Y-134591697D01*
X135412370Y-134198371D01*
X135204488Y-134112051D01*
X135410303Y-134027010D01*
X135803629Y-133634370D01*
X136016757Y-133121100D01*
X136017242Y-132565339D01*
X135805010Y-132051697D01*
X135412370Y-131658371D01*
X135204488Y-131572051D01*
X135410303Y-131487010D01*
X135803629Y-131094370D01*
X136016757Y-130581100D01*
X136017242Y-130025339D01*
X135805010Y-129511697D01*
X135412370Y-129118371D01*
X135204488Y-129032051D01*
X135410303Y-128947010D01*
X135803629Y-128554370D01*
X136016757Y-128041100D01*
X136017242Y-127485339D01*
X135805010Y-126971697D01*
X135412370Y-126578371D01*
X135204488Y-126492051D01*
X135410303Y-126407010D01*
X135803629Y-126014370D01*
X136016757Y-125501100D01*
X136017242Y-124945339D01*
X135805010Y-124431697D01*
X135412370Y-124038371D01*
X135204488Y-123952051D01*
X135410303Y-123867010D01*
X135803629Y-123474370D01*
X136016757Y-122961100D01*
X136017242Y-122405339D01*
X135805010Y-121891697D01*
X135412370Y-121498371D01*
X135204488Y-121412051D01*
X135410303Y-121327010D01*
X135803629Y-120934370D01*
X136016757Y-120421100D01*
X136017242Y-119865339D01*
X135805010Y-119351697D01*
X135412370Y-118958371D01*
X135204488Y-118872051D01*
X135410303Y-118787010D01*
X135803629Y-118394370D01*
X136016757Y-117881100D01*
X136017242Y-117325339D01*
X135805010Y-116811697D01*
X135412370Y-116418371D01*
X135204488Y-116332051D01*
X135410303Y-116247010D01*
X135803629Y-115854370D01*
X136016757Y-115341100D01*
X136017242Y-114785339D01*
X135805010Y-114271697D01*
X135412370Y-113878371D01*
X135204488Y-113792051D01*
X135410303Y-113707010D01*
X135803629Y-113314370D01*
X136016757Y-112801100D01*
X136016759Y-112798661D01*
X145922758Y-112798661D01*
X146134990Y-113312303D01*
X146527630Y-113705629D01*
X146735512Y-113791949D01*
X146529697Y-113876990D01*
X146136371Y-114269630D01*
X145923243Y-114782900D01*
X145922758Y-115338661D01*
X146134990Y-115852303D01*
X146527630Y-116245629D01*
X146735512Y-116331949D01*
X146529697Y-116416990D01*
X146136371Y-116809630D01*
X145923243Y-117322900D01*
X145922758Y-117878661D01*
X146134990Y-118392303D01*
X146527630Y-118785629D01*
X146735512Y-118871949D01*
X146529697Y-118956990D01*
X146136371Y-119349630D01*
X145923243Y-119862900D01*
X145922758Y-120418661D01*
X146134990Y-120932303D01*
X146527630Y-121325629D01*
X146735512Y-121411949D01*
X146529697Y-121496990D01*
X146136371Y-121889630D01*
X145923243Y-122402900D01*
X145922758Y-122958661D01*
X146134990Y-123472303D01*
X146527630Y-123865629D01*
X146735512Y-123951949D01*
X146529697Y-124036990D01*
X146136371Y-124429630D01*
X145923243Y-124942900D01*
X145922758Y-125498661D01*
X146134990Y-126012303D01*
X146527630Y-126405629D01*
X146735512Y-126491949D01*
X146529697Y-126576990D01*
X146136371Y-126969630D01*
X145923243Y-127482900D01*
X145922758Y-128038661D01*
X146134990Y-128552303D01*
X146527630Y-128945629D01*
X146735512Y-129031949D01*
X146529697Y-129116990D01*
X146136371Y-129509630D01*
X145923243Y-130022900D01*
X145922758Y-130578661D01*
X146134990Y-131092303D01*
X146527630Y-131485629D01*
X146735512Y-131571949D01*
X146529697Y-131656990D01*
X146136371Y-132049630D01*
X145923243Y-132562900D01*
X145922758Y-133118661D01*
X146134990Y-133632303D01*
X146527630Y-134025629D01*
X146719727Y-134105395D01*
X146588857Y-134159603D01*
X146519392Y-134401787D01*
X147320000Y-135202395D01*
X148120608Y-134401787D01*
X148051143Y-134159603D01*
X147910682Y-134109491D01*
X148110303Y-134027010D01*
X148503629Y-133634370D01*
X148716757Y-133121100D01*
X148717242Y-132565339D01*
X148505010Y-132051697D01*
X148112370Y-131658371D01*
X147904488Y-131572051D01*
X148110303Y-131487010D01*
X148503629Y-131094370D01*
X148716757Y-130581100D01*
X148717242Y-130025339D01*
X148505010Y-129511697D01*
X148112370Y-129118371D01*
X147904488Y-129032051D01*
X148110303Y-128947010D01*
X148503629Y-128554370D01*
X148716757Y-128041100D01*
X148717242Y-127485339D01*
X148505010Y-126971697D01*
X148112370Y-126578371D01*
X147904488Y-126492051D01*
X148110303Y-126407010D01*
X148503629Y-126014370D01*
X148716757Y-125501100D01*
X148717242Y-124945339D01*
X148505010Y-124431697D01*
X148112370Y-124038371D01*
X147904488Y-123952051D01*
X148110303Y-123867010D01*
X148503629Y-123474370D01*
X148716757Y-122961100D01*
X148717242Y-122405339D01*
X148505010Y-121891697D01*
X148112370Y-121498371D01*
X147904488Y-121412051D01*
X148110303Y-121327010D01*
X148503629Y-120934370D01*
X148716757Y-120421100D01*
X148717242Y-119865339D01*
X148505010Y-119351697D01*
X148112370Y-118958371D01*
X147904488Y-118872051D01*
X148110303Y-118787010D01*
X148503629Y-118394370D01*
X148716757Y-117881100D01*
X148717242Y-117325339D01*
X148505010Y-116811697D01*
X148112370Y-116418371D01*
X147904488Y-116332051D01*
X148110303Y-116247010D01*
X148503629Y-115854370D01*
X148716757Y-115341100D01*
X148717242Y-114785339D01*
X148505010Y-114271697D01*
X148112370Y-113878371D01*
X147904488Y-113792051D01*
X148110303Y-113707010D01*
X148503629Y-113314370D01*
X148716757Y-112801100D01*
X148717242Y-112245339D01*
X148505010Y-111731697D01*
X148112370Y-111338371D01*
X147599100Y-111125243D01*
X147043339Y-111124758D01*
X146529697Y-111336990D01*
X146136371Y-111729630D01*
X145923243Y-112242900D01*
X145922758Y-112798661D01*
X136016759Y-112798661D01*
X136017242Y-112245339D01*
X135805010Y-111731697D01*
X135412370Y-111338371D01*
X134899100Y-111125243D01*
X134343339Y-111124758D01*
X133829697Y-111336990D01*
X133436371Y-111729630D01*
X133223243Y-112242900D01*
X133222758Y-112798661D01*
X126258955Y-112798661D01*
X126431800Y-112727243D01*
X126835824Y-112323923D01*
X127054750Y-111796691D01*
X127055248Y-111225813D01*
X126837243Y-110698200D01*
X126433923Y-110294176D01*
X126303785Y-110240138D01*
X126431800Y-110187243D01*
X126835824Y-109783923D01*
X127054750Y-109256691D01*
X127055248Y-108685813D01*
X126837243Y-108158200D01*
X126433923Y-107754176D01*
X126303785Y-107700138D01*
X126431800Y-107647243D01*
X126835824Y-107243923D01*
X127054750Y-106716691D01*
X127055248Y-106145813D01*
X126960291Y-105916000D01*
X130048000Y-105916000D01*
X130338839Y-105858148D01*
X130585401Y-105693401D01*
X131632802Y-104646000D01*
X133422469Y-104646000D01*
X133434990Y-104676303D01*
X133827630Y-105069629D01*
X134035512Y-105155949D01*
X133829697Y-105240990D01*
X133436371Y-105633630D01*
X133223243Y-106146900D01*
X133222758Y-106702661D01*
X133434990Y-107216303D01*
X133827630Y-107609629D01*
X134340900Y-107822757D01*
X134896661Y-107823242D01*
X135410303Y-107611010D01*
X135615457Y-107406213D01*
X146519392Y-107406213D01*
X146588857Y-107648397D01*
X147112302Y-107835144D01*
X147667368Y-107807362D01*
X148051143Y-107648397D01*
X148120608Y-107406213D01*
X147320000Y-106605605D01*
X146519392Y-107406213D01*
X135615457Y-107406213D01*
X135803629Y-107218370D01*
X136016757Y-106705100D01*
X136017181Y-106218302D01*
X145910856Y-106218302D01*
X145938638Y-106773368D01*
X146097603Y-107157143D01*
X146339787Y-107226608D01*
X147140395Y-106426000D01*
X147499605Y-106426000D01*
X148300213Y-107226608D01*
X148542397Y-107157143D01*
X148729144Y-106633698D01*
X148701362Y-106078632D01*
X148542397Y-105694857D01*
X148300213Y-105625392D01*
X147499605Y-106426000D01*
X147140395Y-106426000D01*
X146339787Y-105625392D01*
X146097603Y-105694857D01*
X145910856Y-106218302D01*
X136017181Y-106218302D01*
X136017242Y-106149339D01*
X135805010Y-105635697D01*
X135412370Y-105242371D01*
X135204488Y-105156051D01*
X135410303Y-105071010D01*
X135803629Y-104678370D01*
X136016757Y-104165100D01*
X136017242Y-103609339D01*
X135805010Y-103095697D01*
X135412370Y-102702371D01*
X135204488Y-102616051D01*
X135410303Y-102531010D01*
X135803629Y-102138370D01*
X136016757Y-101625100D01*
X136017242Y-101069339D01*
X135805010Y-100555697D01*
X135412370Y-100162371D01*
X135204488Y-100076051D01*
X135410303Y-99991010D01*
X135803629Y-99598370D01*
X136016757Y-99085100D01*
X136017242Y-98529339D01*
X135805010Y-98015697D01*
X135412370Y-97622371D01*
X135204488Y-97536051D01*
X135410303Y-97451010D01*
X135803629Y-97058370D01*
X136016757Y-96545100D01*
X136017242Y-95989339D01*
X135805010Y-95475697D01*
X135412370Y-95082371D01*
X135204488Y-94996051D01*
X135410303Y-94911010D01*
X135803629Y-94518370D01*
X136016757Y-94005100D01*
X136017242Y-93449339D01*
X135805010Y-92935697D01*
X135412370Y-92542371D01*
X135204488Y-92456051D01*
X135410303Y-92371010D01*
X135803629Y-91978370D01*
X136016757Y-91465100D01*
X136017242Y-90909339D01*
X135805010Y-90395697D01*
X135412370Y-90002371D01*
X135204488Y-89916051D01*
X135410303Y-89831010D01*
X135803629Y-89438370D01*
X136016757Y-88925100D01*
X136017242Y-88369339D01*
X135805010Y-87855697D01*
X135412370Y-87462371D01*
X135204488Y-87376051D01*
X135410303Y-87291010D01*
X135803629Y-86898370D01*
X136016757Y-86385100D01*
X136017242Y-85829339D01*
X135805010Y-85315697D01*
X135412370Y-84922371D01*
X135204488Y-84836051D01*
X135410303Y-84751010D01*
X135803629Y-84358370D01*
X136016757Y-83845100D01*
X136016759Y-83842661D01*
X145922758Y-83842661D01*
X146134990Y-84356303D01*
X146527630Y-84749629D01*
X146735512Y-84835949D01*
X146529697Y-84920990D01*
X146136371Y-85313630D01*
X145923243Y-85826900D01*
X145922758Y-86382661D01*
X146134990Y-86896303D01*
X146527630Y-87289629D01*
X146735512Y-87375949D01*
X146529697Y-87460990D01*
X146136371Y-87853630D01*
X145923243Y-88366900D01*
X145922758Y-88922661D01*
X146134990Y-89436303D01*
X146527630Y-89829629D01*
X146735512Y-89915949D01*
X146529697Y-90000990D01*
X146136371Y-90393630D01*
X145923243Y-90906900D01*
X145922758Y-91462661D01*
X146134990Y-91976303D01*
X146527630Y-92369629D01*
X146735512Y-92455949D01*
X146529697Y-92540990D01*
X146136371Y-92933630D01*
X145923243Y-93446900D01*
X145922758Y-94002661D01*
X146134990Y-94516303D01*
X146527630Y-94909629D01*
X146735512Y-94995949D01*
X146529697Y-95080990D01*
X146136371Y-95473630D01*
X145923243Y-95986900D01*
X145922758Y-96542661D01*
X146134990Y-97056303D01*
X146527630Y-97449629D01*
X146735512Y-97535949D01*
X146529697Y-97620990D01*
X146136371Y-98013630D01*
X145923243Y-98526900D01*
X145922758Y-99082661D01*
X146134990Y-99596303D01*
X146527630Y-99989629D01*
X146735512Y-100075949D01*
X146529697Y-100160990D01*
X146136371Y-100553630D01*
X145923243Y-101066900D01*
X145922758Y-101622661D01*
X146134990Y-102136303D01*
X146527630Y-102529629D01*
X146735512Y-102615949D01*
X146529697Y-102700990D01*
X146136371Y-103093630D01*
X145923243Y-103606900D01*
X145922758Y-104162661D01*
X146134990Y-104676303D01*
X146527630Y-105069629D01*
X146719727Y-105149395D01*
X146588857Y-105203603D01*
X146519392Y-105445787D01*
X147320000Y-106246395D01*
X148120608Y-105445787D01*
X148051143Y-105203603D01*
X147910682Y-105153491D01*
X148110303Y-105071010D01*
X148503629Y-104678370D01*
X148716757Y-104165100D01*
X148717242Y-103609339D01*
X148505010Y-103095697D01*
X148112370Y-102702371D01*
X147904488Y-102616051D01*
X148110303Y-102531010D01*
X148503629Y-102138370D01*
X148716757Y-101625100D01*
X148717242Y-101069339D01*
X148505010Y-100555697D01*
X148112370Y-100162371D01*
X147904488Y-100076051D01*
X148110303Y-99991010D01*
X148503629Y-99598370D01*
X148716757Y-99085100D01*
X148717242Y-98529339D01*
X148505010Y-98015697D01*
X148112370Y-97622371D01*
X147904488Y-97536051D01*
X148110303Y-97451010D01*
X148503629Y-97058370D01*
X148716757Y-96545100D01*
X148717242Y-95989339D01*
X148505010Y-95475697D01*
X148112370Y-95082371D01*
X147904488Y-94996051D01*
X148110303Y-94911010D01*
X148503629Y-94518370D01*
X148716757Y-94005100D01*
X148717242Y-93449339D01*
X148505010Y-92935697D01*
X148112370Y-92542371D01*
X147904488Y-92456051D01*
X148110303Y-92371010D01*
X148503629Y-91978370D01*
X148716757Y-91465100D01*
X148717242Y-90909339D01*
X148505010Y-90395697D01*
X148112370Y-90002371D01*
X147904488Y-89916051D01*
X148110303Y-89831010D01*
X148503629Y-89438370D01*
X148716757Y-88925100D01*
X148716778Y-88900000D01*
X154695907Y-88900000D01*
X154808946Y-89468285D01*
X155130853Y-89950054D01*
X155460026Y-90170000D01*
X155130853Y-90389946D01*
X154808946Y-90871715D01*
X154695907Y-91440000D01*
X154808946Y-92008285D01*
X155130853Y-92490054D01*
X155460026Y-92710000D01*
X155130853Y-92929946D01*
X154808946Y-93411715D01*
X154695907Y-93980000D01*
X154808946Y-94548285D01*
X155130853Y-95030054D01*
X155460026Y-95250000D01*
X155130853Y-95469946D01*
X154808946Y-95951715D01*
X154695907Y-96520000D01*
X154808946Y-97088285D01*
X155130853Y-97570054D01*
X155460026Y-97790000D01*
X155130853Y-98009946D01*
X154808946Y-98491715D01*
X154695907Y-99060000D01*
X154808946Y-99628285D01*
X155130853Y-100110054D01*
X155460026Y-100330000D01*
X155130853Y-100549946D01*
X154808946Y-101031715D01*
X154695907Y-101600000D01*
X154808946Y-102168285D01*
X155130853Y-102650054D01*
X155460026Y-102870000D01*
X155130853Y-103089946D01*
X154808946Y-103571715D01*
X154695907Y-104140000D01*
X154808946Y-104708285D01*
X155130853Y-105190054D01*
X155612622Y-105511961D01*
X156180907Y-105625000D01*
X156239093Y-105625000D01*
X156807378Y-105511961D01*
X157289147Y-105190054D01*
X157480000Y-104904422D01*
X157670853Y-105190054D01*
X158152622Y-105511961D01*
X158720907Y-105625000D01*
X158779093Y-105625000D01*
X159347378Y-105511961D01*
X159829147Y-105190054D01*
X160151054Y-104708285D01*
X160264093Y-104140000D01*
X160151054Y-103571715D01*
X159829147Y-103089946D01*
X159499974Y-102870000D01*
X159829147Y-102650054D01*
X160151054Y-102168285D01*
X160264093Y-101600000D01*
X160151054Y-101031715D01*
X159829147Y-100549946D01*
X159499974Y-100330000D01*
X159829147Y-100110054D01*
X160151054Y-99628285D01*
X160264093Y-99060000D01*
X160151054Y-98491715D01*
X159829147Y-98009946D01*
X159499974Y-97790000D01*
X159829147Y-97570054D01*
X160151054Y-97088285D01*
X160264093Y-96520000D01*
X160151054Y-95951715D01*
X159829147Y-95469946D01*
X159499974Y-95250000D01*
X159829147Y-95030054D01*
X160151054Y-94548285D01*
X160264093Y-93980000D01*
X160151054Y-93411715D01*
X159829147Y-92929946D01*
X159499974Y-92710000D01*
X159829147Y-92490054D01*
X160151054Y-92008285D01*
X160264093Y-91440000D01*
X160151054Y-90871715D01*
X159829147Y-90389946D01*
X159499974Y-90170000D01*
X159829147Y-89950054D01*
X160151054Y-89468285D01*
X160264093Y-88900000D01*
X160151054Y-88331715D01*
X159829147Y-87849946D01*
X159499974Y-87630000D01*
X159829147Y-87410054D01*
X160151054Y-86928285D01*
X160264093Y-86360000D01*
X160151054Y-85791715D01*
X159829147Y-85309946D01*
X159347378Y-84988039D01*
X158779093Y-84875000D01*
X158720907Y-84875000D01*
X158152622Y-84988039D01*
X157670853Y-85309946D01*
X157670029Y-85311179D01*
X157663162Y-85274683D01*
X157524090Y-85058559D01*
X157311890Y-84913569D01*
X157060000Y-84862560D01*
X155360000Y-84862560D01*
X155124683Y-84906838D01*
X154908559Y-85045910D01*
X154763569Y-85258110D01*
X154712560Y-85510000D01*
X154712560Y-87210000D01*
X154756838Y-87445317D01*
X154895910Y-87661441D01*
X155108110Y-87806431D01*
X155175541Y-87820086D01*
X155130853Y-87849946D01*
X154808946Y-88331715D01*
X154695907Y-88900000D01*
X148716778Y-88900000D01*
X148717242Y-88369339D01*
X148505010Y-87855697D01*
X148112370Y-87462371D01*
X147904488Y-87376051D01*
X148110303Y-87291010D01*
X148503629Y-86898370D01*
X148716757Y-86385100D01*
X148717242Y-85829339D01*
X148505010Y-85315697D01*
X148112370Y-84922371D01*
X147904488Y-84836051D01*
X148110303Y-84751010D01*
X148503629Y-84358370D01*
X148716757Y-83845100D01*
X148717242Y-83289339D01*
X148505010Y-82775697D01*
X148112370Y-82382371D01*
X147599100Y-82169243D01*
X147043339Y-82168758D01*
X146529697Y-82380990D01*
X146136371Y-82773630D01*
X145923243Y-83286900D01*
X145922758Y-83842661D01*
X136016759Y-83842661D01*
X136017242Y-83289339D01*
X135805010Y-82775697D01*
X135412370Y-82382371D01*
X134899100Y-82169243D01*
X134343339Y-82168758D01*
X133829697Y-82380990D01*
X133436371Y-82773630D01*
X133223243Y-83286900D01*
X133222758Y-83842661D01*
X133434990Y-84356303D01*
X133827630Y-84749629D01*
X134035512Y-84835949D01*
X133829697Y-84920990D01*
X133436371Y-85313630D01*
X133223243Y-85826900D01*
X133222758Y-86382661D01*
X133434990Y-86896303D01*
X133827630Y-87289629D01*
X134035512Y-87375949D01*
X133829697Y-87460990D01*
X133436371Y-87853630D01*
X133223243Y-88366900D01*
X133222758Y-88922661D01*
X133434990Y-89436303D01*
X133827630Y-89829629D01*
X134035512Y-89915949D01*
X133829697Y-90000990D01*
X133436371Y-90393630D01*
X133223243Y-90906900D01*
X133222758Y-91462661D01*
X133434990Y-91976303D01*
X133827630Y-92369629D01*
X134035512Y-92455949D01*
X133829697Y-92540990D01*
X133436371Y-92933630D01*
X133223243Y-93446900D01*
X133222758Y-94002661D01*
X133434990Y-94516303D01*
X133827630Y-94909629D01*
X134035512Y-94995949D01*
X133829697Y-95080990D01*
X133436371Y-95473630D01*
X133223243Y-95986900D01*
X133222758Y-96542661D01*
X133434990Y-97056303D01*
X133827630Y-97449629D01*
X134035512Y-97535949D01*
X133829697Y-97620990D01*
X133436371Y-98013630D01*
X133422930Y-98046000D01*
X131572000Y-98046000D01*
X131281160Y-98103852D01*
X131034599Y-98268599D01*
X129987198Y-99316000D01*
X126963685Y-99316000D01*
X127054750Y-99096691D01*
X127055248Y-98525813D01*
X126837243Y-97998200D01*
X126433923Y-97594176D01*
X126303785Y-97540138D01*
X126431800Y-97487243D01*
X126835824Y-97083923D01*
X127054750Y-96556691D01*
X127055248Y-95985813D01*
X126837243Y-95458200D01*
X126433923Y-95054176D01*
X126303785Y-95000138D01*
X126431800Y-94947243D01*
X126835824Y-94543923D01*
X127054750Y-94016691D01*
X127055248Y-93445813D01*
X126837243Y-92918200D01*
X126433923Y-92514176D01*
X126303785Y-92460138D01*
X126431800Y-92407243D01*
X126835824Y-92003923D01*
X127054750Y-91476691D01*
X127055248Y-90905813D01*
X126837243Y-90378200D01*
X126433923Y-89974176D01*
X126303785Y-89920138D01*
X126431800Y-89867243D01*
X126835824Y-89463923D01*
X127054750Y-88936691D01*
X127055248Y-88365813D01*
X126837243Y-87838200D01*
X126433923Y-87434176D01*
X126303785Y-87380138D01*
X126431800Y-87327243D01*
X126835824Y-86923923D01*
X127054750Y-86396691D01*
X127055248Y-85825813D01*
X126837243Y-85298200D01*
X126433923Y-84894176D01*
X126303785Y-84840138D01*
X126431800Y-84787243D01*
X126835824Y-84383923D01*
X127054750Y-83856691D01*
X127055248Y-83285813D01*
X126837243Y-82758200D01*
X126433923Y-82354176D01*
X126303785Y-82300138D01*
X126431800Y-82247243D01*
X126835824Y-81843923D01*
X127054750Y-81316691D01*
X127055248Y-80745813D01*
X126837243Y-80218200D01*
X126433923Y-79814176D01*
X126303785Y-79760138D01*
X126431800Y-79707243D01*
X126835824Y-79303923D01*
X127054750Y-78776691D01*
X127055248Y-78205813D01*
X126924757Y-77890000D01*
X130582560Y-77890000D01*
X130582560Y-79590000D01*
X130626838Y-79825317D01*
X130765910Y-80041441D01*
X130978110Y-80186431D01*
X131230000Y-80237440D01*
X132930000Y-80237440D01*
X133165317Y-80193162D01*
X133381441Y-80054090D01*
X133526431Y-79841890D01*
X133540086Y-79774459D01*
X133569946Y-79819147D01*
X134051715Y-80141054D01*
X134620000Y-80254093D01*
X135188285Y-80141054D01*
X135670054Y-79819147D01*
X135991961Y-79337378D01*
X136105000Y-78769093D01*
X136105000Y-78710907D01*
X135991961Y-78142622D01*
X135670054Y-77660853D01*
X135188285Y-77338946D01*
X134620000Y-77225907D01*
X134051715Y-77338946D01*
X133569946Y-77660853D01*
X133542150Y-77702452D01*
X133533162Y-77654683D01*
X133394090Y-77438559D01*
X133181890Y-77293569D01*
X132930000Y-77242560D01*
X131230000Y-77242560D01*
X130994683Y-77286838D01*
X130778559Y-77425910D01*
X130633569Y-77638110D01*
X130582560Y-77890000D01*
X126924757Y-77890000D01*
X126837243Y-77678200D01*
X126433923Y-77274176D01*
X125906691Y-77055250D01*
X125335813Y-77054752D01*
X124808200Y-77272757D01*
X124404176Y-77676077D01*
X124185250Y-78203309D01*
X124184752Y-78774187D01*
X124402757Y-79301800D01*
X124806077Y-79705824D01*
X124936215Y-79759862D01*
X124808200Y-79812757D01*
X124404176Y-80216077D01*
X124350138Y-80346215D01*
X124297243Y-80218200D01*
X123893923Y-79814176D01*
X123366691Y-79595250D01*
X122795813Y-79594752D01*
X122268200Y-79812757D01*
X121864176Y-80216077D01*
X121645250Y-80743309D01*
X121644752Y-81314187D01*
X121862757Y-81841800D01*
X122266077Y-82245824D01*
X122793309Y-82464750D01*
X123364187Y-82465248D01*
X123891800Y-82247243D01*
X124295824Y-81843923D01*
X124349862Y-81713785D01*
X124402757Y-81841800D01*
X124806077Y-82245824D01*
X124936215Y-82299862D01*
X124808200Y-82352757D01*
X124404176Y-82756077D01*
X124185250Y-83283309D01*
X124184752Y-83854187D01*
X124402757Y-84381800D01*
X124806077Y-84785824D01*
X124936215Y-84839862D01*
X124808200Y-84892757D01*
X124404176Y-85296077D01*
X124350138Y-85426215D01*
X124297243Y-85298200D01*
X123893923Y-84894176D01*
X123366691Y-84675250D01*
X122795813Y-84674752D01*
X122268200Y-84892757D01*
X121864176Y-85296077D01*
X121645250Y-85823309D01*
X121644752Y-86394187D01*
X121862757Y-86921800D01*
X122266077Y-87325824D01*
X122396215Y-87379862D01*
X122268200Y-87432757D01*
X121864176Y-87836077D01*
X121645250Y-88363309D01*
X121644752Y-88934187D01*
X121862757Y-89461800D01*
X122266077Y-89865824D01*
X122396215Y-89919862D01*
X122268200Y-89972757D01*
X121864176Y-90376077D01*
X121645250Y-90903309D01*
X121644752Y-91474187D01*
X121862757Y-92001800D01*
X122266077Y-92405824D01*
X122793309Y-92624750D01*
X123364187Y-92625248D01*
X123891800Y-92407243D01*
X124295824Y-92003923D01*
X124349862Y-91873785D01*
X124402757Y-92001800D01*
X124806077Y-92405824D01*
X124936215Y-92459862D01*
X124808200Y-92512757D01*
X124404176Y-92916077D01*
X124185250Y-93443309D01*
X124184752Y-94014187D01*
X124402757Y-94541800D01*
X124806077Y-94945824D01*
X124936215Y-94999862D01*
X124808200Y-95052757D01*
X124404176Y-95456077D01*
X124185250Y-95983309D01*
X124184752Y-96554187D01*
X124402757Y-97081800D01*
X124806077Y-97485824D01*
X124936215Y-97539862D01*
X124808200Y-97592757D01*
X124404176Y-97996077D01*
X124185250Y-98523309D01*
X124184752Y-99094187D01*
X124276403Y-99316000D01*
X121883685Y-99316000D01*
X121974750Y-99096691D01*
X121975248Y-98525813D01*
X121757243Y-97998200D01*
X121353923Y-97594176D01*
X121239232Y-97546552D01*
X121294005Y-97523864D01*
X121368139Y-97277745D01*
X120540000Y-96449605D01*
X119711861Y-97277745D01*
X119785995Y-97523864D01*
X119844254Y-97544805D01*
X119728200Y-97592757D01*
X119324176Y-97996077D01*
X119270138Y-98126215D01*
X119217243Y-97998200D01*
X118813923Y-97594176D01*
X118699232Y-97546552D01*
X118754005Y-97523864D01*
X118828139Y-97277745D01*
X118000000Y-96449605D01*
X117171861Y-97277745D01*
X117245995Y-97523864D01*
X117304254Y-97544805D01*
X117188200Y-97592757D01*
X116784176Y-97996077D01*
X116565250Y-98523309D01*
X116564752Y-99094187D01*
X116656403Y-99316000D01*
X111960802Y-99316000D01*
X111793256Y-99148454D01*
X111814750Y-99096691D01*
X111815248Y-98525813D01*
X111597243Y-97998200D01*
X111193923Y-97594176D01*
X111063785Y-97540138D01*
X111191800Y-97487243D01*
X111595824Y-97083923D01*
X111814750Y-96556691D01*
X111815189Y-96053223D01*
X116553035Y-96053223D01*
X116580222Y-96623454D01*
X116746136Y-97024005D01*
X116992255Y-97098139D01*
X117820395Y-96270000D01*
X118179605Y-96270000D01*
X119007745Y-97098139D01*
X119253864Y-97024005D01*
X119268858Y-96982291D01*
X119286136Y-97024005D01*
X119532255Y-97098139D01*
X120360395Y-96270000D01*
X120719605Y-96270000D01*
X121547745Y-97098139D01*
X121793864Y-97024005D01*
X121986965Y-96486777D01*
X121959778Y-95916546D01*
X121793864Y-95515995D01*
X121547745Y-95441861D01*
X120719605Y-96270000D01*
X120360395Y-96270000D01*
X119532255Y-95441861D01*
X119286136Y-95515995D01*
X119271142Y-95557709D01*
X119253864Y-95515995D01*
X119007745Y-95441861D01*
X118179605Y-96270000D01*
X117820395Y-96270000D01*
X116992255Y-95441861D01*
X116746136Y-95515995D01*
X116553035Y-96053223D01*
X111815189Y-96053223D01*
X111815248Y-95985813D01*
X111597243Y-95458200D01*
X111193923Y-95054176D01*
X111063785Y-95000138D01*
X111191800Y-94947243D01*
X111595824Y-94543923D01*
X111814750Y-94016691D01*
X111814752Y-94014187D01*
X116564752Y-94014187D01*
X116782757Y-94541800D01*
X117186077Y-94945824D01*
X117300768Y-94993448D01*
X117245995Y-95016136D01*
X117171861Y-95262255D01*
X118000000Y-96090395D01*
X118828139Y-95262255D01*
X118754005Y-95016136D01*
X118695746Y-94995195D01*
X118811800Y-94947243D01*
X119215824Y-94543923D01*
X119269862Y-94413785D01*
X119322757Y-94541800D01*
X119726077Y-94945824D01*
X119840768Y-94993448D01*
X119785995Y-95016136D01*
X119711861Y-95262255D01*
X120540000Y-96090395D01*
X121368139Y-95262255D01*
X121294005Y-95016136D01*
X121235746Y-94995195D01*
X121351800Y-94947243D01*
X121755824Y-94543923D01*
X121974750Y-94016691D01*
X121975248Y-93445813D01*
X121757243Y-92918200D01*
X121353923Y-92514176D01*
X120826691Y-92295250D01*
X120255813Y-92294752D01*
X119728200Y-92512757D01*
X119324176Y-92916077D01*
X119270138Y-93046215D01*
X119217243Y-92918200D01*
X118813923Y-92514176D01*
X118286691Y-92295250D01*
X117715813Y-92294752D01*
X117188200Y-92512757D01*
X116784176Y-92916077D01*
X116565250Y-93443309D01*
X116564752Y-94014187D01*
X111814752Y-94014187D01*
X111815248Y-93445813D01*
X111597243Y-92918200D01*
X111193923Y-92514176D01*
X111063785Y-92460138D01*
X111191800Y-92407243D01*
X111595824Y-92003923D01*
X111814750Y-91476691D01*
X111815248Y-90905813D01*
X111597243Y-90378200D01*
X111193923Y-89974176D01*
X111063785Y-89920138D01*
X111191800Y-89867243D01*
X111595824Y-89463923D01*
X111814750Y-88936691D01*
X111815248Y-88365813D01*
X111597243Y-87838200D01*
X111193923Y-87434176D01*
X111063785Y-87380138D01*
X111191800Y-87327243D01*
X111595824Y-86923923D01*
X111814750Y-86396691D01*
X111815248Y-85825813D01*
X111597243Y-85298200D01*
X111193923Y-84894176D01*
X111063785Y-84840138D01*
X111191800Y-84787243D01*
X111595824Y-84383923D01*
X111814750Y-83856691D01*
X111815248Y-83285813D01*
X111597243Y-82758200D01*
X111193923Y-82354176D01*
X111063785Y-82300138D01*
X111191800Y-82247243D01*
X111595824Y-81843923D01*
X111814750Y-81316691D01*
X111815248Y-80745813D01*
X111597243Y-80218200D01*
X111304554Y-79925000D01*
X111306310Y-79925000D01*
X111539699Y-79828327D01*
X111718327Y-79649698D01*
X111815000Y-79416309D01*
X111815000Y-78775750D01*
X111656250Y-78617000D01*
X110507000Y-78617000D01*
X110507000Y-78637000D01*
X110253000Y-78637000D01*
X110253000Y-78617000D01*
X109103750Y-78617000D01*
X108945000Y-78775750D01*
X108945000Y-79416309D01*
X109041673Y-79649698D01*
X109220301Y-79828327D01*
X109453690Y-79925000D01*
X109455761Y-79925000D01*
X109164176Y-80216077D01*
X108945250Y-80743309D01*
X108944752Y-81314187D01*
X106553000Y-81314187D01*
X106553000Y-77563691D01*
X108945000Y-77563691D01*
X108945000Y-78204250D01*
X109103750Y-78363000D01*
X110253000Y-78363000D01*
X110253000Y-77213750D01*
X110507000Y-77213750D01*
X110507000Y-78363000D01*
X111656250Y-78363000D01*
X111815000Y-78204250D01*
X111815000Y-77563691D01*
X111718327Y-77330302D01*
X111539699Y-77151673D01*
X111306310Y-77055000D01*
X110665750Y-77055000D01*
X110507000Y-77213750D01*
X110253000Y-77213750D01*
X110094250Y-77055000D01*
X109453690Y-77055000D01*
X109220301Y-77151673D01*
X109041673Y-77330302D01*
X108945000Y-77563691D01*
X106553000Y-77563691D01*
X106553000Y-76978510D01*
X154309070Y-76978510D01*
X154309070Y-78977490D01*
X154353348Y-79212807D01*
X154492420Y-79428931D01*
X154704620Y-79573921D01*
X154956510Y-79624930D01*
X156955490Y-79624930D01*
X157190807Y-79580652D01*
X157406931Y-79441580D01*
X157517094Y-79280351D01*
X157536274Y-79301068D01*
X158115645Y-79567627D01*
X158369000Y-79448807D01*
X158369000Y-78105000D01*
X158623000Y-78105000D01*
X158623000Y-79448807D01*
X158876355Y-79567627D01*
X159455726Y-79301068D01*
X159888987Y-78833084D01*
X160085619Y-78358354D01*
X159966265Y-78105000D01*
X158623000Y-78105000D01*
X158369000Y-78105000D01*
X158349000Y-78105000D01*
X158349000Y-77851000D01*
X158369000Y-77851000D01*
X158369000Y-76507193D01*
X158623000Y-76507193D01*
X158623000Y-77851000D01*
X159966265Y-77851000D01*
X160085619Y-77597646D01*
X159888987Y-77122916D01*
X159455726Y-76654932D01*
X158876355Y-76388373D01*
X158623000Y-76507193D01*
X158369000Y-76507193D01*
X158115645Y-76388373D01*
X157536274Y-76654932D01*
X157515970Y-76676863D01*
X157419580Y-76527069D01*
X157207380Y-76382079D01*
X156955490Y-76331070D01*
X154956510Y-76331070D01*
X154721193Y-76375348D01*
X154505069Y-76514420D01*
X154360079Y-76726620D01*
X154309070Y-76978510D01*
X106553000Y-76978510D01*
X106553000Y-76327000D01*
X168021000Y-76327000D01*
X168021000Y-143129000D01*
M02*
