G04 #@! TF.FileFunction,Soldermask,Top*
%FSLAX46Y46*%
G04 Gerber Fmt 4.6, Leading zero omitted, Abs format (unit mm)*
G04 Created by KiCad (PCBNEW 4.0.5) date Friday, 02 June 2017 'AMt' 04:11:03*
%MOMM*%
%LPD*%
G01*
G04 APERTURE LIST*
%ADD10C,0.100000*%
%ADD11R,1.700000X1.700000*%
%ADD12O,1.700000X1.700000*%
%ADD13C,1.600000*%
%ADD14R,1.600000X1.600000*%
%ADD15R,3.500000X3.500000*%
%ADD16C,2.400000*%
%ADD17R,2.400000X2.400000*%
G04 APERTURE END LIST*
D10*
D11*
X132080000Y-78740000D03*
D12*
X134620000Y-78740000D03*
D11*
X160528000Y-109474000D03*
D12*
X163068000Y-109474000D03*
X160528000Y-112014000D03*
X163068000Y-112014000D03*
X160528000Y-114554000D03*
X163068000Y-114554000D03*
X160528000Y-117094000D03*
X163068000Y-117094000D03*
X160528000Y-119634000D03*
X163068000Y-119634000D03*
X160528000Y-122174000D03*
X163068000Y-122174000D03*
X160528000Y-124714000D03*
X163068000Y-124714000D03*
X160528000Y-127254000D03*
X163068000Y-127254000D03*
D13*
X118000000Y-111510000D03*
X120540000Y-111510000D03*
X123080000Y-111510000D03*
X125620000Y-111510000D03*
X115460000Y-111510000D03*
X112920000Y-111510000D03*
X110380000Y-111510000D03*
X125620000Y-108970000D03*
X125620000Y-106430000D03*
X125620000Y-103890000D03*
X125620000Y-101350000D03*
X125620000Y-98810000D03*
X125620000Y-96270000D03*
X125620000Y-93730000D03*
X125620000Y-91190000D03*
X125620000Y-88650000D03*
X125620000Y-86110000D03*
X125620000Y-83570000D03*
X125620000Y-81030000D03*
X125620000Y-78490000D03*
X123080000Y-81030000D03*
X123080000Y-86110000D03*
X123080000Y-88650000D03*
X123080000Y-91190000D03*
X110380000Y-108970000D03*
X110380000Y-106430000D03*
X110380000Y-103890000D03*
X110380000Y-101350000D03*
X110380000Y-98810000D03*
X110380000Y-96270000D03*
X110380000Y-93730000D03*
X110380000Y-91190000D03*
X110380000Y-88650000D03*
X110380000Y-86110000D03*
X110380000Y-83570000D03*
X110380000Y-81030000D03*
D14*
X110380000Y-78490000D03*
D13*
X118000000Y-93730000D03*
X118000000Y-96270000D03*
X118000000Y-98810000D03*
X118000000Y-101350000D03*
X118000000Y-103890000D03*
X118000000Y-106430000D03*
X118000000Y-108970000D03*
X120540000Y-108970000D03*
X120540000Y-106430000D03*
X120540000Y-103890000D03*
X120540000Y-101350000D03*
X120540000Y-98810000D03*
X120540000Y-96270000D03*
X120540000Y-93730000D03*
X147320000Y-112522000D03*
X147320000Y-115062000D03*
X147320000Y-117602000D03*
X147320000Y-120142000D03*
X147320000Y-122682000D03*
X147320000Y-125222000D03*
X147320000Y-127762000D03*
X147320000Y-130302000D03*
X147320000Y-132842000D03*
X147320000Y-135382000D03*
X134620000Y-112522000D03*
X134620000Y-115062000D03*
X134620000Y-117602000D03*
X134620000Y-120142000D03*
X134620000Y-122682000D03*
X134620000Y-125222000D03*
X134620000Y-127762000D03*
X134620000Y-130302000D03*
X134620000Y-132842000D03*
X134620000Y-135382000D03*
X147320000Y-83566000D03*
X147320000Y-86106000D03*
X147320000Y-88646000D03*
X147320000Y-91186000D03*
X147320000Y-93726000D03*
X147320000Y-96266000D03*
X147320000Y-98806000D03*
X147320000Y-101346000D03*
X147320000Y-103886000D03*
X147320000Y-106426000D03*
X134620000Y-83566000D03*
X134620000Y-86106000D03*
X134620000Y-88646000D03*
X134620000Y-91186000D03*
X134620000Y-93726000D03*
X134620000Y-96266000D03*
X134620000Y-98806000D03*
X134620000Y-101346000D03*
X134620000Y-103886000D03*
X134620000Y-106426000D03*
D15*
X161798000Y-88900000D03*
X161798000Y-82900000D03*
X157098000Y-85900000D03*
D16*
X164592000Y-95560000D03*
D17*
X164592000Y-99060000D03*
M02*
